<?xml version="1.0" standalone="no"?>
<!DOCTYPE svg PUBLIC "-//W3C//DTD SVG 1.1//EN" "http://www.w3.org/Graphics/SVG/1.1/DTD/svg11.dtd" >
<svg>
<metadata>
Created by FontForge 20120731 at Fri Jul 28 12:42:44 2017
 By www
The programs to draw the splines of this font are Copyright (c) 2000,2001 by George Williams.
</metadata>
<defs>
<font id="Monospace" horiz-adv-x="600" >
  <font-face 
    font-family="Monospace"
    font-weight="500"
    font-stretch="normal"
    units-per-em="1000"
    panose-1="2 0 6 3 0 0 0 0 0 0"
    ascent="800"
    descent="-200"
    x-height="426"
    cap-height="562"
    bbox="-1081 -391.923 1289 1159.53"
    underline-thickness="37"
    underline-position="-82"
    unicode-range="U+000D-FFFD"
  />
<missing-glyph horiz-adv-x="432" 
d="M33 0v666h333v-666h-333zM66 33h267v600h-267v-600z" />
    <glyph glyph-name="uniFB4F" unicode="&#x5d0;&#x5dc;" 
d="M126 554l391 -543l-30 -22l-341 475v-464h-37v509q-26 28 -18 57q2 5 4 11q20 55 48 114q14 29 -5 43l-33 21l22 30q42 -30 48 -37q24 -27 2 -73q-22 -43 -48 -110l-3 -10v-1zM332 551l175 -239l-30 -22l-175 239z" />
    <glyph glyph-name=".notdef" horiz-adv-x="432" 
d="M33 0v666h333v-666h-333zM66 33h267v600h-267v-600z" />
    <glyph glyph-name=".null" horiz-adv-x="0" 
 />
    <glyph glyph-name="nonmarkingreturn" unicode="&#xd;" horiz-adv-x="333" 
 />
    <glyph glyph-name="space" unicode=" " 
 />
    <glyph glyph-name="exclam" unicode="!" 
d="M297 610l-10 -454h-37l-10 454h57zM203 38q0 35 36 50q13 6 29 6q40 0 58 -32q6 -11 6 -24q0 -34 -35 -50q-14 -6 -29 -6q-41 0 -59 32q-6 11 -6 24z" />
    <glyph glyph-name="quotedbl" unicode="&#x22;" 
d="M204 591v-182h-37v182h37zM367 591v-182h-37v182h37z" />
    <glyph glyph-name="numbersign" unicode="#" 
d="M237 403l-50 -193h112l50 193h-112zM293 616l-46 -176h111l46 176h38l-46 -176h158v-37h-168l-50 -193h125v-37h-135l-45 -173h-37l45 173h-112l-45 -173h-37l45 173h-140v37h150l50 193h-109v37h118l46 176h38z" />
    <glyph glyph-name="dollar" unicode="$" 
d="M471 580l-21 -52q-3 -9 -3 -16q0 -50 25 -83h-35q-20 47 -70 75q-31 18 -63 18q-86 0 -124 -46q-18 -22 -18 -51q0 -67 75 -100q12 -5 104 -34q91 -29 118 -73q17 -28 17 -66q0 -86 -87 -123q-33 -14 -71 -18v-85h-37v84q-59 6 -105 49q-7 -36 -18 -59h-34l14 42
q9 27 9 44q0 25 -20 63q-2 3 -3 5h34l13 -29q37 -64 103 -77q12 -2 24 -2q81 0 120 48q21 25 21 58q0 61 -73 92q-9 4 -101 33q-93 30 -122 76q-18 30 -18 71q0 84 93 119q29 11 63 15v96h37v-96q53 -5 98 -43q1 25 21 65h34z" />
    <glyph glyph-name="percent" unicode="%" 
d="M367 207q74 0 116 -43q25 -26 25 -59q0 -55 -62 -85q-37 -17 -79 -17q-73 0 -115 43q-25 26 -25 59q0 55 63 85q36 17 77 17zM367 170q-49 0 -85 -33q-18 -16 -18 -32q0 -31 41 -52q27 -13 62 -13q65 0 94 38q10 13 10 27q4 31 -43 52q-30 13 -61 13zM226 566
q72 0 115 -43q25 -25 25 -58q0 -55 -63 -85q-36 -17 -77 -17q-74 0 -116 43q-25 26 -25 58q0 55 62 85q37 17 79 17zM226 529q-66 0 -95 -38q-9 -13 -9 -26q0 -31 40 -51q28 -14 64 -14q65 0 93 38q10 13 10 26q0 31 -41 52q-27 13 -62 13zM65 161l451 285l19 -31l-451 -285
z" />
    <glyph glyph-name="ampersand" unicode="&#x26;" 
d="M224 292q-140 -70 -141 -142q0 -57 57 -88q34 -19 75 -19q48 0 82 36q1 0 44 51q6 8 18 22zM538 334l-113 -158q-8 -10 -16 -21l145 -142l-26 -26l-142 139l-17 -20q-47 -56 -58 -65q-40 -35 -96 -35q-77 0 -128 50q-41 39 -41 94q0 91 141 164q5 3 11 6l-9 10l-48 50
q-22 27 -22 63q0 82 73 105q22 7 48 7h64v-37h-64q-73 0 -83 -58q-1 -8 -1 -17q0 -25 44 -72q18 -18 21 -22q92 -99 162 -168q17 22 90 126q17 24 35 49z" />
    <glyph glyph-name="quotesingle" unicode="'" 
d="M286 591v-182h-37v182h37z" />
    <glyph glyph-name="parenleft" unicode="(" 
d="M444 615l-31 -39q-115 -145 -125 -316q-1 -14 -1 -28q0 -123 73 -259q42 -77 93 -127h-48l-18 19q-123 147 -136 330q-1 18 -1 37q0 145 75 281q33 60 74 102h45z" />
    <glyph glyph-name="parenright" unicode=")" 
d="M81 615h45q93 -95 131 -250q17 -69 17 -133q0 -184 -116 -341q-10 -13 -21 -26l-17 -19h-48q89 87 137 232q28 83 28 154q0 173 -110 324l-16 20z" />
    <glyph glyph-name="asterisk" unicode="*" 
d="M115 154l121 167l-195 62l12 35l194 -62v207h37v-207l196 62l12 -35l-196 -62l120 -167l-30 -21l-120 166l-121 -166z" />
    <glyph glyph-name="plus" unicode="+" 
d="M285 461v-172h176v-37h-176v-174h-37v174h-171v37h171v172h37z" />
    <glyph glyph-name="comma" unicode="," 
d="M228 112l-120 -246h-46l82 246h84z" />
    <glyph glyph-name="hyphen" unicode="-" 
d="M77 290h385v-37h-385v37z" />
    <glyph glyph-name="period" unicode="." 
d="M119 46q0 37 38 55q15 7 33 7q43 0 63 -34q8 -13 8 -28q0 -37 -38 -55q-15 -7 -33 -7q-43 0 -63 34q-8 13 -8 28z" />
    <glyph glyph-name="slash" unicode="/" 
d="M82 -84l368 716h40l-367 -716h-41z" />
    <glyph glyph-name="zero" unicode="0" 
d="M300 564q161 0 168 -257v-25q0 -253 -133 -280q-17 -3 -35 -3q-161 0 -168 257v25q0 255 135 280q15 3 33 3zM300 527q-103 0 -124 -142q-7 -44 -7 -103q0 -204 87 -238q19 -8 44 -8q88 0 119 129q12 53 12 116q0 246 -131 246z" />
    <glyph glyph-name="one" unicode="1" 
d="M127 31h159v487l-144 -104l-20 24l174 124h23v-531h159v-31h-159h-33h-159v31z" />
    <glyph glyph-name="two" unicode="2" 
d="M127 362v47q30 110 106 140q34 13 78 13q86 0 132 -52q30 -33 30 -81q0 -85 -80 -146q-13 -10 -84 -56l-75 -47q-57 -42 -57 -100v-46h262v89h34v-123h-333v80q0 78 87 140l132 83q20 15 35 29q42 42 42 97q0 58 -61 84q-30 13 -69 13q-109 0 -135 -104q-7 -28 -7 -60
h-37z" />
    <glyph glyph-name="three" unicode="3" 
d="M412 311q66 -43 71 -134v-11q0 -84 -76 -133q-52 -33 -117 -33q-76 0 -135 59q-3 3 -35 37l27 26q45 -49 63 -62q34 -23 80 -23q78 0 125 50q31 34 31 79q0 68 -44 108q-23 21 -50 21h-66v37h66q54 0 82 44q13 20 13 43q0 71 -76 96q-31 11 -72 11q-88 0 -153 -89l-30 21
q69 99 172 105h11q111 0 160 -65q25 -34 25 -79q0 -62 -55 -98q-8 -6 -17 -10z" />
    <glyph glyph-name="four" unicode="4" 
d="M387 492l-246 -297h246v297zM424 195h81v-37h-81v-124h89v-34h-216v34h90v124h-300v29q0 1 309 375h28v-367z" />
    <glyph glyph-name="five" unicode="5" 
d="M109 105q82 -62 167 -68q12 -1 24 -1q93 0 144 57q32 37 32 86q0 97 -90 122q-27 8 -60 8h-153v253h340v-37h-303v-179h116q117 0 164 -77q23 -38 23 -90q0 -99 -91 -150q-55 -30 -122 -30q-108 0 -205 70l-8 6z" />
    <glyph glyph-name="six" unicode="6" 
d="M171 181q0 -101 69 -134q26 -12 59 -12q83 0 116 67q14 30 14 66q0 68 -53 107q-33 24 -73 24q-59 0 -102 -46q-30 -33 -30 -72zM171 276q52 54 120 59q6 1 12 1q80 0 129 -65q34 -45 34 -103q0 -89 -64 -138q-42 -32 -103 -32q-104 0 -145 88q-20 41 -20 95v197
q0 85 72 141q55 43 125 43h136v-37h-136q-77 0 -126 -57q-34 -40 -34 -90v-102z" />
    <glyph glyph-name="seven" unicode="7" 
d="M267 0l165 525h-273v-93h-34v130h350v-23l-170 -539h-38z" />
    <glyph glyph-name="eight" unicode="8" 
d="M432 178q0 80 -54 116q-23 16 -49 16h-58q-57 0 -86 -53q-17 -33 -17 -79q0 -89 40 -119q31 -23 92 -23q132 0 132 142zM271 347h58q51 0 80 42q15 22 15 48q0 56 -62 80q-28 10 -62 10q-78 0 -110 -46q-14 -20 -14 -45q0 -48 45 -75q23 -14 50 -14zM469 178
q0 -135 -101 -168q-30 -10 -68 -10q-145 0 -165 125q-4 24 -4 53q0 102 68 148q2 1 5 3q-54 30 -63 88q-2 9 -2 19q0 77 80 111q38 16 81 16q82 0 129 -47q32 -32 32 -79q0 -63 -54 -101q-6 -4 -13 -8q61 -38 73 -120q2 -15 2 -30z" />
    <glyph glyph-name="nine" unicode="9" 
d="M373 385q0 103 -71 135q-25 11 -56 11q-83 0 -116 -67q-14 -30 -14 -66q0 -67 54 -107q32 -24 72 -24q60 0 102 46q29 33 29 72zM373 290q-49 -52 -117 -59q-7 -1 -14 -1q-79 0 -128 65q-34 46 -34 103q0 91 64 138q42 32 102 32q105 0 145 -89q19 -41 19 -94v-198
q0 -85 -70 -142q-55 -45 -125 -45h-136v37h136q75 0 123 58q35 41 35 92v103z" />
    <glyph glyph-name="colon" unicode=":" 
d="M194 351q0 37 38 55q15 7 33 7q44 0 63 -34q8 -13 8 -28q0 -37 -38 -55q-15 -7 -33 -7q-43 0 -63 34q-8 13 -8 28zM194 46q0 37 38 55q15 7 33 7q45 0 64 -35q7 -13 7 -27q0 -37 -37 -55q-16 -7 -34 -7q-43 0 -63 34q-8 13 -8 28z" />
    <glyph glyph-name="semicolon" unicode=";" 
d="M194 351q0 37 38 55q15 7 33 7q44 0 63 -34q8 -13 8 -28q0 -37 -38 -55q-15 -7 -33 -7q-43 0 -63 34q-8 13 -8 28zM318 112l-120 -246h-46l82 246h84z" />
    <glyph glyph-name="less" unicode="&#x3c;" 
d="M545 440l-398 -188l398 -199v-38l-484 237l484 229v-41z" />
    <glyph glyph-name="equal" unicode="=" 
d="M118 368h311v-37h-311v37zM118 248h311v-37h-311v37z" />
    <glyph glyph-name="greater" unicode="&#x3e;" 
d="M52 440v41l484 -229l-484 -237v38l398 199z" />
    <glyph glyph-name="question" unicode="?" 
d="M227 147v58q0 45 55 92l57 48q42 41 42 86q0 62 -75 87q-32 11 -70 11q-82 0 -118 -39q-17 -18 -17 -41v-18h-37v18q0 69 82 100q40 15 89 15q100 0 151 -53q32 -33 32 -80q0 -63 -67 -121l-59 -52q-28 -28 -28 -53v-58h-37zM177 46q0 37 38 55q15 7 33 7q43 0 63 -34
q8 -13 8 -28q0 -37 -38 -55q-15 -7 -33 -7q-43 0 -63 34q-8 13 -8 28z" />
    <glyph glyph-name="at" unicode="@" 
d="M410 416q-17 81 -72 101q-25 9 -63 9q-100 0 -130 -92q-18 -55 -18 -156q0 -159 51 -208q33 -33 96 -33h108v-37h-107q-135 0 -170 130q-15 56 -15 148q0 188 71 248q43 37 114 37q136 0 170 -136q14 -57 14 -149v-104q-9 -33 -37 -36h-69q-65 0 -89 82q-9 30 -9 62
q0 75 41 112q23 22 57 22h57zM422 175v103q0 54 -6 101h-63q-39 0 -55 -51q-6 -21 -6 -46q0 -70 34 -97q13 -10 27 -10h69z" />
    <glyph glyph-name="A" unicode="A" 
d="M226 283h152l-76 238zM361 34h96l-69 212h-172l-69 -212h95v-34h-213v34h79l158 494h-144v34h207l167 -528h75v-34h-210v34z" />
    <glyph glyph-name="B" unicode="B" 
d="M207 361h176q57 0 84 42q12 19 12 41q0 49 -47 73q-22 11 -48 11h-177v-167zM207 34h176q50 0 79 53q22 39 22 97q0 76 -51 121q-25 22 -49 22h-177v-293zM444 340q58 -42 71 -121q3 -18 3 -35q0 -107 -62 -158q-32 -26 -72 -26h-303v34h89v494h-89v34h302q64 0 104 -46
q26 -31 26 -72q0 -71 -69 -104z" />
    <glyph glyph-name="C" unicode="C" 
d="M325 564q83 0 125 -44q10 -7 11 0q3 24 12 42h34q-13 -36 -13 -70q0 -18 19 -66h-35q-17 59 -84 87q-34 14 -69 14q-86 0 -146 -77q-55 -71 -55 -169q0 -116 73 -190q56 -56 128 -56q64 0 117 42q13 11 23 23l31 -21q-45 -56 -125 -75q-24 -6 -46 -6q-104 0 -174 89
q-64 82 -64 194q0 124 76 208q68 75 162 75z" />
    <glyph glyph-name="D" unicode="D" 
d="M185 34h162q64 0 116 80q50 79 50 170q0 73 -39 148q-50 96 -127 96h-162v-494zM52 34h96v494h-96v34h295q105 0 163 -121q38 -77 38 -155q0 -92 -43 -175q-57 -111 -158 -111h-295v34z" />
    <glyph glyph-name="E" unicode="E" 
d="M435 402v-143h-34v62h-194v-287h273l12 87h34l-12 -121h-440v34h97v494h-97v34h440l9 -115h-34l-9 81h-273v-173h194v47h34z" />
    <glyph glyph-name="F" unicode="F" 
d="M207 528v-173h120v47h35v-143h-34v62h-121v-287h169v-34h-303v34h97v494h-97v34h440l14 -159h-34l-13 125h-273z" />
    <glyph glyph-name="G" unicode="G" 
d="M318 564q81 0 123 -39q3 -2 5 -5q10 -8 12 0q3 28 12 42h34q-13 -36 -13 -70q0 -18 19 -66h-35q-17 58 -87 87q-35 14 -70 14q-86 0 -146 -77q-55 -71 -55 -169q0 -121 70 -193q52 -53 120 -53q94 0 145 88q30 54 33 125h-110v34h145v-34q-5 -131 -81 -200
q-54 -50 -132 -50q-106 0 -172 95q-55 79 -55 188q0 124 77 208q68 75 161 75z" />
    <glyph glyph-name="H" unicode="H" 
d="M164 367h273v161h-98v34h230v-34h-95v-494h94v-34h-230v34h99v296h-273v-296h97v-34h-230v34h96v494h-96v34h230v-34h-97v-161z" />
    <glyph glyph-name="I" unicode="I" 
d="M285 528h-195v34h421v-34h-190v-494h189v-34h-421v34h196v494z" />
    <glyph glyph-name="J" unicode="J" 
d="M153 227q0 -87 6 -113q17 -78 93 -78q69 0 91 67q7 20 7 40v385h-173v34h307v-34h-97v-385q0 -63 -41 -106q-36 -38 -94 -38q-83 0 -120 76q-16 34 -16 68v84h37z" />
    <glyph glyph-name="K" unicode="K" 
d="M314 562h209v-34h-121q-90 -136 -199 -239q94 -26 166 -125q35 -46 81 -130h118v-34h-139q-83 150 -143 203q-50 44 -116 56q-12 -10 -20 -16v-209h91v-34h-209v34h82v494h-82v34h209v-34h-91v-237q107 93 206 237h-42v34z" />
    <glyph glyph-name="L" unicode="L" 
d="M183 528h-84v34h208v-34h-87v-494h247l21 189h34l-20 -223h-404v34h85v494z" />
    <glyph glyph-name="M" unicode="M" 
d="M542 528v-494h46v-34h-188v34h105v494h-5l-188 -407h-21l-192 407h-8v-494h104v-34h-187v34h47v494h-47v34h120v-11l172 -364l171 367v8h121v-34h-50z" />
    <glyph glyph-name="N" unicode="N" 
d="M508 54v474h-105v34h188v-34h-46v-535h-37l-414 535h-2v-494h104v-34h-187v34h47v494h-47v34h107q0 -1 392 -508z" />
    <glyph glyph-name="O" unicode="O" 
d="M300 564q103 0 173 -89q65 -82 65 -194q0 -124 -77 -208q-68 -75 -161 -75q-103 0 -173 89q-65 82 -65 194q0 124 77 208q68 75 161 75zM300 527q-86 0 -146 -77q-55 -71 -55 -169q0 -116 73 -190q56 -56 128 -56q86 0 146 77q55 71 55 169q0 116 -73 190q-56 56 -128 56
z" />
    <glyph glyph-name="P" unicode="P" 
d="M186 245h200q47 0 91 39q46 42 46 102q0 86 -72 125q-32 17 -65 17h-200v-283zM53 34h96v494h-96v34h333q66 0 118 -48q53 -49 53 -128q0 -93 -82 -145q-46 -30 -89 -30h-200v-177h136v-34h-269v34z" />
    <glyph glyph-name="Q" unicode="Q" 
d="M300 527q-86 0 -146 -77q-55 -71 -55 -169q0 -116 73 -190q56 -56 128 -56q86 0 146 77q55 71 55 169q0 116 -73 190q-56 56 -128 56zM232 10l-37 -46q17 3 37 3q28 0 67 -35q29 -26 44 -26q26 0 61 30q7 7 11 10l22 -26l-40 -33q-23 -15 -53 -15q-28 0 -68 35
q-29 26 -43 26q-52 0 -125 -50q-2 -2 -4 -3l-13 9l109 135q-89 49 -123 157q-15 48 -15 100q0 124 77 208q68 75 161 75q103 0 173 -89q65 -82 65 -194q0 -124 -77 -208q-68 -75 -161 -75q-32 0 -68 12z" />
    <glyph glyph-name="R" unicode="R" 
d="M143 281h216q59 0 100 37q37 33 37 86q0 92 -87 117q-24 7 -50 7h-216v-247zM332 247q64 -58 102 -148q10 -22 26 -65h70v-34h-94q-42 110 -65 148q-33 53 -92 99h-137v-213h130v-34h-263v34h97v494h-97v34h350q83 0 132 -51q39 -41 39 -107q0 -96 -91 -138
q-40 -19 -80 -19h-27z" />
    <glyph glyph-name="S" unicode="S" 
d="M460 570q-12 -33 -12 -57q0 -49 24 -75h-32q-2 1 -3 2q-20 47 -70 75q-31 18 -63 18q-82 0 -122 -47q-20 -24 -20 -54q0 -67 75 -100q12 -5 104 -34q91 -29 118 -73q17 -28 17 -66q0 -82 -78 -125q-46 -25 -100 -25q-63 0 -114 43q-8 8 -11 -7q-6 -23 -15 -45h-34l14 42
q9 27 9 44q0 25 -20 63q-2 3 -3 5h34l13 -29q37 -64 103 -77q12 -2 24 -2q76 0 117 49q24 28 24 64q0 61 -73 92q-9 4 -101 34q-93 29 -121 75q-19 30 -19 72q0 80 84 118q44 20 95 20q52 0 101 -36q10 -8 12 1q3 22 9 35h34z" />
    <glyph glyph-name="T" unicode="T" 
d="M522 358l-10 170h-194v-494h149v-34h-333v34h148v494h-193l-10 -170h-35l10 204h491l11 -204h-34z" />
    <glyph glyph-name="U" unicode="U" 
d="M572 528h-71v-349q0 -60 -52 -118q-62 -68 -149 -68q-91 0 -155 78q-46 56 -46 108v349h-71v34h204v-34h-100v-349q0 -39 44 -89q56 -63 123 -63q78 0 133 69q35 44 35 83v349h-99v34h204v-34z" />
    <glyph glyph-name="V" unicode="V" 
d="M587 528h-50l-220 -544h-33l-221 544h-50v34h196v-34h-106l197 -489l197 489h-106v34h196v-34z" />
    <glyph glyph-name="W" unicode="W" 
d="M402 562h198v-34h-24l-142 -543h-22l-112 385l-112 -385h-22l-142 543h-24v34h198v-34h-136l116 -444l109 373h26l109 -373l116 444h-136v34z" />
    <glyph glyph-name="X" unicode="X" 
d="M506 528l-183 -247l183 -247h42v-34h-141v34h53l-160 216l-160 -216h53v-34h-141v34h42l183 247l-183 247h-35v34h141v-34h-60l160 -216l160 216h-60v34h141v-34h-35z" />
    <glyph glyph-name="Y" unicode="Y" 
d="M317 34h58v-34h-152v34h57v239l-186 255h-35v34h141v-34h-60l160 -216l160 216h-60v34h141v-34h-35l-189 -255v-239z" />
    <glyph glyph-name="Z" unicode="Z" 
d="M432 34l11 156h35l-14 -190h-339v20l287 508h-248l-7 -153h-35l9 187h331v-23l-286 -505h256z" />
    <glyph glyph-name="bracketleft" unicode="[" 
d="M226 562h124v-34h-87v-632h86v-34h-124l1 699v1z" />
    <glyph glyph-name="backslash" unicode="\" 
d="M530 -84h-42l-366 716h40z" />
    <glyph glyph-name="bracketright" unicode="]" 
d="M266 562l1 -699v-1h-124v34h86v632h-87v34h124z" />
    <glyph glyph-name="asciicircum" unicode="^" 
d="M505 357l-22 -22l-179 146l-187 -146l-22 22l206 205z" />
    <glyph glyph-name="underscore" unicode="_" 
d="M35 -72h531v-34h-531v34z" />
    <glyph glyph-name="grave" unicode="`" 
d="M191 657h93l122 -175h-47z" />
    <glyph glyph-name="a" unicode="a" 
d="M409 239q-105 27 -186 27q-75 0 -118 -51q-27 -32 -27 -72q0 -64 69 -99q42 -21 92 -21q80 0 133 48q17 15 37 39v129zM446 34h93v-34h-130v54q-62 -62 -147 -67q-11 -1 -23 -1q-89 0 -149 52q-49 43 -49 105q0 83 75 129q48 31 107 31q84 0 186 -26v17q0 43 -57 76
q-51 30 -115 30q-63 0 -160 -43l-14 34l59 23q71 23 115 23q98 0 162 -53q47 -39 47 -90v-260z" />
    <glyph glyph-name="b" unicode="b" 
d="M344 390q-86 0 -143 -62q-45 -49 -45 -115q0 -86 71 -139q52 -38 116 -38q90 0 147 66q41 49 41 111q0 83 -68 136q-51 41 -119 41zM119 591l-78 -15l-6 34l121 22v-301q55 78 151 93q18 3 36 3q103 0 170 -74q55 -60 55 -140q0 -97 -76 -161q-63 -53 -148 -53
q-102 0 -169 73q-10 11 -18 23v-95h-118v34h80v557z" />
    <glyph glyph-name="c" unicode="c" 
d="M454 377l5 22l33 -7l-12 -56q9 -13 19 -36l-35 -12q-35 70 -113 94q-28 8 -57 8q-90 0 -147 -66q-41 -49 -41 -111q0 -81 69 -134q56 -42 128 -42q56 0 122 36q14 7 24 15l20 -33q-50 -41 -134 -53q-17 -2 -32 -2q-111 0 -180 75q-54 59 -54 138q0 96 76 160
q64 54 149 54q79 0 146 -52q12 -8 14 2z" />
    <glyph glyph-name="d" unicode="d" 
d="M582 0h-117v95q-55 -78 -151 -93q-18 -3 -36 -3q-103 0 -170 74q-55 60 -55 140q0 97 76 161q63 53 148 53q102 0 169 -73q10 -11 18 -23v258l-160 -30v34l197 39v-598h81v-34zM465 213q0 86 -71 139q-52 38 -116 38q-90 0 -147 -66q-41 -49 -41 -111q0 -83 68 -136
q51 -41 119 -41q86 0 143 62q45 49 45 115z" />
    <glyph glyph-name="e" unicode="e" 
d="M478 247q-16 77 -87 118q-45 25 -97 25q-90 0 -146 -66q-29 -34 -38 -77h368zM519 213h-413q0 -81 69 -134q54 -42 124 -42q80 0 154 48q5 4 10 7l24 -28q-62 -52 -157 -62q-16 -2 -31 -2q-101 0 -171 71q-59 61 -59 142q0 96 76 160q64 54 149 54q103 0 170 -72
q55 -60 55 -142z" />
    <glyph glyph-name="f" unicode="f" 
d="M185 34v358h-73v34h72v79q0 61 65 101q42 26 85 26q80 0 148 -49l-22 -30q-57 42 -126 42q-53 0 -90 -41q-23 -24 -23 -49v-79h250v-34h-250v-358h167v-34h-276v34h73z" />
    <glyph glyph-name="g" unicode="g" 
d="M269 390q-90 0 -147 -66q-41 -49 -41 -111q0 -83 68 -136q51 -41 119 -41q90 0 147 66q41 49 41 111q0 83 -68 136q-51 41 -119 41zM575 426v-34h-82v-423q0 -63 -75 -116q-72 -50 -152 -50q-94 0 -193 58l16 33q46 -32 126 -48q28 -6 50 -6q68 0 135 48q56 41 56 81v127
q-52 -75 -143 -93q-22 -4 -44 -4q-103 0 -170 74q-55 60 -55 140q0 97 76 161q63 53 148 53q102 0 170 -74q10 -11 18 -23v96h119z" />
    <glyph glyph-name="h" unicode="h" 
d="M146 376q77 42 102 51q38 13 73 13q74 0 129 -57q41 -42 41 -87v-261h85v-35h-208v35h87v261q0 35 -45 72q-43 35 -89 35q-66 0 -171 -68q-3 -1 -5 -3v-297h85v-35h-208v35h87v555l-87 -22v34l124 30v-256z" />
    <glyph glyph-name="i" unicode="i" 
d="M344 584v-97h-74v97h74zM289 392h-186v34h223v-392h173v-34h-396v34h186v358z" />
    <glyph glyph-name="j" unicode="j" 
d="M345 583v-97h-74v97h74zM76 -134q33 -23 98 -26h11q49 0 83 56q22 37 22 73v423h-131v34h168v-457q0 -62 -43 -115q-42 -51 -99 -51q-81 0 -125 30z" />
    <glyph glyph-name="k" unicode="k" 
d="M350 34h35l-161 198l-32 -27v-205h-137v34h100v551l-100 -36v34l137 49v-378l165 138h-33v34h170v-34h-80l-162 -136l181 -222h94v-34h-177v34z" />
    <glyph glyph-name="l" unicode="l" 
d="M255 589l-163 -40v34l200 49v-598h216v-34h-416v34h163v555z" />
    <glyph glyph-name="m" unicode="m" 
d="M313 373q35 44 88 63q11 4 18 4q80 0 93 -85q3 -21 3 -59v-261h85v-35h-123v296q0 62 -11 82q-13 25 -46 25q-38 0 -101 -70v-298h85v-35h-122v296q0 107 -58 107q-39 0 -96 -66l-5 -5v-297h85v-35h-208v35h87v357h-87v34h123v-50q16 30 70 55q20 9 31 9q71 0 89 -67z
" />
    <glyph glyph-name="n" unicode="n" 
d="M145 376q33 18 39 21q80 43 137 43q68 0 125 -55q45 -44 45 -89v-262h85v-34h-208v34h87v262q0 35 -45 72q-43 35 -89 35q-66 0 -171 -68q-3 -1 -5 -3v-298h85v-34h-208v34h87v358h-87v34h124q-3 -14 -1 -50z" />
    <glyph glyph-name="o" unicode="o" 
d="M300 427q101 0 169 -72q56 -61 56 -142q0 -96 -76 -160q-64 -54 -149 -54q-101 0 -169 72q-56 61 -56 142q0 96 76 160q64 54 149 54zM300 390q-88 0 -145 -65q-43 -49 -43 -112q0 -83 67 -136q52 -41 121 -41q95 0 149 67q39 47 39 110q0 89 -73 141q-50 36 -115 36z
" />
    <glyph glyph-name="p" unicode="p" 
d="M343 36q88 0 145 65q43 49 43 112q0 83 -68 136q-51 41 -119 41q-87 0 -144 -63q-44 -48 -44 -114q0 -89 72 -141q50 -36 115 -36zM119 -146q0 2 1 538h-81v34h117v-95q55 78 151 93q18 3 36 3q103 0 170 -74q55 -60 55 -140q0 -97 -76 -161q-63 -53 -148 -53
q-103 0 -171 75q-9 10 -17 21v-241h123v-34h-239v34h79z" />
    <glyph glyph-name="q" unicode="q" 
d="M257 36q92 0 147 65q40 48 40 112q0 87 -72 139q-51 38 -116 38q-89 0 -145 -66q-42 -48 -42 -111q0 -82 68 -136q52 -41 120 -41zM481 -146h79v-34h-239v34h123v241q-56 -79 -153 -93q-17 -3 -35 -3q-102 0 -169 73q-55 60 -55 141q0 97 77 161q63 53 148 53
q101 0 169 -74q10 -10 18 -22v95h117v-34h-81q0 -404 1 -538z" />
    <glyph glyph-name="r" unicode="r" 
d="M462 363q-13 15 -60 32q-24 8 -40 8q-64 0 -164 -59q-10 -6 -19 -12v-297h85v-35h-209v35h87v357h-87v34h124v-50q36 19 39 21q75 42 143 43q64 0 119 -42q7 -5 13 -11z" />
    <glyph glyph-name="s" unicode="s" 
d="M460 432q-12 -24 -12 -49q0 -40 24 -62h-34q-21 39 -73 61q-31 13 -61 13q-104 0 -134 -43q-8 -12 -8 -27q0 -51 74 -76l146 -37q87 -28 93 -89q1 -5 1 -11q0 -64 -78 -98q-46 -19 -100 -19q-63 0 -114 33q-8 6 -11 -5q-4 -13 -15 -35h-34l14 33q9 20 9 39t-19 50
q-2 4 -4 6h34l13 -22q39 -55 113 -61q7 -1 14 -1q94 0 128 44q13 16 13 36q0 46 -69 69l-145 35q-91 29 -99 94q-1 7 -1 15q0 62 84 92q44 15 95 15q50 0 101 -27q10 -7 12 0q3 18 9 27h34z" />
    <glyph glyph-name="t" unicode="t" 
d="M53 426h78v132h37v-132h252v-34h-252v-251q0 -53 54 -92q43 -31 94 -31q72 0 187 115l28 -24q-75 -83 -155 -115q-33 -13 -60 -13q-78 0 -136 56q-48 46 -48 104v251h-79v34z" />
    <glyph glyph-name="u" unicode="u" 
d="M453 51q-33 -18 -39 -21q-80 -43 -137 -43q-68 0 -125 55q-45 44 -45 89v261h-85v34h122l-1 -294v-1q0 -35 45 -72q43 -35 89 -35q66 0 171 68q3 1 5 3v297h-85v34h122v-391h86v-35h-123v51z" />
    <glyph glyph-name="v" unicode="v" 
d="M590 392h-76l-200 -405h-28l-200 405h-76v34h191v-34h-74l173 -350l173 350h-74v34h191v-34z" />
    <glyph glyph-name="w" unicode="w" 
d="M76 392l106 -336l104 269h28l104 -269l106 336h-125v34h201v-34h-37l-130 -416h-24l-109 282l-109 -282h-24l-130 416h-37v34h201v-34h-125z" />
    <glyph glyph-name="x" unicode="x" 
d="M172 0h-159v34h57l202 178l-205 180h-54v34h159v-34h-49l177 -155l177 155h-49v34h159v-34h-54l-205 -180l202 -178h57v-34h-159v34h46l-174 153l-174 -153h46v-34z" />
    <glyph glyph-name="y" unicode="y" 
d="M284 -168h-284v34h213l66 134l-193 392h-76v34h191v-34h-74l173 -350l173 350h-74v34h191v-34h-76l-260 -526h30v-34z" />
    <glyph glyph-name="z" unicode="z" 
d="M499 392l-348 -358h332v36h34v-70h-418v34l348 358h-330v-36h-34v70h416v-34z" />
    <glyph glyph-name="braceleft" unicode="{" 
d="M207 245q42 -37 47 -90v-136q0 -74 61 -95q19 -6 41 -6h20v-38h-20q-84 0 -120 66q-18 32 -18 73v136q0 37 -31 58q-18 13 -41 13v37q47 0 65 44q6 14 6 28v136q0 83 63 120q33 19 76 19h20v-37h-20q-74 0 -95 -62q-6 -18 -6 -40v-136q0 -46 -36 -80q-6 -6 -12 -10z" />
    <glyph glyph-name="bar" unicode="|" 
d="M319 562v-705h-38v705h38z" />
    <glyph glyph-name="braceright" unicode="}" 
d="M320 245q-42 37 -47 90v136q0 73 -60 95q-19 7 -42 7h-20v37h20q86 0 122 -67q17 -31 17 -72v-136q0 -38 31 -60q17 -12 40 -12v-37q-47 0 -65 -44q-6 -14 -6 -27v-136q0 -84 -64 -121q-33 -18 -75 -18h-20v38h20q75 0 96 61q6 18 6 40v136q0 49 37 82z" />
    <glyph glyph-name="asciitilde" unicode="~" 
d="M39 252q54 49 89 61q22 7 47 7q58 0 121 -47q54 -41 71 -49q28 -14 58 -14q47 0 101 48q4 4 13 12l22 -26q-58 -50 -94 -62q-20 -6 -42 -6q-59 0 -122 48q-55 41 -72 49q-27 13 -56 13q-47 0 -96 -44q-4 -4 -18 -16z" />
    <glyph glyph-name="uni00A0" unicode="&#xa0;" 
 />
    <glyph glyph-name="exclamdown" unicode="&#xa1;" 
d="M238 -18l10 454h37l10 -454h-57zM332 554q0 -34 -35 -50q-14 -6 -29 -6q-41 0 -59 32q-6 11 -6 24q0 35 36 50q13 6 29 6q40 0 58 -32q6 -11 6 -24z" />
    <glyph glyph-name="cent" unicode="&#xa2;" 
d="M405 432l5 23l33 -7l-12 -56q9 -13 19 -36l-35 -12q-35 69 -113 93q-28 8 -57 8q-90 0 -147 -66q-41 -48 -41 -110q0 -81 69 -135q56 -42 128 -42q56 0 124 37q13 7 22 14l20 -33q-50 -41 -134 -52q-12 -2 -24 -2v-118h-34v119q-105 10 -165 87q-43 55 -43 124
q0 97 77 161q57 47 131 52v137h34v-137q70 -4 129 -50q13 -10 14 1z" />
    <glyph glyph-name="sterling" unicode="&#xa3;" 
d="M80 330h69q-22 46 -22 88q0 99 90 152q56 34 125 34q73 0 134 -50q16 -13 41 -37l-24 -24q-59 57 -98 69q-23 8 -53 8q-89 0 -143 -56q-38 -40 -38 -96q0 -40 26 -88h222v-34h-204q23 -50 23 -91q0 -73 -44 -150q25 7 56 7q34 0 79 -31q38 -27 61 -27q51 0 83 33
q6 6 12 13l26 -22q-43 -53 -105 -57q-8 -1 -16 -1q-34 0 -79 31q-38 27 -61 27q-67 0 -102 -35l-5 -5v0l-24 24v0l5 5q51 53 72 129q8 31 8 59q0 39 -27 91h-87v34z" />
    <glyph glyph-name="currency" unicode="&#xa4;" 
d="M300 447q78 0 137 -51l63 63l24 -25l-63 -62q50 -58 50 -135q0 -78 -52 -138l60 -59l-24 -25l-60 60q-57 -49 -135 -49q-76 0 -136 50l-59 -60l-24 23l59 61q-51 59 -51 136q0 76 50 136l-63 62l24 25l63 -63q57 51 137 51zM300 410q-83 0 -135 -65q-39 -47 -39 -108
q0 -83 65 -135q47 -39 109 -39q83 0 135 65q39 47 39 108q0 83 -65 135q-47 39 -109 39z" />
    <glyph glyph-name="yen" unicode="&#xa5;" 
d="M317 34h58v-34h-152v34h57v138h-177v34h177v67l-22 30h-155v34h130l-139 191h-35v34h141v-34h-60l142 -191h36l142 191h-60v34h141v-34h-35l-142 -191h132v-34h-157l-22 -30v-67h179v-34h-179v-138z" />
    <glyph glyph-name="brokenbar" unicode="&#xa6;" 
d="M319 167v-310h-38v310h38zM281 321v241h38v-241h-38z" />
    <glyph glyph-name="section" unicode="&#xa7;" 
d="M220 371l-2 -2q-60 -46 -60 -82q0 -52 108 -120q-30 19 24 -15l57 -38l2 2q60 46 60 82q0 50 -103 118l-29 18q-55 35 -57 37zM170 10v-68h186q40 0 46 27q1 6 1 15q0 49 -80 105l-118 79q-81 60 -81 119q0 50 69 106q-63 52 -63 109q0 76 81 76h231v-102h-34v68h-197
q-40 0 -46 -27q-1 -6 -1 -15q0 -49 81 -106l117 -78q81 -61 81 -120q0 -49 -64 -102q-2 -2 -4 -3q62 -55 62 -109q0 -76 -81 -76h-220v102h34z" />
    <glyph glyph-name="dieresis" unicode="&#xa8;" 
d="M129 520q0 27 25 36q6 2 13 2q27 0 36 -25q2 -6 2 -13q0 -27 -25 -36q-6 -2 -13 -2q-27 0 -36 25q-2 6 -2 13zM286 520q0 27 25 36q6 2 13 2q27 0 36 -25q2 -6 2 -13q0 -27 -25 -36q-6 -2 -13 -2q-27 0 -36 25q-2 6 -2 13z" />
    <glyph glyph-name="copyright" unicode="&#xa9;" 
d="M300 554q120 0 204 -86q80 -83 80 -197q0 -120 -86 -204q-83 -80 -198 -80q-120 0 -204 86q-80 83 -80 197q0 120 86 204q83 80 198 80zM300 520q-110 0 -184 -81q-66 -71 -66 -168q0 -110 81 -184q72 -66 169 -66q110 0 184 81q66 71 66 168q0 110 -81 184
q-72 66 -169 66zM410 155q-44 -49 -108 -49q-75 0 -120 62q-32 44 -32 98q0 78 58 126q41 34 93 34q70 0 114 -55l-26 -21q-36 42 -87 42q-61 0 -96 -53q-22 -32 -22 -73q0 -67 51 -104q30 -22 66 -22q51 0 84 38z" />
    <glyph glyph-name="ordfeminine" unicode="&#xaa;" 
d="M449 162h-288v34h288v-34zM374 432q-61 16 -112 16q-52 0 -76 -39q-10 -16 -10 -35q0 -42 49 -62q22 -9 47 -9q53 0 88 36q7 6 14 15v78zM396 309h56v-21h-78v33q-39 -41 -102 -41q-62 0 -97 39q-22 24 -22 55q0 56 54 83q26 13 55 13q47 0 112 -15v10q0 29 -41 49
q-28 14 -62 14q-37 0 -96 -25l-9 20l36 14q43 13 69 13q67 0 105 -39q20 -21 20 -46v-156z" />
    <glyph glyph-name="guillemotleft" unicode="&#xab;" 
d="M330 422l-214 -182l214 -181l-29 -32l-288 213l288 213zM521 422l-214 -182l214 -181l-29 -32l-288 213l288 213z" />
    <glyph glyph-name="logicalnot" unicode="&#xac;" 
d="M71 347h368v-171h-37v133h-331v38z" />
    <glyph glyph-name="uni00AD" unicode="&#xad;" 
d="M118 290h311v-37h-311v37z" />
    <glyph glyph-name="registered" unicode="&#xae;" 
d="M257 300h78q27 0 32 33q1 5 1 11q0 38 -24 49q-6 3 -12 3h-75v-96zM332 266l66 -122h-37l-68 122h-36v-125h-34v289h109q46 0 63 -48q7 -17 7 -36q0 -54 -37 -73q-13 -7 -30 -7h-3zM300 554q120 0 204 -86q80 -83 80 -197q0 -120 -86 -204q-83 -80 -198 -80
q-120 0 -204 86q-80 83 -80 197q0 120 86 204q83 80 198 80zM300 520q-110 0 -184 -81q-66 -71 -66 -168q0 -110 81 -184q72 -66 169 -66q110 0 184 81q66 71 66 168q0 110 -81 184q-72 66 -169 66z" />
    <glyph glyph-name="macron" unicode="&#xaf;" 
d="M71 562h347v-34h-347v34z" />
    <glyph glyph-name="degree" unicode="&#xb0;" 
d="M412 613q66 0 104 -54q24 -33 24 -73q0 -66 -54 -104q-33 -24 -74 -24q-66 0 -104 54q-24 33 -24 73q0 66 54 104q33 24 74 24zM412 579q-52 0 -80 -44q-14 -23 -14 -49q0 -52 44 -80q23 -14 50 -14q52 0 80 44q14 23 14 49q0 52 -44 80q-23 14 -50 14z" />
    <glyph glyph-name="plusminus" unicode="&#xb1;" 
d="M284 417v-99h177v-37h-176v-88h-37v88h-171v37h170v99h37zM77 124h385v-37h-385v37z" />
    <glyph glyph-name="twosuperior" unicode="&#xb2;" 
d="M196 507v28q26 92 111 92q60 0 86 -40q11 -17 11 -40q0 -54 -56 -94q-1 0 -43 -27l-49 -32q-30 -23 -30 -56v-28h157v53h21v-73h-200v48q0 49 61 90l74 46q10 8 17 15q26 24 26 58q0 39 -45 53q-15 5 -33 5q-71 0 -84 -71q-2 -13 -2 -27h-22z" />
    <glyph glyph-name="threesuperior" unicode="&#xb3;" 
d="M367 477q43 -26 43 -87q0 -56 -55 -85q-28 -14 -61 -14q-49 0 -88 42q-2 3 -14 16l16 15q32 -34 47 -42q17 -9 39 -9q54 0 81 38q13 17 13 39q0 47 -32 69q-12 9 -25 9h-39v22h39q38 0 52 31q5 10 5 21q0 48 -57 61q-15 3 -32 3q-55 0 -91 -53l-18 13q43 63 109 63
q76 0 102 -49q9 -17 9 -38q0 -44 -43 -65z" />
    <glyph glyph-name="acute" unicode="&#xb4;" 
d="M403 657l-169 -175h-46l122 175h93z" />
    <glyph glyph-name="mu" unicode="&#xb5;" 
d="M28 426h121v-312q6 -64 69 -84q24 -8 53 -8q76 0 153 83q4 6 9 11v276h-85v34h122v-392h85v-34h-122v66q-69 -73 -149 -80q-7 -1 -14 -1q-79 0 -120 44v-221h-38v584h-84v34z" />
    <glyph glyph-name="paragraph" unicode="&#xb6;" 
d="M339 262v266h-67q-83 0 -136 -44q-42 -36 -42 -89q0 -94 102 -123q33 -10 70 -10h73zM376 528v-587h-165v34h128v253h-73q-96 0 -154 49q-52 43 -52 118q0 102 108 146q50 21 104 21h275v-34h-38v-553h65v-34h-101v587h-97z" />
    <glyph glyph-name="periodcentered" unicode="&#xb7;" 
d="M232 248q0 37 38 55q15 7 33 7q43 0 63 -34q8 -13 8 -28q0 -37 -38 -55q-15 -7 -33 -7q-43 0 -63 34q-8 13 -8 28z" />
    <glyph glyph-name="cedilla" unicode="&#xb8;" 
d="M334 26l-10 -54q62 13 98 -29q18 -22 18 -49q0 -51 -58 -75q-44 -18 -114 -11l5 34q92 -12 123 28q7 9 7 18q0 52 -60 53q-15 0 -33 -4l-25 -6l12 94z" />
    <glyph glyph-name="onesuperior" unicode="&#xb9;" 
d="M196 311h95v291l-86 -61l-12 14l105 74h14v-318h95v-18h-95h-21h-95v18z" />
    <glyph glyph-name="ordmasculine" unicode="&#xba;" 
d="M449 162h-288v34h288v-34zM298 548q68 0 108 -53q26 -34 26 -75q0 -65 -56 -104q-35 -24 -78 -24q-69 0 -110 53q-25 34 -25 75q0 65 56 103q35 25 79 25zM298 526q-62 0 -95 -49q-18 -26 -18 -57q0 -56 49 -87q29 -19 64 -19q60 0 94 48q18 27 18 58q0 56 -49 88
q-29 18 -63 18z" />
    <glyph glyph-name="guillemotright" unicode="&#xbb;" 
d="M265 422l29 31l288 -213l-288 -213l-29 32l214 181zM73 422l29 31l288 -213l-288 -213l-29 32l214 181z" />
    <glyph glyph-name="onequarter" unicode="&#xbc;" 
d="M197 5l207 627l32 -10l-207 -627zM501 331l-164 -199h164v199zM525 132h55v-25h-55v-84h60v-23h-144v23h60v84h-200v20l206 250h18v-245zM30 309h95v290l-86 -61l-12 15l104 73h14v-317h95v-19h-95h-20h-95v19z" />
    <glyph glyph-name="onehalf" unicode="&#xbd;" 
d="M197 5l207 627l32 -9l-207 -628zM30 309h95v290l-86 -61l-12 15l104 73h14v-317h95v-19h-95h-20h-95v19zM374 216v28q26 92 110 92q61 0 87 -40q11 -17 11 -40q0 -54 -56 -94q-1 0 -43 -27l-50 -32q-29 -22 -29 -55v-28h157v53h21v-73h-200v48q0 49 61 89l73 46
q10 7 18 15q26 24 26 58q0 40 -45 53q-16 5 -34 5q-70 0 -83 -71q-2 -13 -2 -27h-22z" />
    <glyph glyph-name="threequarters" unicode="&#xbe;" 
d="M194 5l207 627l32 -9l-207 -628zM501 331l-164 -199h164v199zM525 132h55v-25h-55v-84h60v-23h-144v23h60v84h-200v20l206 250h18v-245zM207 477q43 -26 43 -87q0 -56 -55 -85q-28 -14 -61 -14q-49 0 -88 42q-2 3 -14 16l16 15q32 -34 47 -42q17 -9 39 -9q54 0 80 37
q13 18 13 40q0 47 -31 69q-12 9 -25 9h-40v22h40q38 0 52 31q5 10 5 21q0 47 -54 60q-16 4 -35 4q-55 0 -91 -53l-19 13q46 63 110 63q76 0 102 -49q9 -17 9 -38q0 -44 -43 -65z" />
    <glyph glyph-name="questiondown" unicode="&#xbf;" 
d="M255 403v-58q0 -45 -55 -92l-57 -48q-42 -41 -42 -86q0 -61 72 -86q33 -12 72 -12q83 0 120 40q16 17 16 40v18h37v-18q0 -69 -80 -101q-41 -16 -92 -16q-96 0 -148 53q-34 34 -34 82q0 63 67 121l59 52q28 28 28 53v58h37zM305 504q0 -37 -38 -55q-15 -7 -33 -7
q-43 0 -63 34q-8 13 -8 28q0 37 38 55q15 7 33 7q43 0 63 -34q8 -13 8 -28z" />
    <glyph glyph-name="Agrave" unicode="&#xc0;" 
d="M109 799h93l122 -175h-47zM226 283h152l-76 238zM361 34h96l-69 212h-172l-69 -212h95v-34h-213v34h79l158 494h-144v34h207l167 -528h75v-34h-210v34z" />
    <glyph glyph-name="Aacute" unicode="&#xc1;" 
d="M498 799l-169 -175h-46l122 175h93zM226 283h152l-76 238zM361 34h96l-69 212h-172l-69 -212h95v-34h-213v34h79l158 494h-144v34h207l167 -528h75v-34h-210v34z" />
    <glyph glyph-name="Acircumflex" unicode="&#xc2;" 
d="M431 638l-14 -14l-115 93l-119 -93l-14 14l121 121h21zM226 283h152l-76 238zM361 34h96l-69 212h-172l-69 -212h95v-34h-213v34h79l158 494h-144v34h207l167 -528h75v-34h-210v34z" />
    <glyph glyph-name="Atilde" unicode="&#xc3;" 
d="M205 624q1 43 39 67q18 11 36 11q15 1 44 -22q16 -13 25 -12q34 3 54 30h5q3 -40 -25 -63q-14 -11 -32 -11q-23 1 -48 22q-15 13 -26 13q-40 -1 -62 -35h-10zM226 283h152l-76 238zM361 34h96l-69 212h-172l-69 -212h95v-34h-213v34h79l158 494h-144v34h207l167 -528h75
v-34h-210v34z" />
    <glyph glyph-name="Adieresis" unicode="&#xc4;" 
d="M184 662q0 27 25 36q6 2 13 2q27 0 36 -25q2 -6 2 -13q0 -27 -25 -36q-6 -2 -13 -2q-27 0 -36 25q-2 6 -2 13zM341 662q0 27 25 36q6 2 13 2q27 0 36 -25q2 -6 2 -13q0 -27 -25 -36q-6 -2 -13 -2q-27 0 -36 25q-2 6 -2 13zM226 283h152l-76 238zM361 34h96l-69 212h-172
l-69 -212h95v-34h-213v34h79l158 494h-144v34h207l167 -528h75v-34h-210v34z" />
    <glyph glyph-name="Aring" unicode="&#xc5;" 
d="M300 786q50 0 77 -43q14 -22 14 -48q0 -50 -43 -77q-22 -14 -48 -14q-50 0 -77 43q-14 22 -14 48q0 50 43 77q22 14 48 14zM300 752q-34 0 -51 -31q-6 -12 -6 -26q0 -34 31 -51q12 -6 26 -6q34 0 51 31q6 12 6 26q0 34 -31 51q-12 6 -26 6zM226 283h152l-76 238zM361 34
h96l-69 212h-172l-69 -212h95v-34h-213v34h79l158 494h-144v34h207l167 -528h75v-34h-210v34z" />
    <glyph glyph-name="AE" unicode="&#xc6;" 
d="M312 283v238l-83 -238h83zM486 402v-143h-34v62h-103v-287h182l12 87h34l-12 -121h-253v246h-96l-74 -212h95v-34h-213v34h79l173 494h-159v34h448l9 -115h-34l-9 81h-182v-173h103v47h34z" />
    <glyph glyph-name="Ccedilla" unicode="&#xc7;" 
d="M343 5l-10 -54q62 13 98 -29q18 -22 18 -49q0 -51 -58 -75q-44 -18 -114 -11l5 34q92 -12 123 28q7 9 7 18q0 52 -60 53q-15 0 -33 -4l-25 -6l12 94zM325 564q83 0 125 -44q10 -7 11 0q3 24 12 42h34q-13 -36 -13 -70q0 -18 19 -66h-35q-17 59 -84 87q-34 14 -69 14
q-86 0 -146 -77q-55 -71 -55 -169q0 -116 73 -190q56 -56 128 -56q64 0 117 42q13 11 23 23l31 -21q-45 -56 -125 -75q-24 -6 -46 -6q-104 0 -174 89q-64 82 -64 194q0 124 76 208q68 75 162 75z" />
    <glyph glyph-name="Egrave" unicode="&#xc8;" 
d="M102 799h93l122 -175h-47zM435 402v-143h-34v62h-194v-287h273l12 87h34l-12 -121h-440v34h97v494h-97v34h440l9 -115h-34l-9 81h-273v-173h194v47h34z" />
    <glyph glyph-name="Eacute" unicode="&#xc9;" 
d="M486 799l-169 -175h-46l122 175h93zM435 402v-143h-34v62h-194v-287h273l12 87h34l-12 -121h-440v34h97v494h-97v34h440l9 -115h-34l-9 81h-273v-173h194v47h34z" />
    <glyph glyph-name="Ecircumflex" unicode="&#xca;" 
d="M425 638l-14 -14l-115 93l-119 -93l-14 14l121 121h21zM435 402v-143h-34v62h-194v-287h273l12 87h34l-12 -121h-440v34h97v494h-97v34h440l9 -115h-34l-9 81h-273v-173h194v47h34z" />
    <glyph glyph-name="Edieresis" unicode="&#xcb;" 
d="M177 662q0 27 25 36q6 2 13 2q27 0 36 -25q2 -6 2 -13q0 -27 -25 -36q-6 -2 -13 -2q-27 0 -36 25q-2 6 -2 13zM334 662q0 27 25 36q6 2 13 2q27 0 36 -25q2 -6 2 -13q0 -27 -25 -36q-6 -2 -13 -2q-27 0 -36 25q-2 6 -2 13zM435 402v-143h-34v62h-194v-287h273l12 87h34
l-12 -121h-440v34h97v494h-97v34h440l9 -115h-34l-9 81h-273v-173h194v47h34z" />
    <glyph glyph-name="Igrave" unicode="&#xcc;" 
d="M109 799h93l122 -175h-47zM285 528h-195v34h421v-34h-190v-494h189v-34h-421v34h196v494z" />
    <glyph glyph-name="Iacute" unicode="&#xcd;" 
d="M492 799l-169 -175h-46l122 175h93zM285 528h-195v34h421v-34h-190v-494h189v-34h-421v34h196v494z" />
    <glyph glyph-name="Icircumflex" unicode="&#xce;" 
d="M431 638l-14 -14l-115 93l-119 -93l-14 14l121 121h21zM285 528h-195v34h421v-34h-190v-494h189v-34h-421v34h196v494z" />
    <glyph glyph-name="Idieresis" unicode="&#xcf;" 
d="M184 662q0 27 25 36q6 2 13 2q27 0 36 -25q2 -6 2 -13q0 -27 -25 -36q-6 -2 -13 -2q-27 0 -36 25q-2 6 -2 13zM341 662q0 27 25 36q6 2 13 2q27 0 36 -25q2 -6 2 -13q0 -27 -25 -36q-6 -2 -13 -2q-27 0 -36 25q-2 6 -2 13zM285 528h-195v34h421v-34h-190v-494h189v-34
h-421v34h196v494z" />
    <glyph glyph-name="Eth" unicode="&#xd0;" 
d="M185 34h162q64 0 116 80q50 79 50 170q0 73 -39 148q-50 96 -127 96h-162v-212h69v-34h-69v-248zM52 34h96v248h-66v34h66v212h-96v34h295q105 0 163 -121q38 -77 38 -155q0 -92 -43 -175q-57 -111 -158 -111h-295v34z" />
    <glyph glyph-name="Ntilde" unicode="&#xd1;" 
d="M198 624q1 43 39 67q18 11 36 11q15 1 44 -22q16 -13 25 -12q34 3 54 30h5q3 -40 -25 -63q-14 -11 -32 -11q-23 1 -48 22q-15 13 -26 13q-40 -1 -62 -35h-10zM508 54v474h-105v34h188v-34h-46v-535h-37l-414 535h-2v-494h104v-34h-187v34h47v494h-47v34h107
q0 -1 392 -508z" />
    <glyph glyph-name="Ograve" unicode="&#xd2;" 
d="M108 799h93l122 -175h-47zM300 564q103 0 173 -89q65 -82 65 -194q0 -124 -77 -208q-68 -75 -161 -75q-103 0 -173 89q-65 82 -65 194q0 124 77 208q68 75 161 75zM300 527q-86 0 -146 -77q-55 -71 -55 -169q0 -116 73 -190q56 -56 128 -56q86 0 146 77q55 71 55 169
q0 116 -73 190q-56 56 -128 56z" />
    <glyph glyph-name="Oacute" unicode="&#xd3;" 
d="M492 799l-169 -175h-46l122 175h93zM300 564q103 0 173 -89q65 -82 65 -194q0 -124 -77 -208q-68 -75 -161 -75q-103 0 -173 89q-65 82 -65 194q0 124 77 208q68 75 161 75zM300 527q-86 0 -146 -77q-55 -71 -55 -169q0 -116 73 -190q56 -56 128 -56q86 0 146 77
q55 71 55 169q0 116 -73 190q-56 56 -128 56z" />
    <glyph glyph-name="Ocircumflex" unicode="&#xd4;" 
d="M431 638l-14 -14l-115 93l-119 -93l-14 14l121 121h21zM300 564q103 0 173 -89q65 -82 65 -194q0 -124 -77 -208q-68 -75 -161 -75q-103 0 -173 89q-65 82 -65 194q0 124 77 208q68 75 161 75zM300 527q-86 0 -146 -77q-55 -71 -55 -169q0 -116 73 -190q56 -56 128 -56
q86 0 146 77q55 71 55 169q0 116 -73 190q-56 56 -128 56z" />
    <glyph glyph-name="Otilde" unicode="&#xd5;" 
d="M198 624q1 43 39 67q18 11 36 11q15 1 44 -22q16 -13 25 -12q34 3 54 30h5q3 -40 -25 -63q-14 -11 -32 -11q-23 1 -48 22q-15 13 -26 13q-40 -1 -62 -35h-10zM300 564q103 0 173 -89q65 -82 65 -194q0 -124 -77 -208q-68 -75 -161 -75q-103 0 -173 89q-65 82 -65 194
q0 124 77 208q68 75 161 75zM300 527q-86 0 -146 -77q-55 -71 -55 -169q0 -116 73 -190q56 -56 128 -56q86 0 146 77q55 71 55 169q0 116 -73 190q-56 56 -128 56z" />
    <glyph glyph-name="Odieresis" unicode="&#xd6;" 
d="M183 662q0 27 25 36q6 2 13 2q27 0 36 -25q2 -6 2 -13q0 -27 -25 -36q-6 -2 -13 -2q-27 0 -36 25q-2 6 -2 13zM340 662q0 27 25 36q6 2 13 2q27 0 36 -25q2 -6 2 -13q0 -27 -25 -36q-6 -2 -13 -2q-27 0 -36 25q-2 6 -2 13zM300 564q103 0 173 -89q65 -82 65 -194
q0 -124 -77 -208q-68 -75 -161 -75q-103 0 -173 89q-65 82 -65 194q0 124 77 208q68 75 161 75zM300 527q-86 0 -146 -77q-55 -71 -55 -169q0 -116 73 -190q56 -56 128 -56q86 0 146 77q55 71 55 169q0 116 -73 190q-56 56 -128 56z" />
    <glyph glyph-name="multiply" unicode="&#xd7;" 
d="M412 357l-88 -88l88 -88l-24 -24l-88 88l-88 -88l-24 24l88 88l-88 88l24 24l88 -88l88 88z" />
    <glyph glyph-name="Oslash" unicode="&#xd8;" 
d="M300 564q76 0 137 -52l56 82l28 -20l-59 -85q76 -86 76 -208q0 -124 -76 -208q-68 -75 -162 -75q-78 0 -141 55l-56 -81l-28 20l60 86q-73 84 -73 203q0 124 76 208q68 75 162 75zM180 84q54 -49 120 -49q86 0 146 77q55 71 55 169q0 103 -61 176zM300 527
q-86 0 -146 -77q-55 -71 -55 -169q0 -101 58 -172l258 373q-53 45 -115 45z" />
    <glyph glyph-name="Ugrave" unicode="&#xd9;" 
d="M108 799h93l122 -175h-47zM572 528h-71v-349q0 -60 -52 -118q-62 -68 -149 -68q-91 0 -155 78q-46 56 -46 108v349h-71v34h204v-34h-100v-349q0 -39 44 -89q56 -63 123 -63q78 0 133 69q35 44 35 83v349h-99v34h204v-34z" />
    <glyph glyph-name="Uacute" unicode="&#xda;" 
d="M492 799l-169 -175h-46l122 175h93zM572 528h-71v-349q0 -60 -52 -118q-62 -68 -149 -68q-91 0 -155 78q-46 56 -46 108v349h-71v34h204v-34h-100v-349q0 -39 44 -89q56 -63 123 -63q78 0 133 69q35 44 35 83v349h-99v34h204v-34z" />
    <glyph glyph-name="Ucircumflex" unicode="&#xdb;" 
d="M431 638l-14 -14l-115 93l-119 -93l-14 14l121 121h21zM572 528h-71v-349q0 -60 -52 -118q-62 -68 -149 -68q-91 0 -155 78q-46 56 -46 108v349h-71v34h204v-34h-100v-349q0 -39 44 -89q56 -63 123 -63q78 0 133 69q35 44 35 83v349h-99v34h204v-34z" />
    <glyph glyph-name="Udieresis" unicode="&#xdc;" 
d="M183 662q0 27 25 36q6 2 13 2q27 0 36 -25q2 -6 2 -13q0 -27 -25 -36q-6 -2 -13 -2q-27 0 -36 25q-2 6 -2 13zM340 662q0 27 25 36q6 2 13 2q27 0 36 -25q2 -6 2 -13q0 -27 -25 -36q-6 -2 -13 -2q-27 0 -36 25q-2 6 -2 13zM572 528h-71v-349q0 -60 -52 -118
q-62 -68 -149 -68q-91 0 -155 78q-46 56 -46 108v349h-71v34h204v-34h-100v-349q0 -39 44 -89q56 -63 123 -63q78 0 133 69q35 44 35 83v349h-99v34h204v-34z" />
    <glyph glyph-name="Yacute" unicode="&#xdd;" 
d="M492 799l-169 -175h-46l122 175h93zM317 34h58v-34h-152v34h57v239l-186 255h-35v34h141v-34h-60l160 -216l160 216h-60v34h141v-34h-35l-189 -255v-239z" />
    <glyph glyph-name="Thorn" unicode="&#xde;" 
d="M186 235h200q137 0 137 101q0 90 -95 100q-16 2 -42 2h-200v-203zM53 34h96v494h-96v34h230v-36h-96v-54h199q171 0 171 -136q0 -108 -118 -130q-25 -5 -53 -5h-200v-167h96v-34h-229v34z" />
    <glyph glyph-name="germandbls" unicode="&#xdf;" 
d="M318 630q87 0 146 -55q40 -37 40 -76q0 -43 -45 -70q-26 -15 -63 -20q-89 -12 -125 -53q-13 -15 -13 -31q0 -51 74 -76l146 -37q87 -28 93 -89q1 -5 1 -11q0 -65 -79 -98q-45 -19 -100 -19q-62 0 -113 33q-8 6 -11 -5l-16 -35h-34l15 33q9 20 9 39q0 18 -20 50q-2 4 -4 6
h35l13 -22q39 -55 113 -61q7 -1 14 -1q94 0 128 44q13 16 13 36q0 46 -69 69l-145 35q-91 29 -99 94q-1 7 -1 15q0 84 145 115q14 3 31 6q61 11 61 53q0 38 -49 69q-41 25 -92 25q-84 0 -139 -34q-36 -23 -36 -54l1 -504v-1h-110v34h73v358h-73v34h73v79q0 78 106 110
q49 15 106 15z" />
    <glyph glyph-name="agrave" unicode="&#xe0;" 
d="M46 672h93l122 -175h-47zM409 239q-105 27 -186 27q-75 0 -118 -51q-27 -32 -27 -72q0 -64 69 -99q42 -21 92 -21q80 0 133 48q17 15 37 39v129zM446 34h93v-34h-130v54q-62 -62 -147 -67q-11 -1 -23 -1q-89 0 -149 52q-49 43 -49 105q0 83 75 129q48 31 107 31
q84 0 186 -26v17q0 43 -57 76q-51 30 -115 30q-63 0 -160 -43l-14 34l59 23q71 23 115 23q98 0 162 -53q47 -39 47 -90v-260z" />
    <glyph glyph-name="aacute" unicode="&#xe1;" 
d="M429 672l-169 -175h-46l122 175h93zM409 239q-105 27 -186 27q-75 0 -118 -51q-27 -32 -27 -72q0 -64 69 -99q42 -21 92 -21q80 0 133 48q17 15 37 39v129zM446 34h93v-34h-130v54q-62 -62 -147 -67q-11 -1 -23 -1q-89 0 -149 52q-49 43 -49 105q0 83 75 129
q48 31 107 31q84 0 186 -26v17q0 43 -57 76q-51 30 -115 30q-63 0 -160 -43l-14 34l59 23q71 23 115 23q98 0 162 -53q47 -39 47 -90v-260z" />
    <glyph glyph-name="acircumflex" unicode="&#xe2;" 
d="M368 511l-14 -14l-115 93l-119 -93l-14 14l121 121h21zM409 239q-105 27 -186 27q-75 0 -118 -51q-27 -32 -27 -72q0 -64 69 -99q42 -21 92 -21q80 0 133 48q17 15 37 39v129zM446 34h93v-34h-130v54q-62 -62 -147 -67q-11 -1 -23 -1q-89 0 -149 52q-49 43 -49 105
q0 83 75 129q48 31 107 31q84 0 186 -26v17q0 43 -57 76q-51 30 -115 30q-63 0 -160 -43l-14 34l59 23q71 23 115 23q98 0 162 -53q47 -39 47 -90v-260z" />
    <glyph glyph-name="atilde" unicode="&#xe3;" 
d="M135 497q1 43 39 67q18 11 36 11q15 1 44 -22q16 -13 25 -12q34 3 54 30h5q3 -40 -25 -63q-14 -11 -32 -11q-23 1 -48 22q-15 13 -26 13q-40 -1 -62 -35h-10zM409 239q-105 27 -186 27q-75 0 -118 -51q-27 -32 -27 -72q0 -64 69 -99q42 -21 92 -21q80 0 133 48
q17 15 37 39v129zM446 34h93v-34h-130v54q-62 -62 -147 -67q-11 -1 -23 -1q-89 0 -149 52q-49 43 -49 105q0 83 75 129q48 31 107 31q84 0 186 -26v17q0 43 -57 76q-51 30 -115 30q-63 0 -160 -43l-14 34l59 23q71 23 115 23q98 0 162 -53q47 -39 47 -90v-260z" />
    <glyph glyph-name="adieresis" unicode="&#xe4;" 
d="M120 535q0 27 25 36q6 2 13 2q27 0 36 -25q2 -6 2 -13q0 -27 -25 -36q-6 -2 -13 -2q-27 0 -36 25q-2 6 -2 13zM277 535q0 27 25 36q6 2 13 2q27 0 36 -25q2 -6 2 -13q0 -27 -25 -36q-6 -2 -13 -2q-27 0 -36 25q-2 6 -2 13zM409 239q-105 27 -186 27q-75 0 -118 -51
q-27 -32 -27 -72q0 -64 69 -99q42 -21 92 -21q80 0 133 48q17 15 37 39v129zM446 34h93v-34h-130v54q-62 -62 -147 -67q-11 -1 -23 -1q-89 0 -149 52q-49 43 -49 105q0 83 75 129q48 31 107 31q84 0 186 -26v17q0 43 -57 76q-51 30 -115 30q-63 0 -160 -43l-14 34l59 23
q71 23 115 23q98 0 162 -53q47 -39 47 -90v-260z" />
    <glyph glyph-name="aring" unicode="&#xe5;" 
d="M237 679q50 0 77 -43q14 -22 14 -48q0 -50 -43 -77q-22 -14 -48 -14q-50 0 -77 43q-14 22 -14 48q0 50 43 77q22 14 48 14zM237 645q-34 0 -51 -31q-6 -12 -6 -26q0 -34 31 -51q12 -6 26 -6q34 0 51 31q6 12 6 26q0 34 -31 51q-12 6 -26 6zM409 239q-105 27 -186 27
q-75 0 -118 -51q-27 -32 -27 -72q0 -64 69 -99q42 -21 92 -21q80 0 133 48q17 15 37 39v129zM446 34h93v-34h-130v54q-62 -62 -147 -67q-11 -1 -23 -1q-89 0 -149 52q-49 43 -49 105q0 83 75 129q48 31 107 31q84 0 186 -26v17q0 43 -57 76q-51 30 -115 30q-63 0 -160 -43
l-14 34l59 23q71 23 115 23q98 0 162 -53q47 -39 47 -90v-260z" />
    <glyph glyph-name="ae" unicode="&#xe6;" 
d="M542 247q-7 90 -38 119q-25 24 -71 24q-94 0 -110 -119q-1 -11 -2 -24h221zM284 239l-65 21q-28 6 -59 6q-66 0 -89 -70q-8 -25 -8 -53q0 -62 45 -97q28 -23 67 -23q44 0 78 43q9 12 31 44v129zM310 79q-39 -53 -54 -66q-32 -27 -81 -27q-96 0 -136 71q-20 36 -20 86
q0 109 75 146q29 14 66 14q43 0 101 -19q13 -4 23 -7v17q0 106 -111 106q-50 0 -105 -34q-5 -3 -13 -8l-14 34q26 22 88 38q26 7 44 7q109 0 138 -83q37 73 122 73q116 0 141 -123q7 -38 7 -91h-260q0 -143 84 -170q17 -6 38 -6q50 0 85 40q-13 -15 17 20l23 -28
q-52 -63 -113 -68q-6 -1 -12 -1q-95 0 -133 79z" />
    <glyph glyph-name="ccedilla" unicode="&#xe7;" 
d="M322 7l-10 -54q62 13 98 -29q18 -22 18 -49q0 -51 -58 -75q-44 -18 -114 -11l5 34q92 -12 123 28q7 9 7 18q0 52 -60 53q-15 0 -33 -4l-25 -6l12 94zM454 377l5 22l33 -7l-12 -56q9 -13 19 -36l-35 -12q-35 70 -113 94q-28 8 -57 8q-90 0 -147 -66q-41 -49 -41 -111
q0 -81 69 -134q56 -42 128 -42q56 0 122 36q14 7 24 15l20 -33q-50 -41 -134 -53q-17 -2 -32 -2q-111 0 -180 75q-54 59 -54 138q0 96 76 160q64 54 149 54q79 0 146 -52q12 -8 14 2z" />
    <glyph glyph-name="egrave" unicode="&#xe8;" 
d="M102 662h93l122 -175h-47zM478 247q-16 77 -87 118q-45 25 -97 25q-90 0 -146 -66q-29 -34 -38 -77h368zM519 213h-413q0 -81 69 -134q54 -42 124 -42q80 0 154 48q5 4 10 7l24 -28q-62 -52 -157 -62q-16 -2 -31 -2q-101 0 -171 71q-59 61 -59 142q0 96 76 160
q64 54 149 54q103 0 170 -72q55 -60 55 -142z" />
    <glyph glyph-name="eacute" unicode="&#xe9;" 
d="M486 662l-169 -175h-46l122 175h93zM478 247q-16 77 -87 118q-45 25 -97 25q-90 0 -146 -66q-29 -34 -38 -77h368zM519 213h-413q0 -81 69 -134q54 -42 124 -42q80 0 154 48q5 4 10 7l24 -28q-62 -52 -157 -62q-16 -2 -31 -2q-101 0 -171 71q-59 61 -59 142q0 96 76 160
q64 54 149 54q103 0 170 -72q55 -60 55 -142z" />
    <glyph glyph-name="ecircumflex" unicode="&#xea;" 
d="M425 501l-14 -14l-115 93l-119 -93l-14 14l121 121h21zM478 247q-16 77 -87 118q-45 25 -97 25q-90 0 -146 -66q-29 -34 -38 -77h368zM519 213h-413q0 -81 69 -134q54 -42 124 -42q80 0 154 48q5 4 10 7l24 -28q-62 -52 -157 -62q-16 -2 -31 -2q-101 0 -171 71
q-59 61 -59 142q0 96 76 160q64 54 149 54q103 0 170 -72q55 -60 55 -142z" />
    <glyph glyph-name="edieresis" unicode="&#xeb;" 
d="M177 525q0 27 25 36q6 2 13 2q27 0 36 -25q2 -6 2 -13q0 -27 -25 -36q-6 -2 -13 -2q-27 0 -36 25q-2 6 -2 13zM334 525q0 27 25 36q6 2 13 2q27 0 36 -25q2 -6 2 -13q0 -27 -25 -36q-6 -2 -13 -2q-27 0 -36 25q-2 6 -2 13zM478 247q-16 77 -87 118q-45 25 -97 25
q-90 0 -146 -66q-29 -34 -38 -77h368zM519 213h-413q0 -81 69 -134q54 -42 124 -42q80 0 154 48q5 4 10 7l24 -28q-62 -52 -157 -62q-16 -2 -31 -2q-101 0 -171 71q-59 61 -59 142q0 96 76 160q64 54 149 54q103 0 170 -72q55 -60 55 -142z" />
    <glyph glyph-name="igrave" unicode="&#xec;" 
d="M115 662h93l122 -175h-47zM289 392h-186v34h223v-392h173v-34h-396v34h186v358z" />
    <glyph glyph-name="iacute" unicode="&#xed;" 
d="M499 662l-169 -175h-46l122 175h93zM289 392h-186v34h223v-392h173v-34h-396v34h186v358z" />
    <glyph glyph-name="icircumflex" unicode="&#xee;" 
d="M438 501l-14 -14l-115 93l-119 -93l-14 14l121 121h21zM289 392h-186v34h223v-392h173v-34h-396v34h186v358z" />
    <glyph glyph-name="idieresis" unicode="&#xef;" 
d="M190 525q0 27 25 36q6 2 13 2q27 0 36 -25q2 -6 2 -13q0 -27 -25 -36q-6 -2 -13 -2q-27 0 -36 25q-2 6 -2 13zM347 525q0 27 25 36q6 2 13 2q27 0 36 -25q2 -6 2 -13q0 -27 -25 -36q-6 -2 -13 -2q-27 0 -36 25q-2 6 -2 13zM289 392h-186v34h223v-392h173v-34h-396v34h186
v358z" />
    <glyph glyph-name="eth" unicode="&#xf0;" 
d="M294 390q-90 0 -147 -66q-41 -49 -41 -111q0 -83 67 -136q52 -41 121 -41q90 0 147 66q41 49 41 111q0 83 -67 136q-52 41 -121 41zM439 376q-45 89 -119 154l-82 -53l-18 28l72 48q-38 27 -71 37l12 36q44 -15 92 -52l77 51l18 -28l-68 -45q104 -94 147 -221
q20 -60 20 -116v-2q0 -96 -76 -160q-64 -54 -149 -54q-101 0 -169 72q-56 61 -56 142q0 96 76 160q64 54 149 54q81 0 145 -51z" />
    <glyph glyph-name="ntilde" unicode="&#xf1;" 
d="M197 500q1 43 39 67q18 11 36 11q15 1 44 -22q16 -13 25 -12q34 3 54 30h5q3 -40 -25 -63q-14 -11 -32 -11q-23 1 -48 22q-15 13 -26 13q-40 -1 -62 -35h-10zM145 376q33 18 39 21q80 43 137 43q68 0 125 -55q45 -44 45 -89v-262h85v-34h-208v34h87v262q0 35 -45 72
q-43 35 -89 35q-66 0 -171 -68q-3 -1 -5 -3v-298h85v-34h-208v34h87v358h-87v34h124q-3 -14 -1 -50z" />
    <glyph glyph-name="ograve" unicode="&#xf2;" 
d="M108 662h93l122 -175h-47zM300 427q101 0 169 -72q56 -61 56 -142q0 -96 -76 -160q-64 -54 -149 -54q-101 0 -169 72q-56 61 -56 142q0 96 76 160q64 54 149 54zM300 390q-88 0 -145 -65q-43 -49 -43 -112q0 -83 67 -136q52 -41 121 -41q95 0 149 67q39 47 39 110
q0 89 -73 141q-50 36 -115 36z" />
    <glyph glyph-name="oacute" unicode="&#xf3;" 
d="M492 662l-169 -175h-46l122 175h93zM300 427q101 0 169 -72q56 -61 56 -142q0 -96 -76 -160q-64 -54 -149 -54q-101 0 -169 72q-56 61 -56 142q0 96 76 160q64 54 149 54zM300 390q-88 0 -145 -65q-43 -49 -43 -112q0 -83 67 -136q52 -41 121 -41q95 0 149 67
q39 47 39 110q0 89 -73 141q-50 36 -115 36z" />
    <glyph glyph-name="ocircumflex" unicode="&#xf4;" 
d="M431 501l-14 -14l-115 93l-119 -93l-14 14l121 121h21zM300 427q101 0 169 -72q56 -61 56 -142q0 -96 -76 -160q-64 -54 -149 -54q-101 0 -169 72q-56 61 -56 142q0 96 76 160q64 54 149 54zM300 390q-88 0 -145 -65q-43 -49 -43 -112q0 -83 67 -136q52 -41 121 -41
q95 0 149 67q39 47 39 110q0 89 -73 141q-50 36 -115 36z" />
    <glyph glyph-name="otilde" unicode="&#xf5;" 
d="M198 487q1 43 39 67q18 11 36 11q15 1 44 -22q16 -13 25 -12q34 3 54 30h5q3 -40 -25 -63q-14 -11 -32 -11q-23 1 -48 22q-15 13 -26 13q-40 -1 -62 -35h-10zM300 427q101 0 169 -72q56 -61 56 -142q0 -96 -76 -160q-64 -54 -149 -54q-101 0 -169 72q-56 61 -56 142
q0 96 76 160q64 54 149 54zM300 390q-88 0 -145 -65q-43 -49 -43 -112q0 -83 67 -136q52 -41 121 -41q95 0 149 67q39 47 39 110q0 89 -73 141q-50 36 -115 36z" />
    <glyph glyph-name="odieresis" unicode="&#xf6;" 
d="M183 525q0 27 25 36q6 2 13 2q27 0 36 -25q2 -6 2 -13q0 -27 -25 -36q-6 -2 -13 -2q-27 0 -36 25q-2 6 -2 13zM340 525q0 27 25 36q6 2 13 2q27 0 36 -25q2 -6 2 -13q0 -27 -25 -36q-6 -2 -13 -2q-27 0 -36 25q-2 6 -2 13zM300 427q101 0 169 -72q56 -61 56 -142
q0 -96 -76 -160q-64 -54 -149 -54q-101 0 -169 72q-56 61 -56 142q0 96 76 160q64 54 149 54zM300 390q-88 0 -145 -65q-43 -49 -43 -112q0 -83 67 -136q52 -41 121 -41q95 0 149 67q39 47 39 110q0 89 -73 141q-50 36 -115 36z" />
    <glyph glyph-name="divide" unicode="&#xf7;" 
d="M242 370q0 19 19 26q4 2 9 2q19 0 26 -19q2 -4 2 -9q0 -19 -19 -26q-4 -2 -9 -2q-19 0 -26 19q-2 4 -2 9zM242 172q0 19 19 26q4 2 9 2q19 0 26 -19q2 -4 2 -9q0 -19 -19 -26q-4 -2 -9 -2q-19 0 -26 19q-2 4 -2 9zM77 290h385v-37h-385v37z" />
    <glyph glyph-name="oslash" unicode="&#xf8;" 
d="M300 427q70 0 128 -39l59 67l26 -22l-58 -66q70 -63 70 -154q0 -96 -76 -160q-64 -54 -149 -54q-72 0 -132 41l-60 -69l-26 22l60 68q-67 64 -67 152q0 96 76 160q64 54 149 54zM193 68q48 -32 107 -32q90 0 147 66q41 49 41 111q0 74 -57 126zM300 390q-90 0 -147 -66
q-41 -49 -41 -111q0 -72 54 -124l238 271q-47 30 -104 30z" />
    <glyph glyph-name="ugrave" unicode="&#xf9;" 
d="M65 662h93l122 -175h-47zM453 51q-33 -18 -39 -21q-80 -43 -137 -43q-68 0 -125 55q-45 44 -45 89v261h-85v34h122l-1 -294v-1q0 -35 45 -72q43 -35 89 -35q66 0 171 68q3 1 5 3v297h-85v34h122v-391h86v-35h-123v51z" />
    <glyph glyph-name="uacute" unicode="&#xfa;" 
d="M448 662l-169 -175h-46l122 175h93zM453 51q-33 -18 -39 -21q-80 -43 -137 -43q-68 0 -125 55q-45 44 -45 89v261h-85v34h122l-1 -294v-1q0 -35 45 -72q43 -35 89 -35q66 0 171 68q3 1 5 3v297h-85v34h122v-391h86v-35h-123v51z" />
    <glyph glyph-name="ucircumflex" unicode="&#xfb;" 
d="M387 501l-14 -14l-115 93l-119 -93l-14 14l121 121h21zM453 51q-33 -18 -39 -21q-80 -43 -137 -43q-68 0 -125 55q-45 44 -45 89v261h-85v34h122l-1 -294v-1q0 -35 45 -72q43 -35 89 -35q66 0 171 68q3 1 5 3v297h-85v34h122v-391h86v-35h-123v51z" />
    <glyph glyph-name="udieresis" unicode="&#xfc;" 
d="M139 525q0 27 25 36q6 2 13 2q27 0 36 -25q2 -6 2 -13q0 -27 -25 -36q-6 -2 -13 -2q-27 0 -36 25q-2 6 -2 13zM296 525q0 27 25 36q6 2 13 2q27 0 36 -25q2 -6 2 -13q0 -27 -25 -36q-6 -2 -13 -2q-27 0 -36 25q-2 6 -2 13zM453 51q-33 -18 -39 -21q-80 -43 -137 -43
q-68 0 -125 55q-45 44 -45 89v261h-85v34h122l-1 -294v-1q0 -35 45 -72q43 -35 89 -35q66 0 171 68q3 1 5 3v297h-85v34h122v-391h86v-35h-123v51z" />
    <glyph glyph-name="yacute" unicode="&#xfd;" 
d="M492 662l-169 -175h-46l122 175h93zM284 -168h-284v34h213l66 134l-193 392h-76v34h191v-34h-74l173 -350l173 350h-74v34h191v-34h-76l-260 -526h30v-34z" />
    <glyph glyph-name="thorn" unicode="&#xfe;" 
d="M343 36q88 0 145 65q43 49 43 112q0 83 -68 136q-51 41 -119 41q-87 0 -144 -63q-44 -48 -44 -114q0 -89 72 -141q50 -36 115 -36zM119 -146v736l-78 -15l-6 34l121 23v-301q55 78 151 93q18 3 36 3q103 0 170 -74q55 -60 55 -140q0 -97 -76 -161q-63 -53 -148 -53
q-103 0 -171 75q-9 10 -17 21v-241h123v-34h-239v34h79z" />
    <glyph glyph-name="ydieresis" unicode="&#xff;" 
d="M183 525q0 27 25 36q6 2 13 2q27 0 36 -25q2 -6 2 -13q0 -27 -25 -36q-6 -2 -13 -2q-27 0 -36 25q-2 6 -2 13zM340 525q0 27 25 36q6 2 13 2q27 0 36 -25q2 -6 2 -13q0 -27 -25 -36q-6 -2 -13 -2q-27 0 -36 25q-2 6 -2 13zM284 -168h-284v34h213l66 134l-193 392h-76v34
h191v-34h-74l173 -350l173 350h-74v34h191v-34h-76l-260 -526h30v-34z" />
    <glyph glyph-name="Amacron" unicode="&#x100;" 
d="M126 658h347v-34h-347v34zM226 283h152l-76 238zM361 34h96l-69 212h-172l-69 -212h95v-34h-213v34h79l158 494h-144v34h207l167 -528h75v-34h-210v34z" />
    <glyph glyph-name="amacron" unicode="&#x101;" 
d="M64 531h347v-34h-347v34zM409 239q-105 27 -186 27q-75 0 -118 -51q-27 -32 -27 -72q0 -64 69 -99q42 -21 92 -21q80 0 133 48q17 15 37 39v129zM446 34h93v-34h-130v54q-62 -62 -147 -67q-11 -1 -23 -1q-89 0 -149 52q-49 43 -49 105q0 83 75 129q48 31 107 31
q84 0 186 -26v17q0 43 -57 76q-51 30 -115 30q-63 0 -160 -43l-14 34l59 23q71 23 115 23q98 0 162 -53q47 -39 47 -90v-260z" />
    <glyph glyph-name="Abreve" unicode="&#x102;" 
d="M405 720q-8 -63 -59 -87q-21 -9 -44 -9q-60 0 -89 51q-12 20 -15 45h24q13 -44 80 -44q59 0 79 44h24zM226 283h152l-76 238zM361 34h96l-69 212h-172l-69 -212h95v-34h-213v34h79l158 494h-144v34h207l167 -528h75v-34h-210v34z" />
    <glyph glyph-name="abreve" unicode="&#x103;" 
d="M341 593q-8 -63 -59 -87q-21 -9 -44 -9q-60 0 -89 51q-12 20 -15 45h24q13 -44 80 -44q59 0 79 44h24zM409 239q-105 27 -186 27q-75 0 -118 -51q-27 -32 -27 -72q0 -64 69 -99q42 -21 92 -21q80 0 133 48q17 15 37 39v129zM446 34h93v-34h-130v54q-62 -62 -147 -67
q-11 -1 -23 -1q-89 0 -149 52q-49 43 -49 105q0 83 75 129q48 31 107 31q84 0 186 -26v17q0 43 -57 76q-51 30 -115 30q-63 0 -160 -43l-14 34l59 23q71 23 115 23q98 0 162 -53q47 -39 47 -90v-260z" />
    <glyph glyph-name="Aogonek" unicode="&#x104;" 
d="M115 6h42q-38 -6 -48 -49q-4 -15 -2 -31q5 -35 65 -45q53 -9 85 35l20 -25q-35 -56 -100 -55q-62 1 -93 42q-17 21 -17 48q0 54 48 80zM226 283h152l-76 238zM361 34h96l-69 212h-172l-69 -212h95v-34h-213v34h79l158 494h-144v34h207l167 -528h75v-34h-210v34z" />
    <glyph glyph-name="aogonek" unicode="&#x105;" 
d="M412 6h42q-38 -6 -48 -49q-4 -15 -2 -31q5 -35 65 -45q53 -9 85 35l20 -25q-35 -56 -100 -55q-62 1 -93 42q-17 21 -17 48q0 54 48 80zM409 239q-105 27 -186 27q-75 0 -118 -51q-27 -32 -27 -72q0 -64 69 -99q42 -21 92 -21q80 0 133 48q17 15 37 39v129zM446 34h93v-34
h-130v54q-62 -62 -147 -67q-11 -1 -23 -1q-89 0 -149 52q-49 43 -49 105q0 83 75 129q48 31 107 31q84 0 186 -26v17q0 43 -57 76q-51 30 -115 30q-63 0 -160 -43l-14 34l59 23q71 23 115 23q98 0 162 -53q47 -39 47 -90v-260z" />
    <glyph glyph-name="Cacute" unicode="&#x106;" 
d="M517 799l-169 -175h-46l122 175h93zM325 564q83 0 125 -44q10 -7 11 0q3 24 12 42h34q-13 -36 -13 -70q0 -18 19 -66h-35q-17 59 -84 87q-34 14 -69 14q-86 0 -146 -77q-55 -71 -55 -169q0 -116 73 -190q56 -56 128 -56q64 0 117 42q13 11 23 23l31 -21q-45 -56 -125 -75
q-24 -6 -46 -6q-104 0 -174 89q-64 82 -64 194q0 124 76 208q68 75 162 75z" />
    <glyph glyph-name="cacute" unicode="&#x107;" 
d="M486 662l-169 -175h-46l122 175h93zM454 377l5 22l33 -7l-12 -56q9 -13 19 -36l-35 -12q-35 70 -113 94q-28 8 -57 8q-90 0 -147 -66q-41 -49 -41 -111q0 -81 69 -134q56 -42 128 -42q56 0 122 36q14 7 24 15l20 -33q-50 -41 -134 -53q-17 -2 -32 -2q-111 0 -180 75
q-54 59 -54 138q0 96 76 160q64 54 149 54q79 0 146 -52q12 -8 14 2z" />
    <glyph glyph-name="Ccircumflex" unicode="&#x108;" 
d="M456 638l-14 -14l-115 93l-119 -93l-14 14l121 121h21zM325 564q83 0 125 -44q10 -7 11 0q3 24 12 42h34q-13 -36 -13 -70q0 -18 19 -66h-35q-17 59 -84 87q-34 14 -69 14q-86 0 -146 -77q-55 -71 -55 -169q0 -116 73 -190q56 -56 128 -56q64 0 117 42q13 11 23 23
l31 -21q-45 -56 -125 -75q-24 -6 -46 -6q-104 0 -174 89q-64 82 -64 194q0 124 76 208q68 75 162 75z" />
    <glyph glyph-name="ccircumflex" unicode="&#x109;" 
d="M425 501l-14 -14l-115 93l-119 -93l-14 14l121 121h21zM454 377l5 22l33 -7l-12 -56q9 -13 19 -36l-35 -12q-35 70 -113 94q-28 8 -57 8q-90 0 -147 -66q-41 -49 -41 -111q0 -81 69 -134q56 -42 128 -42q56 0 122 36q14 7 24 15l20 -33q-50 -41 -134 -53q-17 -2 -32 -2
q-111 0 -180 75q-54 59 -54 138q0 96 76 160q64 54 149 54q79 0 146 -52q12 -8 14 2z" />
    <glyph glyph-name="Cdotaccent" unicode="&#x10a;" 
d="M362 721v-97h-74v97h74zM325 564q83 0 125 -44q10 -7 11 0q3 24 12 42h34q-13 -36 -13 -70q0 -18 19 -66h-35q-17 59 -84 87q-34 14 -69 14q-86 0 -146 -77q-55 -71 -55 -169q0 -116 73 -190q56 -56 128 -56q64 0 117 42q13 11 23 23l31 -21q-45 -56 -125 -75
q-24 -6 -46 -6q-104 0 -174 89q-64 82 -64 194q0 124 76 208q68 75 162 75z" />
    <glyph glyph-name="cdotaccent" unicode="&#x10b;" 
d="M331 584v-97h-74v97h74zM454 377l5 22l33 -7l-12 -56q9 -13 19 -36l-35 -12q-35 70 -113 94q-28 8 -57 8q-90 0 -147 -66q-41 -49 -41 -111q0 -81 69 -134q56 -42 128 -42q56 0 122 36q14 7 24 15l20 -33q-50 -41 -134 -53q-17 -2 -32 -2q-111 0 -180 75q-54 59 -54 138
q0 96 76 160q64 54 149 54q79 0 146 -52q12 -8 14 2z" />
    <glyph glyph-name="Ccaron" unicode="&#x10c;" 
d="M456 745l-120 -121h-21l-121 121l14 14l119 -93l115 93zM325 564q83 0 125 -44q10 -7 11 0q3 24 12 42h34q-13 -36 -13 -70q0 -18 19 -66h-35q-17 59 -84 87q-34 14 -69 14q-86 0 -146 -77q-55 -71 -55 -169q0 -116 73 -190q56 -56 128 -56q64 0 117 42q13 11 23 23
l31 -21q-45 -56 -125 -75q-24 -6 -46 -6q-104 0 -174 89q-64 82 -64 194q0 124 76 208q68 75 162 75z" />
    <glyph glyph-name="ccaron" unicode="&#x10d;" 
d="M425 608l-120 -121h-21l-121 121l14 14l119 -93l115 93zM454 377l5 22l33 -7l-12 -56q9 -13 19 -36l-35 -12q-35 70 -113 94q-28 8 -57 8q-90 0 -147 -66q-41 -49 -41 -111q0 -81 69 -134q56 -42 128 -42q56 0 122 36q14 7 24 15l20 -33q-50 -41 -134 -53q-17 -2 -32 -2
q-111 0 -180 75q-54 59 -54 138q0 96 76 160q64 54 149 54q79 0 146 -52q12 -8 14 2z" />
    <glyph glyph-name="Dcaron" unicode="&#x10e;" 
d="M431 745l-120 -121h-21l-121 121l14 14l119 -93l115 93zM185 34h162q64 0 116 80q50 79 50 170q0 73 -39 148q-50 96 -127 96h-162v-494zM52 34h96v494h-96v34h295q105 0 163 -121q38 -77 38 -155q0 -92 -43 -175q-57 -111 -158 -111h-295v34z" />
    <glyph glyph-name="dcaron" unicode="&#x10f;" 
d="M449 813l-120 -121h-21l-121 121l14 14l119 -93l115 93zM582 0h-117v95q-55 -78 -151 -93q-18 -3 -36 -3q-103 0 -170 74q-55 60 -55 140q0 97 76 161q63 53 148 53q102 0 169 -73q10 -11 18 -23v258l-160 -30v34l197 39v-598h81v-34zM465 213q0 86 -71 139
q-52 38 -116 38q-90 0 -147 -66q-41 -49 -41 -111q0 -83 68 -136q51 -41 119 -41q86 0 143 62q45 49 45 115z" />
    <glyph glyph-name="Dcroat" unicode="&#x110;" 
d="M185 34h162q64 0 116 80q50 79 50 170q0 73 -39 148q-50 96 -127 96h-162v-212h69v-34h-69v-248zM52 34h96v248h-66v34h66v212h-96v34h295q106 0 164 -119q37 -77 37 -157q0 -92 -43 -175q-57 -111 -158 -111h-295v34z" />
    <glyph glyph-name="dcroat" unicode="&#x111;" 
d="M278 390q-90 0 -147 -66q-41 -49 -41 -111q0 -83 68 -136q51 -41 119 -41q86 0 143 62q44 49 44 115q0 86 -71 139q-51 38 -115 38zM464 332v129h-97v34h97v94l-160 -30v34l197 39v-137h83v-34h-83v-427h80v-34h-117v95q-56 -80 -153 -94q-16 -2 -33 -2q-103 0 -170 74
q-55 60 -55 140q0 97 76 161q63 53 148 53q106 0 173 -77z" />
    <glyph glyph-name="Emacron" unicode="&#x112;" 
d="M121 658h347v-34h-347v34zM435 402v-143h-34v62h-194v-287h273l12 87h34l-12 -121h-440v34h97v494h-97v34h440l9 -115h-34l-9 81h-273v-173h194v47h34z" />
    <glyph glyph-name="emacron" unicode="&#x113;" 
d="M121 521h347v-34h-347v34zM478 247q-16 77 -87 118q-45 25 -97 25q-90 0 -146 -66q-29 -34 -38 -77h368zM519 213h-413q0 -81 69 -134q54 -42 124 -42q80 0 154 48q5 4 10 7l24 -28q-62 -52 -157 -62q-16 -2 -31 -2q-101 0 -171 71q-59 61 -59 142q0 96 76 160
q64 54 149 54q103 0 170 -72q55 -60 55 -142z" />
    <glyph glyph-name="Ebreve" unicode="&#x114;" 
d="M398 720q-8 -63 -59 -87q-21 -9 -44 -9q-60 0 -89 51q-12 20 -15 45h24q13 -44 80 -44q59 0 79 44h24zM435 402v-143h-34v62h-194v-287h273l12 87h34l-12 -121h-440v34h97v494h-97v34h440l9 -115h-34l-9 81h-273v-173h194v47h34z" />
    <glyph glyph-name="ebreve" unicode="&#x115;" 
d="M397 583q-8 -63 -59 -87q-21 -9 -44 -9q-60 0 -89 51q-12 20 -15 45h24q13 -44 80 -44q59 0 79 44h24zM478 247q-16 77 -87 118q-45 25 -97 25q-90 0 -146 -66q-29 -34 -38 -77h368zM519 213h-413q0 -81 69 -134q54 -42 124 -42q80 0 154 48q5 4 10 7l24 -28
q-62 -52 -157 -62q-16 -2 -31 -2q-101 0 -171 71q-59 61 -59 142q0 96 76 160q64 54 149 54q103 0 170 -72q55 -60 55 -142z" />
    <glyph glyph-name="Edotaccent" unicode="&#x116;" 
d="M331 721v-97h-74v97h74zM435 402v-143h-34v62h-194v-287h273l12 87h34l-12 -121h-440v34h97v494h-97v34h440l9 -115h-34l-9 81h-273v-173h194v47h34z" />
    <glyph glyph-name="edotaccent" unicode="&#x117;" 
d="M331 584v-97h-74v97h74zM478 247q-16 77 -87 118q-45 25 -97 25q-90 0 -146 -66q-29 -34 -38 -77h368zM519 213h-413q0 -81 69 -134q54 -42 124 -42q80 0 154 48q5 4 10 7l24 -28q-62 -52 -157 -62q-16 -2 -31 -2q-101 0 -171 71q-59 61 -59 142q0 96 76 160
q64 54 149 54q103 0 170 -72q55 -60 55 -142z" />
    <glyph glyph-name="Eogonek" unicode="&#x118;" 
d="M168 6h42q-38 -6 -48 -49q-4 -15 -2 -31q5 -35 65 -45q53 -9 85 35l20 -25q-35 -56 -100 -55q-62 1 -93 42q-17 21 -17 48q0 54 48 80zM435 402v-143h-34v62h-194v-287h273l12 87h34l-12 -121h-440v34h97v494h-97v34h440l9 -115h-34l-9 81h-273v-173h194v47h34z" />
    <glyph glyph-name="eogonek" unicode="&#x119;" 
d="M278 6h42q-38 -6 -48 -49q-4 -15 -2 -31q5 -35 65 -45q53 -9 85 35l20 -25q-35 -56 -100 -55q-62 1 -93 42q-17 21 -17 48q0 54 48 80zM478 247q-16 77 -87 118q-45 25 -97 25q-90 0 -146 -66q-29 -34 -38 -77h368zM519 213h-413q0 -81 69 -134q54 -42 124 -42
q80 0 154 48q5 4 10 7l24 -28q-62 -52 -157 -62q-16 -2 -31 -2q-101 0 -171 71q-59 61 -59 142q0 96 76 160q64 54 149 54q103 0 170 -72q55 -60 55 -142z" />
    <glyph glyph-name="Ecaron" unicode="&#x11a;" 
d="M425 745l-120 -121h-21l-121 121l14 14l119 -93l115 93zM435 402v-143h-34v62h-194v-287h273l12 87h34l-12 -121h-440v34h97v494h-97v34h440l9 -115h-34l-9 81h-273v-173h194v47h34z" />
    <glyph glyph-name="ecaron" unicode="&#x11b;" 
d="M425 608l-120 -121h-21l-121 121l14 14l119 -93l115 93zM478 247q-16 77 -87 118q-45 25 -97 25q-90 0 -146 -66q-29 -34 -38 -77h368zM519 213h-413q0 -81 69 -134q54 -42 124 -42q80 0 154 48q5 4 10 7l24 -28q-62 -52 -157 -62q-16 -2 -31 -2q-101 0 -171 71
q-59 61 -59 142q0 96 76 160q64 54 149 54q103 0 170 -72q55 -60 55 -142z" />
    <glyph glyph-name="Gcircumflex" unicode="&#x11c;" 
d="M449 638l-14 -14l-115 93l-119 -93l-14 14l121 121h21zM318 564q81 0 123 -39q3 -2 5 -5q10 -8 12 0q3 28 12 42h34q-13 -36 -13 -70q0 -18 19 -66h-35q-17 58 -87 87q-35 14 -70 14q-86 0 -146 -77q-55 -71 -55 -169q0 -121 70 -193q52 -53 120 -53q94 0 145 88
q30 54 33 125h-110v34h145v-34q-5 -131 -81 -200q-54 -50 -132 -50q-106 0 -172 95q-55 79 -55 188q0 124 77 208q68 75 161 75z" />
    <glyph glyph-name="gcircumflex" unicode="&#x11d;" 
d="M399 501l-14 -14l-115 93l-119 -93l-14 14l121 121h21zM269 390q-90 0 -147 -66q-41 -49 -41 -111q0 -83 68 -136q51 -41 119 -41q90 0 147 66q41 49 41 111q0 83 -68 136q-51 41 -119 41zM575 426v-34h-82v-423q0 -63 -75 -116q-72 -50 -152 -50q-94 0 -193 58l16 33
q46 -32 126 -48q28 -6 50 -6q68 0 135 48q56 41 56 81v127q-52 -75 -143 -93q-22 -4 -44 -4q-103 0 -170 74q-55 60 -55 140q0 97 76 161q63 53 148 53q102 0 170 -74q10 -11 18 -23v96h119z" />
    <glyph glyph-name="Gbreve" unicode="&#x11e;" 
d="M422 720q-8 -63 -59 -87q-21 -9 -44 -9q-60 0 -89 51q-12 20 -15 45h24q13 -44 80 -44q59 0 79 44h24zM318 564q81 0 123 -39q3 -2 5 -5q10 -8 12 0q3 28 12 42h34q-13 -36 -13 -70q0 -18 19 -66h-35q-17 58 -87 87q-35 14 -70 14q-86 0 -146 -77q-55 -71 -55 -169
q0 -121 70 -193q52 -53 120 -53q94 0 145 88q30 54 33 125h-110v34h145v-34q-5 -131 -81 -200q-54 -50 -132 -50q-106 0 -172 95q-55 79 -55 188q0 124 77 208q68 75 161 75z" />
    <glyph glyph-name="gbreve" unicode="&#x11f;" 
d="M372 583q-8 -63 -59 -87q-21 -9 -44 -9q-60 0 -89 51q-12 20 -15 45h24q13 -44 80 -44q59 0 79 44h24zM269 390q-90 0 -147 -66q-41 -49 -41 -111q0 -83 68 -136q51 -41 119 -41q90 0 147 66q41 49 41 111q0 83 -68 136q-51 41 -119 41zM575 426v-34h-82v-423
q0 -63 -75 -116q-72 -50 -152 -50q-94 0 -193 58l16 33q46 -32 126 -48q28 -6 50 -6q68 0 135 48q56 41 56 81v127q-52 -75 -143 -93q-22 -4 -44 -4q-103 0 -170 74q-55 60 -55 140q0 97 76 161q63 53 148 53q102 0 170 -74q10 -11 18 -23v96h119z" />
    <glyph glyph-name="Gdotaccent" unicode="&#x120;" 
d="M355 721v-97h-74v97h74zM318 564q81 0 123 -39q3 -2 5 -5q10 -8 12 0q3 28 12 42h34q-13 -36 -13 -70q0 -18 19 -66h-35q-17 58 -87 87q-35 14 -70 14q-86 0 -146 -77q-55 -71 -55 -169q0 -121 70 -193q52 -53 120 -53q94 0 145 88q30 54 33 125h-110v34h145v-34
q-5 -131 -81 -200q-54 -50 -132 -50q-106 0 -172 95q-55 79 -55 188q0 124 77 208q68 75 161 75z" />
    <glyph glyph-name="gdotaccent" unicode="&#x121;" 
d="M305 584v-97h-74v97h74zM269 390q-90 0 -147 -66q-41 -49 -41 -111q0 -83 68 -136q51 -41 119 -41q90 0 147 66q41 49 41 111q0 83 -68 136q-51 41 -119 41zM575 426v-34h-82v-423q0 -63 -75 -116q-72 -50 -152 -50q-94 0 -193 58l16 33q46 -32 126 -48q28 -6 50 -6
q68 0 135 48q56 41 56 81v127q-52 -75 -143 -93q-22 -4 -44 -4q-103 0 -170 74q-55 60 -55 140q0 97 76 161q63 53 148 53q102 0 170 -74q10 -11 18 -23v96h119z" />
    <glyph glyph-name="Gcommaaccent" unicode="&#x122;" 
d="M325 5l-10 -54q62 13 98 -29q18 -22 18 -49q0 -51 -58 -75q-44 -18 -114 -11l5 34q92 -12 123 28q7 9 7 18q0 52 -60 53q-15 0 -33 -4l-25 -6l12 94zM318 564q81 0 123 -39q3 -2 5 -5q10 -8 12 0q3 28 12 42h34q-13 -36 -13 -70q0 -18 19 -66h-35q-17 58 -87 87
q-35 14 -70 14q-86 0 -146 -77q-55 -71 -55 -169q0 -121 70 -193q52 -53 120 -53q94 0 145 88q30 54 33 125h-110v34h145v-34q-5 -131 -81 -200q-54 -50 -132 -50q-106 0 -172 95q-55 79 -55 188q0 124 77 208q68 75 161 75z" />
    <glyph glyph-name="gcommaaccent" unicode="&#x123;" 
d="M176 487l138 204h46l-91 -204h-93zM269 390q-90 0 -147 -66q-41 -49 -41 -111q0 -83 68 -136q51 -41 119 -41q90 0 147 66q41 49 41 111q0 83 -68 136q-51 41 -119 41zM575 426v-34h-82v-423q0 -63 -75 -116q-72 -50 -152 -50q-94 0 -193 58l16 33q46 -32 126 -48
q28 -6 50 -6q68 0 135 48q56 41 56 81v127q-52 -75 -143 -93q-22 -4 -44 -4q-103 0 -170 74q-55 60 -55 140q0 97 76 161q63 53 148 53q102 0 170 -74q10 -11 18 -23v96h119z" />
    <glyph glyph-name="Hcircumflex" unicode="&#x124;" 
d="M431 638l-14 -14l-115 93l-119 -93l-14 14l121 121h21zM164 367h273v161h-98v34h230v-34h-95v-494h94v-34h-230v34h99v296h-273v-296h97v-34h-230v34h96v494h-96v34h230v-34h-97v-161z" />
    <glyph glyph-name="hcircumflex" unicode="&#x125;" 
d="M430 706l-14 -14l-115 93l-119 -93l-14 14l121 121h21zM146 376q77 42 102 51q38 13 73 13q74 0 129 -57q41 -42 41 -87v-261h85v-35h-208v35h87v261q0 35 -45 72q-43 35 -89 35q-66 0 -171 -68q-3 -1 -5 -3v-297h85v-35h-208v35h87v555l-87 -22v34l124 30v-256z" />
    <glyph glyph-name="Hbar" unicode="&#x126;" 
d="M437 441v87h-98v34h230v-34h-95v-87h77v-34h-77v-373h94v-34h-230v34h99v249h-273v-249h97v-34h-230v34h96v372h-65v34h65v88h-96v34h230v-34h-97v-87h273zM164 320h273v87h-273v-87z" />
    <glyph glyph-name="hbar" unicode="&#x127;" 
d="M146 376q76 43 108 53q34 11 67 11q74 0 129 -57q41 -42 41 -87v-262h85v-34h-208v34h87v262q0 35 -45 72q-43 35 -89 35q-66 0 -171 -68q-3 -1 -5 -3v-298h85v-34h-208v34h87v449h-80v34h80v73l-87 -23v34l123 31v-115h82v-34h-81v-107z" />
    <glyph glyph-name="Itilde" unicode="&#x128;" 
d="M199 624q1 43 39 67q18 11 36 11q15 1 44 -22q16 -13 25 -12q34 3 54 30h5q3 -40 -25 -63q-14 -11 -32 -11q-23 1 -48 22q-15 13 -26 13q-40 -1 -62 -35h-10zM285 528h-195v34h421v-34h-190v-494h189v-34h-421v34h196v494z" />
    <glyph glyph-name="itilde" unicode="&#x129;" 
d="M205 487q1 43 39 67q18 11 36 11q15 1 44 -22q16 -13 25 -12q34 3 54 30h5q3 -40 -25 -63q-14 -11 -32 -11q-23 1 -48 22q-15 13 -26 13q-40 -1 -62 -35h-10zM289 392h-186v34h223v-392h173v-34h-396v34h186v358z" />
    <glyph glyph-name="Imacron" unicode="&#x12a;" 
d="M127 658h347v-34h-347v34zM285 528h-195v34h421v-34h-190v-494h189v-34h-421v34h196v494z" />
    <glyph glyph-name="imacron" unicode="&#x12b;" 
d="M134 521h347v-34h-347v34zM289 392h-186v34h223v-392h173v-34h-396v34h186v358z" />
    <glyph glyph-name="Ibreve" unicode="&#x12c;" 
d="M404 720q-8 -63 -59 -87q-21 -9 -44 -9q-60 0 -89 51q-12 20 -15 45h24q13 -44 80 -44q59 0 79 44h24zM285 528h-195v34h421v-34h-190v-494h189v-34h-421v34h196v494z" />
    <glyph glyph-name="ibreve" unicode="&#x12d;" 
d="M411 583q-8 -63 -59 -87q-21 -9 -44 -9q-60 0 -89 51q-12 20 -15 45h24q13 -44 80 -44q59 0 79 44h24zM289 392h-186v34h223v-392h173v-34h-396v34h186v358z" />
    <glyph glyph-name="Iogonek" unicode="&#x12e;" 
d="M278 6h42q-38 -6 -48 -49q-4 -15 -2 -31q5 -35 65 -45q53 -9 85 35l20 -25q-35 -56 -100 -55q-62 1 -93 42q-17 21 -17 48q0 54 48 80zM285 528h-195v34h421v-34h-190v-494h189v-34h-421v34h196v494z" />
    <glyph glyph-name="iogonek" unicode="&#x12f;" 
d="M280 6h42q-38 -6 -48 -49q-4 -15 -2 -31q5 -35 65 -45q53 -9 85 35l20 -25q-35 -56 -100 -55q-62 1 -93 42q-17 21 -17 48q0 54 48 80zM344 584v-97h-74v97h74zM289 392h-186v34h223v-392h173v-34h-396v34h186v358z" />
    <glyph glyph-name="Idotaccent" unicode="&#x130;" 
d="M338 721v-97h-74v97h74zM285 528h-195v34h421v-34h-190v-494h189v-34h-421v34h196v494z" />
    <glyph glyph-name="dotlessi" unicode="&#x131;" 
d="M289 392h-186v34h223v-392h173v-34h-396v34h186v358z" />
    <glyph glyph-name="IJ" unicode="&#x132;" 
d="M132 528h-96v34h230v-34h-97v-494h96v-34h-230v34h97v494zM316 227q0 -87 6 -113q17 -78 92 -78q70 0 92 67q7 20 7 40v385h-174v34h307v-34h-96v-385q0 -63 -41 -106q-36 -38 -95 -38q-82 0 -119 76q-16 34 -16 68v84h37z" />
    <glyph glyph-name="ij" unicode="&#x133;" 
d="M246 392h-186v34h223v-392h173v-34h-396v34h186v358zM283 562v-97h-74v97h74zM544 562v-97h-74v97h74zM294 -134q33 -23 98 -26h11q49 0 83 56q22 37 22 73v423h-131v34h168v-457q0 -62 -43 -115q-42 -51 -99 -51q-80 0 -125 30z" />
    <glyph glyph-name="Jcircumflex" unicode="&#x134;" 
d="M461 638l-14 -14l-115 93l-119 -93l-14 14l121 121h21zM153 227q0 -87 6 -113q17 -78 93 -78q69 0 91 67q7 20 7 40v385h-173v34h307v-34h-97v-385q0 -63 -41 -106q-36 -38 -94 -38q-83 0 -120 76q-16 34 -16 68v84h37z" />
    <glyph glyph-name="jcircumflex" unicode="&#x135;" 
d="M439 500l-14 -14l-115 93l-119 -93l-14 14l121 121h21zM76 -134q33 -23 98 -26h11q49 0 83 56q22 37 22 73v423h-131v34h168v-457q0 -62 -43 -115q-42 -51 -99 -51q-81 0 -125 30z" />
    <glyph glyph-name="Kcommaaccent" unicode="&#x136;" 
d="M151 7l-10 -54q62 13 98 -29q18 -22 18 -49q0 -51 -58 -75q-44 -18 -114 -11l5 34q92 -12 123 28q7 9 7 18q0 52 -60 53q-15 0 -33 -4l-25 -6l12 94zM314 562h209v-34h-121q-90 -136 -199 -239q94 -26 166 -125q35 -46 81 -130h118v-34h-139q-83 150 -143 203
q-50 44 -116 56q-12 -10 -20 -16v-209h91v-34h-209v34h82v494h-82v34h209v-34h-91v-237q107 93 206 237h-42v34z" />
    <glyph glyph-name="kcommaaccent" unicode="&#x137;" 
d="M192 7l-10 -54q62 13 98 -29q18 -22 18 -49q0 -51 -58 -75q-44 -18 -114 -11l5 34q92 -12 123 28q7 9 7 18q0 52 -60 53q-15 0 -33 -4l-25 -6l12 94zM350 34h35l-161 198l-32 -27v-205h-137v34h100v551l-100 -36v34l137 49v-378l165 138h-33v34h170v-34h-80l-162 -136
l181 -222h94v-34h-177v34z" />
    <glyph glyph-name="kgreenlandic" unicode="&#x138;" 
d="M300 426h209v-34h-121q-40 -60 -94 -103q-43 -34 -62 -52q98 -42 185 -196q2 -3 4 -7h118v-34h-139q-55 100 -137 167q-35 29 -64 40q-12 -10 -20 -16v-157h91v-34h-209v34h82v358h-82v34h166v-34h-48v-153q8 7 69 52q51 38 94 101h-42v34z" />
    <glyph glyph-name="Lacute" unicode="&#x139;" 
d="M502 799l-169 -175h-46l122 175h93zM183 528h-84v34h208v-34h-87v-494h247l21 189h34l-20 -223h-404v34h85v494z" />
    <glyph glyph-name="lacute" unicode="&#x13a;" 
d="M465 867l-169 -175h-46l122 175h93zM255 589l-163 -40v34l200 49v-598h216v-34h-416v34h163v555z" />
    <glyph glyph-name="Lcommaaccent" unicode="&#x13b;" 
d="M319 7l-10 -54q62 13 98 -29q18 -22 18 -49q0 -51 -58 -75q-44 -18 -114 -11l5 34q92 -12 123 28q7 9 7 18q0 52 -60 53q-15 0 -33 -4l-25 -6l12 94zM183 528h-84v34h208v-34h-87v-494h247l21 189h34l-20 -223h-404v34h85v494z" />
    <glyph glyph-name="lcommaaccent" unicode="&#x13c;" 
d="M319 7l-10 -54q62 13 98 -29q18 -22 18 -49q0 -51 -58 -75q-44 -18 -114 -11l5 34q92 -12 123 28q7 9 7 18q0 52 -60 53q-15 0 -33 -4l-25 -6l12 94zM255 589l-163 -40v34l200 49v-598h216v-34h-416v34h163v555z" />
    <glyph glyph-name="Lcaron" unicode="&#x13d;" 
d="M441 745l-120 -121h-21l-121 121l14 14l119 -93l115 93zM183 528h-84v34h208v-34h-87v-494h247l21 189h34l-20 -223h-404v34h85v494z" />
    <glyph glyph-name="lcaron" unicode="&#x13e;" 
d="M404 813l-120 -121h-21l-121 121l14 14l119 -93l115 93zM255 589l-163 -40v34l200 49v-598h216v-34h-416v34h163v555z" />
    <glyph glyph-name="Ldot" unicode="&#x13f;" 
d="M239 282q0 37 38 55q15 7 33 7q43 0 63 -34q8 -13 8 -28q0 -37 -38 -55q-15 -7 -33 -7q-43 0 -63 34q-8 13 -8 28zM183 528h-84v34h208v-34h-87v-494h247l21 189h34l-20 -223h-404v34h85v494z" />
    <glyph glyph-name="ldot" unicode="&#x140;" horiz-adv-x="1200" 
d="M832 248q0 37 38 55q15 7 33 7q43 0 63 -34q8 -13 8 -28q0 -37 -38 -55q-15 -7 -33 -7q-43 0 -63 34q-8 13 -8 28zM255 589l-163 -40v34l200 49v-598h216v-34h-416v34h163v555z" />
    <glyph glyph-name="Lslash" unicode="&#x141;" 
d="M183 528h-84v34h208v-34h-87v-191l141 79v-39l-141 -79v-264h247l27 195h34l-26 -229h-404v34h85v243l-76 -43v39l76 43v212z" />
    <glyph glyph-name="lslash" unicode="&#x142;" 
d="M194 283l61 34v272l-163 -40v34l200 49v-294l156 88v-39l-156 -87v-266h216v-34h-416v34h163v245l-61 -35v39z" />
    <glyph glyph-name="Nacute" unicode="&#x143;" 
d="M492 799l-169 -175h-46l122 175h93zM508 54v474h-105v34h188v-34h-46v-535h-37l-414 535h-2v-494h104v-34h-187v34h47v494h-47v34h107q0 -1 392 -508z" />
    <glyph glyph-name="nacute" unicode="&#x144;" 
d="M491 675l-169 -175h-46l122 175h93zM145 376q33 18 39 21q80 43 137 43q68 0 125 -55q45 -44 45 -89v-262h85v-34h-208v34h87v262q0 35 -45 72q-43 35 -89 35q-66 0 -171 -68q-3 -1 -5 -3v-298h85v-34h-208v34h87v358h-87v34h124q-3 -14 -1 -50z" />
    <glyph glyph-name="Ncommaaccent" unicode="&#x145;" 
d="M93 0l-10 -54q62 13 98 -29q18 -22 18 -49q0 -51 -58 -75q-44 -18 -114 -11l5 34q92 -12 123 28q7 9 7 18q0 52 -60 53q-15 0 -33 -4l-25 -6l12 94zM508 54v474h-105v34h188v-34h-46v-535h-37l-414 535h-2v-494h104v-34h-187v34h47v494h-47v34h107q0 -1 392 -508z" />
    <glyph glyph-name="ncommaaccent" unicode="&#x146;" 
d="M146 7l-10 -54q62 13 98 -29q18 -22 18 -49q0 -51 -58 -75q-44 -18 -114 -11l5 34q92 -12 123 28q7 9 7 18q0 52 -60 53q-15 0 -33 -4l-25 -6l12 94zM145 376q33 18 39 21q80 43 137 43q68 0 125 -55q45 -44 45 -89v-262h85v-34h-208v34h87v262q0 35 -45 72
q-43 35 -89 35q-66 0 -171 -68q-3 -1 -5 -3v-298h85v-34h-208v34h87v358h-87v34h124q-3 -14 -1 -50z" />
    <glyph glyph-name="Ncaron" unicode="&#x147;" 
d="M431 745l-120 -121h-21l-121 121l14 14l119 -93l115 93zM508 54v474h-105v34h188v-34h-46v-535h-37l-414 535h-2v-494h104v-34h-187v34h47v494h-47v34h107q0 -1 392 -508z" />
    <glyph glyph-name="ncaron" unicode="&#x148;" 
d="M430 621l-120 -121h-21l-121 121l14 14l119 -93l115 93zM145 376q33 18 39 21q80 43 137 43q68 0 125 -55q45 -44 45 -89v-262h85v-34h-208v34h87v262q0 35 -45 72q-43 35 -89 35q-66 0 -171 -68q-3 -1 -5 -3v-298h85v-34h-208v34h87v358h-87v34h124q-3 -14 -1 -50z" />
    <glyph glyph-name="napostrophe" unicode="&#x149;" 
d="M404 707l-117 -173h-40l78 173h79zM145 376q33 18 39 21q80 43 137 43q68 0 125 -55q45 -44 45 -89v-262h85v-34h-208v34h87v262q0 35 -45 72q-43 35 -89 35q-66 0 -171 -68q-3 -1 -5 -3v-298h85v-34h-208v34h87v358h-87v34h124q-3 -14 -1 -50z" />
    <glyph glyph-name="Eng" unicode="&#x14a;" 
d="M311 0q0 -67 7 -91q20 -63 91 -63q70 0 92 67q7 20 7 40v40l-414 535h-2v-494h104v-34h-187v34h47v494h-47v34h106l393 -508v474h-105v34h188v-34h-46v-575q0 -63 -41 -106q-36 -38 -94 -38q-83 0 -120 76q-16 34 -16 68v47h37z" />
    <glyph glyph-name="eng" unicode="&#x14b;" 
d="M241 -134q33 -23 98 -26h11q50 0 84 56q21 35 21 73v327q0 35 -45 72q-43 35 -89 35q-66 0 -171 -68q-3 -1 -5 -3v-298h85v-34h-208v34h87v358h-87v34h123v-50q33 18 39 21q80 43 137 43q68 0 125 -54q46 -44 46 -90v-327q0 -70 -47 -122q-40 -44 -94 -44q-82 0 -126 30z
" />
    <glyph glyph-name="Omacron" unicode="&#x14c;" 
d="M127 658h347v-34h-347v34zM300 564q103 0 173 -89q65 -82 65 -194q0 -124 -77 -208q-68 -75 -161 -75q-103 0 -173 89q-65 82 -65 194q0 124 77 208q68 75 161 75zM300 527q-86 0 -146 -77q-55 -71 -55 -169q0 -116 73 -190q56 -56 128 -56q86 0 146 77q55 71 55 169
q0 116 -73 190q-56 56 -128 56z" />
    <glyph glyph-name="omacron" unicode="&#x14d;" 
d="M127 521h347v-34h-347v34zM300 427q101 0 169 -72q56 -61 56 -142q0 -96 -76 -160q-64 -54 -149 -54q-101 0 -169 72q-56 61 -56 142q0 96 76 160q64 54 149 54zM300 390q-88 0 -145 -65q-43 -49 -43 -112q0 -83 67 -136q52 -41 121 -41q95 0 149 67q39 47 39 110
q0 89 -73 141q-50 36 -115 36z" />
    <glyph glyph-name="Obreve" unicode="&#x14e;" 
d="M404 720q-8 -63 -59 -87q-21 -9 -44 -9q-60 0 -89 51q-12 20 -15 45h24q13 -44 80 -44q59 0 79 44h24zM300 564q103 0 173 -89q65 -82 65 -194q0 -124 -77 -208q-68 -75 -161 -75q-103 0 -173 89q-65 82 -65 194q0 124 77 208q68 75 161 75zM300 527q-86 0 -146 -77
q-55 -71 -55 -169q0 -116 73 -190q56 -56 128 -56q86 0 146 77q55 71 55 169q0 116 -73 190q-56 56 -128 56z" />
    <glyph glyph-name="obreve" unicode="&#x14f;" 
d="M404 583q-8 -63 -59 -87q-21 -9 -44 -9q-60 0 -89 51q-12 20 -15 45h24q13 -44 80 -44q59 0 79 44h24zM300 427q101 0 169 -72q56 -61 56 -142q0 -96 -76 -160q-64 -54 -149 -54q-101 0 -169 72q-56 61 -56 142q0 96 76 160q64 54 149 54zM300 390q-88 0 -145 -65
q-43 -49 -43 -112q0 -83 67 -136q52 -41 121 -41q95 0 149 67q39 47 39 110q0 89 -73 141q-50 36 -115 36z" />
    <glyph glyph-name="Ohungarumlaut" unicode="&#x150;" 
d="M401 799l-169 -175h-46l122 175h93zM583 799l-169 -175h-46l122 175h93zM300 564q103 0 173 -89q65 -82 65 -194q0 -124 -77 -208q-68 -75 -161 -75q-103 0 -173 89q-65 82 -65 194q0 124 77 208q68 75 161 75zM300 527q-86 0 -146 -77q-55 -71 -55 -169q0 -116 73 -190
q56 -56 128 -56q86 0 146 77q55 71 55 169q0 116 -73 190q-56 56 -128 56z" />
    <glyph glyph-name="ohungarumlaut" unicode="&#x151;" 
d="M401 662l-169 -175h-46l122 175h93zM583 662l-169 -175h-46l122 175h93zM300 427q101 0 169 -72q56 -61 56 -142q0 -96 -76 -160q-64 -54 -149 -54q-101 0 -169 72q-56 61 -56 142q0 96 76 160q64 54 149 54zM300 390q-88 0 -145 -65q-43 -49 -43 -112q0 -83 67 -136
q52 -41 121 -41q95 0 149 67q39 47 39 110q0 89 -73 141q-50 36 -115 36z" />
    <glyph glyph-name="OE" unicode="&#x152;" 
d="M270 37v488q-87 0 -146 -76q-55 -70 -55 -168q0 -116 73 -188q56 -56 128 -56zM481 402v-143h-34v62h-140v-287h219l12 87h34l-12 -121h-290q-103 0 -173 88q-65 81 -65 193q0 123 77 207q68 74 161 74h290l9 -115h-34l-9 81h-219v-173h140v47h34z" />
    <glyph glyph-name="oe" unicode="&#x153;" 
d="M551 247q-6 94 -41 123q-25 20 -67 20q-94 0 -110 -119q-1 -11 -2 -24h220zM173 428q74 0 120 -76q8 -14 15 -30q32 105 135 105q116 0 141 -123q7 -38 7 -91h-260q0 -143 84 -170q17 -6 38 -6q50 0 85 40q-13 -15 17 20l23 -28q-52 -63 -113 -68q-6 -1 -12 -1
q-111 0 -144 106q-33 -79 -97 -101q-19 -7 -39 -7q-75 0 -122 78q-36 60 -36 137q0 102 58 167q43 48 100 48zM173 391q-55 0 -92 -61q-30 -50 -30 -117q0 -96 55 -149q31 -29 67 -29q49 0 88 64q33 54 33 114q0 79 -46 136q-34 42 -75 42z" />
    <glyph glyph-name="Racute" unicode="&#x154;" 
d="M376 799l-169 -175h-46l122 175h93zM143 281h216q59 0 100 37q37 33 37 86q0 92 -87 117q-24 7 -50 7h-216v-247zM332 247q64 -58 102 -148q10 -22 26 -65h70v-34h-94q-42 110 -65 148q-33 53 -92 99h-137v-213h130v-34h-263v34h97v494h-97v34h350q83 0 132 -51
q39 -41 39 -107q0 -96 -91 -138q-40 -19 -80 -19h-27z" />
    <glyph glyph-name="racute" unicode="&#x155;" 
d="M466 675l-169 -175h-46l122 175h93zM462 363q-13 15 -60 32q-24 8 -40 8q-64 0 -164 -59q-10 -6 -19 -12v-297h85v-35h-209v35h87v357h-87v34h124v-50q36 19 39 21q75 42 143 43q64 0 119 -42q7 -5 13 -11z" />
    <glyph glyph-name="Rcommaaccent" unicode="&#x156;" 
d="M143 7l-10 -54q62 13 98 -29q18 -22 18 -49q0 -51 -58 -75q-44 -18 -114 -11l5 34q92 -12 123 28q7 9 7 18q0 52 -60 53q-15 0 -33 -4l-25 -6l12 94zM143 281h216q59 0 100 37q37 33 37 86q0 92 -87 117q-24 7 -50 7h-216v-247zM332 247q64 -58 102 -148q10 -22 26 -65
h70v-34h-94q-42 110 -65 148q-33 53 -92 99h-137v-213h130v-34h-263v34h97v494h-97v34h350q83 0 132 -51q39 -41 39 -107q0 -96 -91 -138q-40 -19 -80 -19h-27z" />
    <glyph glyph-name="rcommaaccent" unicode="&#x157;" 
d="M160 7l-10 -54q62 13 98 -29q18 -22 18 -49q0 -51 -58 -75q-44 -18 -114 -11l5 34q92 -12 123 28q7 9 7 18q0 52 -60 53q-15 0 -33 -4l-25 -6l12 94zM462 363q-13 15 -60 32q-24 8 -40 8q-64 0 -164 -59q-10 -6 -19 -12v-297h85v-35h-209v35h87v357h-87v34h124v-50
q36 19 39 21q75 42 143 43q64 0 119 -42q7 -5 13 -11z" />
    <glyph glyph-name="Rcaron" unicode="&#x158;" 
d="M315 745l-120 -121h-21l-121 121l14 14l119 -93l115 93zM143 281h216q59 0 100 37q37 33 37 86q0 92 -87 117q-24 7 -50 7h-216v-247zM332 247q64 -58 102 -148q10 -22 26 -65h70v-34h-94q-42 110 -65 148q-33 53 -92 99h-137v-213h130v-34h-263v34h97v494h-97v34h350
q83 0 132 -51q39 -41 39 -107q0 -96 -91 -138q-40 -19 -80 -19h-27z" />
    <glyph glyph-name="rcaron" unicode="&#x159;" 
d="M405 621l-120 -121h-21l-121 121l14 14l119 -93l115 93zM462 363q-13 15 -60 32q-24 8 -40 8q-64 0 -164 -59q-10 -6 -19 -12v-297h85v-35h-209v35h87v357h-87v34h124v-50q36 19 39 21q75 42 143 43q64 0 119 -42q7 -5 13 -11z" />
    <glyph glyph-name="Sacute" unicode="&#x15a;" 
d="M574 805l-169 -175h-46l122 175h93zM460 570q-12 -33 -12 -57q0 -49 24 -75h-32q-2 1 -3 2q-20 47 -70 75q-31 18 -63 18q-82 0 -122 -47q-20 -24 -20 -54q0 -67 75 -100q12 -5 104 -34q91 -29 118 -73q17 -28 17 -66q0 -82 -78 -125q-46 -25 -100 -25q-63 0 -114 43
q-8 8 -11 -7q-6 -23 -15 -45h-34l14 42q9 27 9 44q0 25 -20 63q-2 3 -3 5h34l13 -29q37 -64 103 -77q12 -2 24 -2q76 0 117 49q24 28 24 64q0 61 -73 92q-9 4 -101 34q-93 29 -121 75q-19 30 -19 72q0 80 84 118q44 20 95 20q52 0 101 -36q10 -8 12 1q3 22 9 35h34z" />
    <glyph glyph-name="sacute" unicode="&#x15b;" 
d="M574 667l-169 -175h-46l122 175h93zM460 432q-12 -24 -12 -49q0 -40 24 -62h-34q-21 39 -73 61q-31 13 -61 13q-104 0 -134 -43q-8 -12 -8 -27q0 -51 74 -76l146 -37q87 -28 93 -89q1 -5 1 -11q0 -64 -78 -98q-46 -19 -100 -19q-63 0 -114 33q-8 6 -11 -5q-4 -13 -15 -35
h-34l14 33q9 20 9 39t-19 50q-2 4 -4 6h34l13 -22q39 -55 113 -61q7 -1 14 -1q94 0 128 44q13 16 13 36q0 46 -69 69l-145 35q-91 29 -99 94q-1 7 -1 15q0 62 84 92q44 15 95 15q50 0 101 -27q10 -7 12 0q3 18 9 27h34z" />
    <glyph glyph-name="Scircumflex" unicode="&#x15c;" 
d="M513 644l-14 -14l-115 93l-119 -93l-14 14l121 121h21zM460 570q-12 -33 -12 -57q0 -49 24 -75h-32q-2 1 -3 2q-20 47 -70 75q-31 18 -63 18q-82 0 -122 -47q-20 -24 -20 -54q0 -67 75 -100q12 -5 104 -34q91 -29 118 -73q17 -28 17 -66q0 -82 -78 -125q-46 -25 -100 -25
q-63 0 -114 43q-8 8 -11 -7q-6 -23 -15 -45h-34l14 42q9 27 9 44q0 25 -20 63q-2 3 -3 5h34l13 -29q37 -64 103 -77q12 -2 24 -2q76 0 117 49q24 28 24 64q0 61 -73 92q-9 4 -101 34q-93 29 -121 75q-19 30 -19 72q0 80 84 118q44 20 95 20q52 0 101 -36q10 -8 12 1
q3 22 9 35h34z" />
    <glyph glyph-name="scircumflex" unicode="&#x15d;" 
d="M513 506l-14 -14l-115 93l-119 -93l-14 14l121 121h21zM460 432q-12 -24 -12 -49q0 -40 24 -62h-34q-21 39 -73 61q-31 13 -61 13q-104 0 -134 -43q-8 -12 -8 -27q0 -51 74 -76l146 -37q87 -28 93 -89q1 -5 1 -11q0 -64 -78 -98q-46 -19 -100 -19q-63 0 -114 33
q-8 6 -11 -5q-4 -13 -15 -35h-34l14 33q9 20 9 39t-19 50q-2 4 -4 6h34l13 -22q39 -55 113 -61q7 -1 14 -1q94 0 128 44q13 16 13 36q0 46 -69 69l-145 35q-91 29 -99 94q-1 7 -1 15q0 62 84 92q44 15 95 15q50 0 101 -27q10 -7 12 0q3 18 9 27h34z" />
    <glyph glyph-name="Scedilla" unicode="&#x15e;" 
d="M160 7l-10 -54q62 13 98 -29q18 -22 18 -49q0 -51 -58 -75q-44 -18 -114 -11l5 34q92 -12 123 28q7 9 7 18q0 52 -60 53q-15 0 -33 -4l-25 -6l12 94zM460 570q-12 -33 -12 -57q0 -49 24 -75h-32q-2 1 -3 2q-20 47 -70 75q-31 18 -63 18q-82 0 -122 -47q-20 -24 -20 -54
q0 -67 75 -100q12 -5 104 -34q91 -29 118 -73q17 -28 17 -66q0 -82 -78 -125q-46 -25 -100 -25q-63 0 -114 43q-8 8 -11 -7q-6 -23 -15 -45h-34l14 42q9 27 9 44q0 25 -20 63q-2 3 -3 5h34l13 -29q37 -64 103 -77q12 -2 24 -2q76 0 117 49q24 28 24 64q0 61 -73 92
q-9 4 -101 34q-93 29 -121 75q-19 30 -19 72q0 80 84 118q44 20 95 20q52 0 101 -36q10 -8 12 1q3 22 9 35h34z" />
    <glyph glyph-name="scedilla" unicode="&#x15f;" 
d="M160 -5l-10 -54q62 13 98 -29q18 -22 18 -49q0 -51 -58 -75q-44 -18 -114 -11l5 34q92 -12 123 28q7 9 7 18q0 52 -60 53q-15 0 -33 -4l-25 -6l12 94zM460 432q-12 -24 -12 -49q0 -40 24 -62h-34q-21 39 -73 61q-31 13 -61 13q-104 0 -134 -43q-8 -12 -8 -27
q0 -51 74 -76l146 -37q87 -28 93 -89q1 -5 1 -11q0 -64 -78 -98q-46 -19 -100 -19q-63 0 -114 33q-8 6 -11 -5q-4 -13 -15 -35h-34l14 33q9 20 9 39t-19 50q-2 4 -4 6h34l13 -22q39 -55 113 -61q7 -1 14 -1q94 0 128 44q13 16 13 36q0 46 -69 69l-145 35q-91 29 -99 94
q-1 7 -1 15q0 62 84 92q44 15 95 15q50 0 101 -27q10 -7 12 0q3 18 9 27h34z" />
    <glyph glyph-name="Scaron" unicode="&#x160;" 
d="M513 751l-120 -121h-21l-121 121l14 14l119 -93l115 93zM460 570q-12 -33 -12 -57q0 -49 24 -75h-32q-2 1 -3 2q-20 47 -70 75q-31 18 -63 18q-82 0 -122 -47q-20 -24 -20 -54q0 -67 75 -100q12 -5 104 -34q91 -29 118 -73q17 -28 17 -66q0 -82 -78 -125
q-46 -25 -100 -25q-63 0 -114 43q-8 8 -11 -7q-6 -23 -15 -45h-34l14 42q9 27 9 44q0 25 -20 63q-2 3 -3 5h34l13 -29q37 -64 103 -77q12 -2 24 -2q76 0 117 49q24 28 24 64q0 61 -73 92q-9 4 -101 34q-93 29 -121 75q-19 30 -19 72q0 80 84 118q44 20 95 20q52 0 101 -36
q10 -8 12 1q3 22 9 35h34z" />
    <glyph glyph-name="scaron" unicode="&#x161;" 
d="M513 613l-120 -121h-21l-121 121l14 14l119 -93l115 93zM460 432q-12 -24 -12 -49q0 -40 24 -62h-34q-21 39 -73 61q-31 13 -61 13q-104 0 -134 -43q-8 -12 -8 -27q0 -51 74 -76l146 -37q87 -28 93 -89q1 -5 1 -11q0 -64 -78 -98q-46 -19 -100 -19q-63 0 -114 33
q-8 6 -11 -5q-4 -13 -15 -35h-34l14 33q9 20 9 39t-19 50q-2 4 -4 6h34l13 -22q39 -55 113 -61q7 -1 14 -1q94 0 128 44q13 16 13 36q0 46 -69 69l-145 35q-91 29 -99 94q-1 7 -1 15q0 62 84 92q44 15 95 15q50 0 101 -27q10 -7 12 0q3 18 9 27h34z" />
    <glyph glyph-name="uni0162" unicode="&#x162;" 
d="M319 7l-10 -54q62 13 98 -29q18 -22 18 -49q0 -51 -58 -75q-44 -18 -114 -11l5 34q92 -12 123 28q7 9 7 18q0 52 -60 53q-15 0 -33 -4l-25 -6l12 94zM522 358l-10 170h-194v-494h149v-34h-333v34h148v494h-193l-10 -170h-35l10 204h491l11 -204h-34z" />
    <glyph glyph-name="uni0163" unicode="&#x163;" 
d="M334 -12l-10 -54q62 13 98 -29q18 -22 18 -49q0 -51 -58 -75q-44 -18 -114 -11l5 34q92 -12 123 28q7 9 7 18q0 52 -60 53q-15 0 -33 -4l-25 -6l12 94zM53 426h78v132h37v-132h252v-34h-252v-251q0 -53 54 -92q43 -31 94 -31q72 0 187 115l28 -24q-75 -83 -155 -115
q-33 -13 -60 -13q-78 0 -136 56q-48 46 -48 104v251h-79v34z" />
    <glyph glyph-name="Tcaron" unicode="&#x164;" 
d="M430 745l-120 -121h-21l-121 121l14 14l119 -93l115 93zM522 358l-10 170h-194v-494h149v-34h-333v34h148v494h-193l-10 -170h-35l10 204h491l11 -204h-34z" />
    <glyph glyph-name="tcaron" unicode="&#x165;" 
d="M281 739l-120 -121h-21l-121 121l14 14l119 -93l115 93zM53 426h78v132h37v-132h252v-34h-252v-251q0 -53 54 -92q43 -31 94 -31q72 0 187 115l28 -24q-75 -83 -155 -115q-33 -13 -60 -13q-78 0 -136 56q-48 46 -48 104v251h-79v34z" />
    <glyph glyph-name="Tbar" unicode="&#x166;" 
d="M522 358l-10 170h-194v-212h102v-34h-102v-248h149v-34h-333v34h148v248h-102v34h102v212h-193l-10 -170h-35l10 204h491l11 -204h-34z" />
    <glyph glyph-name="tbar" unicode="&#x167;" 
d="M53 426h78v132h37v-132h252v-34h-252v-115h60v-34h-60v-102q0 -53 54 -92q43 -31 94 -31q72 0 187 115l28 -24q-75 -83 -155 -115q-33 -13 -60 -13q-78 0 -136 56q-48 46 -48 104v102h-59v34h59v115h-79v34z" />
    <glyph glyph-name="Utilde" unicode="&#x168;" 
d="M198 624q1 43 39 67q18 11 36 11q15 1 44 -22q16 -13 25 -12q34 3 54 30h5q3 -40 -25 -63q-14 -11 -32 -11q-23 1 -48 22q-15 13 -26 13q-40 -1 -62 -35h-10zM572 528h-71v-349q0 -60 -52 -118q-62 -68 -149 -68q-91 0 -155 78q-46 56 -46 108v349h-71v34h204v-34h-100
v-349q0 -39 44 -89q56 -63 123 -63q78 0 133 69q35 44 35 83v349h-99v34h204v-34z" />
    <glyph glyph-name="utilde" unicode="&#x169;" 
d="M154 487q1 43 39 67q18 11 36 11q15 1 44 -22q16 -13 25 -12q34 3 54 30h5q3 -40 -25 -63q-14 -11 -32 -11q-23 1 -48 22q-15 13 -26 13q-40 -1 -62 -35h-10zM453 51q-33 -18 -39 -21q-80 -43 -137 -43q-68 0 -125 55q-45 44 -45 89v261h-85v34h122l-1 -294v-1
q0 -35 45 -72q43 -35 89 -35q66 0 171 68q3 1 5 3v297h-85v34h122v-391h86v-35h-123v51z" />
    <glyph glyph-name="Umacron" unicode="&#x16a;" 
d="M127 658h347v-34h-347v34zM572 528h-71v-349q0 -60 -52 -118q-62 -68 -149 -68q-91 0 -155 78q-46 56 -46 108v349h-71v34h204v-34h-100v-349q0 -39 44 -89q56 -63 123 -63q78 0 133 69q35 44 35 83v349h-99v34h204v-34z" />
    <glyph glyph-name="umacron" unicode="&#x16b;" 
d="M82 521h347v-34h-347v34zM453 51q-33 -18 -39 -21q-80 -43 -137 -43q-68 0 -125 55q-45 44 -45 89v261h-85v34h122l-1 -294v-1q0 -35 45 -72q43 -35 89 -35q66 0 171 68q3 1 5 3v297h-85v34h122v-391h86v-35h-123v51z" />
    <glyph glyph-name="Ubreve" unicode="&#x16c;" 
d="M404 720q-8 -63 -59 -87q-21 -9 -44 -9q-60 0 -89 51q-12 20 -15 45h24q13 -44 80 -44q59 0 79 44h24zM572 528h-71v-349q0 -60 -52 -118q-62 -68 -149 -68q-91 0 -155 78q-46 56 -46 108v349h-71v34h204v-34h-100v-349q0 -39 44 -89q56 -63 123 -63q78 0 133 69
q35 44 35 83v349h-99v34h204v-34z" />
    <glyph glyph-name="ubreve" unicode="&#x16d;" 
d="M360 583q-8 -63 -59 -87q-21 -9 -44 -9q-60 0 -89 51q-12 20 -15 45h24q13 -44 80 -44q59 0 79 44h24zM453 51q-33 -18 -39 -21q-80 -43 -137 -43q-68 0 -125 55q-45 44 -45 89v261h-85v34h122l-1 -294v-1q0 -35 45 -72q43 -35 89 -35q66 0 171 68q3 1 5 3v297h-85v34
h122v-391h86v-35h-123v51z" />
    <glyph glyph-name="Uring" unicode="&#x16e;" 
d="M300 806q50 0 77 -43q14 -22 14 -48q0 -50 -43 -77q-22 -14 -48 -14q-50 0 -77 43q-14 22 -14 48q0 50 43 77q22 14 48 14zM300 772q-34 0 -51 -31q-6 -12 -6 -26q0 -34 31 -51q12 -6 26 -6q34 0 51 31q6 12 6 26q0 34 -31 51q-12 6 -26 6zM572 528h-71v-349
q0 -60 -52 -118q-62 -68 -149 -68q-91 0 -155 78q-46 56 -46 108v349h-71v34h204v-34h-100v-349q0 -39 44 -89q56 -63 123 -63q78 0 133 69q35 44 35 83v349h-99v34h204v-34z" />
    <glyph glyph-name="uring" unicode="&#x16f;" 
d="M256 669q50 0 77 -43q14 -22 14 -48q0 -50 -43 -77q-22 -14 -48 -14q-50 0 -77 43q-14 22 -14 48q0 50 43 77q22 14 48 14zM256 635q-34 0 -51 -31q-6 -12 -6 -26q0 -34 31 -51q12 -6 26 -6q34 0 51 31q6 12 6 26q0 34 -31 51q-12 6 -26 6zM453 51q-33 -18 -39 -21
q-80 -43 -137 -43q-68 0 -125 55q-45 44 -45 89v261h-85v34h122l-1 -294v-1q0 -35 45 -72q43 -35 89 -35q66 0 171 68q3 1 5 3v297h-85v34h122v-391h86v-35h-123v51z" />
    <glyph glyph-name="Uhungarumlaut" unicode="&#x170;" 
d="M401 799l-169 -175h-46l122 175h93zM583 799l-169 -175h-46l122 175h93zM572 528h-71v-349q0 -60 -52 -118q-62 -68 -149 -68q-91 0 -155 78q-46 56 -46 108v349h-71v34h204v-34h-100v-349q0 -39 44 -89q56 -63 123 -63q78 0 133 69q35 44 35 83v349h-99v34h204v-34z" />
    <glyph glyph-name="uhungarumlaut" unicode="&#x171;" 
d="M357 662l-169 -175h-46l122 175h93zM539 662l-169 -175h-46l122 175h93zM453 51q-33 -18 -39 -21q-80 -43 -137 -43q-68 0 -125 55q-45 44 -45 89v261h-85v34h122l-1 -294v-1q0 -35 45 -72q43 -35 89 -35q66 0 171 68q3 1 5 3v297h-85v34h122v-391h86v-35h-123v51z" />
    <glyph glyph-name="Uogonek" unicode="&#x172;" 
d="M279 -1h42q-38 -6 -48 -49q-4 -15 -2 -31q5 -35 65 -45q53 -9 85 35l20 -25q-35 -56 -100 -55q-62 1 -93 42q-17 21 -17 48q0 54 48 80zM572 528h-71v-349q0 -60 -52 -118q-62 -68 -149 -68q-91 0 -155 78q-46 56 -46 108v349h-71v34h204v-34h-100v-349q0 -39 44 -89
q56 -63 123 -63q78 0 133 69q35 44 35 83v349h-99v34h204v-34z" />
    <glyph glyph-name="uogonek" unicode="&#x173;" 
d="M450 -7h42q-38 -6 -48 -49q-4 -15 -2 -31q5 -35 65 -45q53 -9 85 35l20 -25q-35 -56 -100 -55q-62 1 -93 42q-17 21 -17 48q0 54 48 80zM453 51q-33 -18 -39 -21q-80 -43 -137 -43q-68 0 -125 55q-45 44 -45 89v261h-85v34h122l-1 -294v-1q0 -35 45 -72q43 -35 89 -35
q66 0 171 68q3 1 5 3v297h-85v34h122v-391h86v-35h-123v51z" />
    <glyph glyph-name="Wcircumflex" unicode="&#x174;" 
d="M431 638l-14 -14l-115 93l-119 -93l-14 14l121 121h21zM402 562h198v-34h-24l-142 -543h-22l-112 385l-112 -385h-22l-142 543h-24v34h198v-34h-136l116 -444l109 373h26l109 -373l116 444h-136v34z" />
    <glyph glyph-name="wcircumflex" unicode="&#x175;" 
d="M431 501l-14 -14l-115 93l-119 -93l-14 14l121 121h21zM76 392l106 -336l104 269h28l104 -269l106 336h-125v34h201v-34h-37l-130 -416h-24l-109 282l-109 -282h-24l-130 416h-37v34h201v-34h-125z" />
    <glyph glyph-name="Ycircumflex" unicode="&#x176;" 
d="M431 638l-14 -14l-115 93l-119 -93l-14 14l121 121h21zM317 34h58v-34h-152v34h57v239l-186 255h-35v34h141v-34h-60l160 -216l160 216h-60v34h141v-34h-35l-189 -255v-239z" />
    <glyph glyph-name="ycircumflex" unicode="&#x177;" 
d="M431 501l-14 -14l-115 93l-119 -93l-14 14l121 121h21zM284 -168h-284v34h213l66 134l-193 392h-76v34h191v-34h-74l173 -350l173 350h-74v34h191v-34h-76l-260 -526h30v-34z" />
    <glyph glyph-name="Ydieresis" unicode="&#x178;" 
d="M183 662q0 27 25 36q6 2 13 2q27 0 36 -25q2 -6 2 -13q0 -27 -25 -36q-6 -2 -13 -2q-27 0 -36 25q-2 6 -2 13zM340 662q0 27 25 36q6 2 13 2q27 0 36 -25q2 -6 2 -13q0 -27 -25 -36q-6 -2 -13 -2q-27 0 -36 25q-2 6 -2 13zM317 34h58v-34h-152v34h57v239l-186 255h-35v34
h141v-34h-60l160 -216l160 216h-60v34h141v-34h-35l-189 -255v-239z" />
    <glyph glyph-name="Zacute" unicode="&#x179;" 
d="M488 799l-169 -175h-46l122 175h93zM432 34l11 156h35l-14 -190h-339v20l287 508h-248l-7 -153h-35l9 187h331v-23l-286 -505h256z" />
    <glyph glyph-name="zacute" unicode="&#x17a;" 
d="M483 662l-169 -175h-46l122 175h93zM499 392l-348 -358h332v36h34v-70h-418v34l348 358h-330v-36h-34v70h416v-34z" />
    <glyph glyph-name="Zdotaccent" unicode="&#x17b;" 
d="M334 721v-97h-74v97h74zM432 34l11 156h35l-14 -190h-339v20l287 508h-248l-7 -153h-35l9 187h331v-23l-286 -505h256z" />
    <glyph glyph-name="zdotaccent" unicode="&#x17c;" 
d="M328 584v-97h-74v97h74zM499 392l-348 -358h332v36h34v-70h-418v34l348 358h-330v-36h-34v70h416v-34z" />
    <glyph glyph-name="Zcaron" unicode="&#x17d;" 
d="M427 745l-120 -121h-21l-121 121l14 14l119 -93l115 93zM432 34l11 156h35l-14 -190h-339v20l287 508h-248l-7 -153h-35l9 187h331v-23l-286 -505h256z" />
    <glyph glyph-name="zcaron" unicode="&#x17e;" 
d="M422 608l-120 -121h-21l-121 121l14 14l119 -93l115 93zM499 392l-348 -358h332v36h34v-70h-418v34l348 358h-330v-36h-34v70h416v-34z" />
    <glyph glyph-name="longs" unicode="&#x17f;" 
d="M185 34v358h-73v34h72v79q0 61 65 100q41 25 85 25q83 0 148 -47l-22 -30q-55 40 -126 40q-54 0 -91 -40q-22 -23 -22 -48v-471h167v-34h-276v34h73z" />
    <glyph glyph-name="uni0180" unicode="&#x180;" 
d="M344 390q-86 0 -143 -62q-45 -49 -45 -115q0 -86 71 -139q52 -38 116 -38q90 0 147 66q41 49 41 111q0 83 -68 136q-51 41 -119 41zM119 590l-78 -15l-6 34l121 23v-117h83v-34h-83v-150q55 78 151 93q18 3 36 3q103 0 170 -74q55 -60 55 -140q0 -97 -76 -161
q-63 -53 -148 -53q-102 0 -169 73q-10 11 -18 23v-95h-118v34h81v447h-79v34h78v75z" />
    <glyph glyph-name="uni0181" unicode="&#x181;" 
d="M207 361h176q57 0 84 42q12 19 12 41q0 49 -47 73q-22 11 -48 11h-177v-167zM207 34h176q50 0 79 53q22 39 22 97q0 76 -51 121q-25 22 -49 22h-177v-293zM383 562q64 0 104 -46q26 -31 26 -72q0 -71 -69 -104q58 -42 71 -121q3 -18 3 -35q0 -107 -62 -158
q-32 -26 -72 -26h-303v34h89v494h-88q-37 0 -38 -26v-5q10 3 22 1q31 -9 31 -34q0 -28 -24 -36q-6 -2 -12 -2q-24 0 -37 34q-9 24 -3 47q14 55 76 55h286z" />
    <glyph glyph-name="uni0182" unicode="&#x182;" 
d="M336 347q-79 0 -130 -58q-37 -43 -37 -99q0 -79 66 -126q45 -32 101 -32q82 0 132 62q34 43 34 96q0 75 -62 122q-45 35 -104 35zM488 532h-319v-237q49 70 137 83q15 2 30 2q92 0 152 -68q47 -53 47 -122q0 -88 -71 -145q-55 -45 -128 -45q-93 0 -153 66q-8 9 -14 18
v-84h-104v30h71v502h-54v30h437l14 -146h-31z" />
    <glyph glyph-name="uni0183" unicode="&#x183;" 
d="M322 390q-86 0 -143 -62q-44 -49 -44 -115q0 -86 71 -139q51 -38 116 -38q90 0 147 66q41 49 41 111q0 83 -67 136q-52 41 -121 41zM494 598h-359v-267q53 77 149 93q19 3 38 3q101 0 169 -72q56 -61 56 -142q0 -96 -76 -160q-64 -54 -149 -54q-102 0 -169 73
q-10 11 -18 23v-95h-37v598h-62v34h492l16 -165h-34z" />
    <glyph glyph-name="uni0184" unicode="&#x184;" 
d="M344 390q-86 0 -143 -62q-45 -49 -45 -115q0 -86 71 -139q52 -38 116 -38q90 0 147 66q41 49 41 111q0 83 -68 136q-51 41 -119 41zM120 590l-78 -15l-6 34l121 23l-1 -301q55 78 151 93q18 3 36 3q103 0 170 -74q55 -60 55 -140q0 -97 -76 -161q-63 -53 -148 -53
q-102 0 -169 73q-10 11 -18 23v-95h-37v590z" />
    <glyph glyph-name="uni0185" unicode="&#x185;" 
d="M344 390q-86 0 -143 -62q-44 -49 -44 -115q0 -86 71 -139q51 -38 115 -38q90 0 147 66q41 49 41 111q0 83 -68 136q-51 41 -119 41zM119 590l-78 -15l-6 34l121 23v-301q55 78 151 93q18 3 36 3q103 0 170 -74q55 -60 55 -140q0 -97 -76 -161q-63 -53 -148 -53
q-128 0 -188 91q-36 54 -36 126l-1 371v3z" />
    <glyph glyph-name="uni0186" unicode="&#x186;" 
d="M289 -6q-83 0 -125 44q-9 7 -10 3q-1 -1 -1 -4q-2 -21 -12 -40h-34q13 36 13 69q0 23 -19 68h35q17 -58 83 -88q35 -15 70 -15q86 0 146 77q55 71 55 169q0 115 -73 188q-56 57 -128 57q-66 0 -118 -43q-13 -10 -22 -22l-31 22q44 56 125 74q24 6 46 6q104 0 174 -90
q64 -81 64 -192q0 -124 -76 -208q-68 -75 -162 -75z" />
    <glyph glyph-name="uni0187" unicode="&#x187;" 
d="M461 520q2 21 15 41q17 24 21 28q23 21 57 21q49 0 62 -35q4 -9 4 -19q0 -24 -26 -27q-27 -4 -41 19q-5 9 -5 21q0 11 6 21q-24 10 -45 -25l-2 -4q-13 -36 -13 -69q0 -18 19 -66h-35q-17 59 -84 87q-34 14 -69 14q-86 0 -146 -77q-55 -71 -55 -169q0 -116 73 -190
q56 -56 128 -56q64 0 117 42q13 11 23 23l31 -21q-45 -56 -125 -75q-24 -6 -46 -6q-104 0 -174 89q-64 82 -64 194q0 124 76 208q68 75 162 75q83 0 125 -44q10 -7 11 0z" />
    <glyph glyph-name="uni0188" unicode="&#x188;" 
d="M454 377l4 15q19 27 34 36q20 13 47 13q49 0 62 -35q4 -9 4 -19q0 -24 -26 -27q-27 -4 -41 19q-5 9 -5 21q0 10 6 21q-24 10 -45 -25l-2 -4l-12 -56q9 -13 19 -36l-35 -12q-35 70 -113 94q-28 8 -57 8q-90 0 -147 -66q-41 -49 -41 -111q0 -81 69 -134q56 -42 128 -42
q56 0 122 36q14 7 24 15l20 -34q-51 -40 -134 -52q-17 -2 -32 -2q-111 0 -180 75q-54 59 -54 138q0 96 76 160q64 54 149 54q79 0 146 -52q11 -7 14 2z" />
    <glyph glyph-name="uni0189" unicode="&#x189;" 
d="M185 34h162q64 0 116 80q50 79 50 170q0 73 -39 148q-50 96 -127 96h-162v-212h69v-34h-69v-248zM52 34h96v248h-66v34h66v212h-96v34h295q105 0 163 -121q38 -77 38 -155q0 -92 -43 -175q-57 -111 -158 -111h-295v34z" />
    <glyph glyph-name="uni018A" unicode="&#x18a;" 
d="M185 34h162q64 0 116 80q50 79 50 170q0 73 -39 148q-50 96 -127 96h-162v-494zM347 562q105 0 163 -121q38 -77 38 -155q0 -92 -43 -175q-57 -111 -158 -111h-295v34h96v494h-96q-37 0 -38 -26v-5q10 3 22 1q32 -9 31 -38q-1 -26 -24 -33q-6 -2 -12 -2q-28 0 -39 36
q-6 23 -1 46q14 55 76 55h280z" />
    <glyph glyph-name="uni018B" unicode="&#x18b;" 
d="M250 347q-82 0 -132 -62q-34 -42 -34 -95q0 -75 62 -123q45 -35 104 -35q79 0 130 58q37 43 37 100q0 78 -66 125q-45 32 -101 32zM98 532l-14 -116h-31l14 146h437v-30h-54v-502h71v-30h-104v84q-50 -70 -139 -82q-14 -2 -28 -2q-93 0 -152 68q-47 52 -47 122
q0 88 71 145q55 45 128 45q92 0 152 -67q8 -8 15 -18v237h-319z" />
    <glyph glyph-name="uni018C" unicode="&#x18c;" 
d="M273 390q-90 0 -147 -66q-41 -49 -41 -111q0 -83 67 -136q52 -41 121 -41q86 0 143 62q45 49 45 115q0 85 -71 138q-52 39 -117 39zM101 598l-16 -131h-34l16 165h492v-34h-62v-598h-37v95q-53 -77 -149 -93q-19 -3 -38 -3q-101 0 -169 72q-56 61 -56 142q0 96 76 160
q64 54 149 54q102 0 169 -73q10 -11 18 -23v267h-359z" />
    <glyph glyph-name="uni018D" unicode="&#x18d;" 
d="M300 427q101 0 169 -72q56 -61 56 -142q0 -96 -76 -160q-60 -50 -140 -53v-73q0 -33 -41 -55q-24 -13 -50 -13q-58 0 -76 50q-2 4 -3 8q-12 49 22 70q7 5 15 7q23 7 32 -18q11 -28 -11 -47q-7 -5 -17 -8q-12 -2 -21 1q-5 -30 36 -43q13 -4 25 -4q38 0 59 25q10 13 10 28
v72q-100 4 -164 79q-50 58 -50 134q0 96 76 160q64 54 149 54zM300 390q-88 0 -145 -65q-43 -49 -43 -112q0 -83 67 -136q52 -41 121 -41q95 0 149 67q39 47 39 110q0 89 -73 141q-50 36 -115 36z" />
    <glyph glyph-name="uni018E" unicode="&#x18e;" 
d="M172 160v143h34v-62h193v287h-272l-12 -87h-34l12 121h440v-34h-97v-494h97v-34h-440l-9 115h34l9 -81h272v173h-193v-47h-34z" />
    <glyph glyph-name="uni018F" unicode="&#x18f;" 
d="M504 257q3 25 3 51q0 113 -80 181q-60 51 -142 51q-106 0 -186 -86q-16 -18 -34 -42l-30 22q82 109 176 134q35 9 74 9q118 0 193 -86q66 -75 66 -183q0 -172 -93 -261q-70 -66 -179 -66q-95 0 -166 102q-54 84 -58 158v16h456zM499 220h-413q10 -72 65 -136
q56 -66 121 -66q152 0 209 141q11 28 18 61z" />
    <glyph glyph-name="uni0190" unicode="&#x190;" 
d="M139 167q0 82 73 136q-44 19 -62 81q-6 22 -6 43q0 62 57 106q37 29 76 29q83 0 121 -44q10 -8 11 1q3 22 12 43h34q-12 -33 -13 -71q0 -21 19 -69h-35q-17 60 -82 89q-33 14 -67 14q-47 0 -79 -44q-20 -26 -20 -54q0 -47 38 -80q26 -23 57 -23h55v-34h-51q-36 0 -69 -34
q-35 -36 -35 -89q0 -93 70 -123q21 -10 43 -10q76 0 127 65l31 -21q-57 -72 -140 -80q-9 -1 -18 -1q-56 0 -101 48q-46 49 -46 122z" />
    <glyph glyph-name="uni0191" unicode="&#x191;" 
d="M107 -120q20 -8 47 22q16 17 16 29v597h-97v34h441l13 -159h-35l-13 125h-272v-173h121v47h34v-143h-35v62h-120v-362q0 -45 -43 -76q-26 -19 -57 -19q-55 0 -65 38q-1 6 -1 12q0 25 26 28q27 4 41 -20q5 -9 5 -21q0 -11 -6 -21z" />
    <glyph glyph-name="florin" unicode="&#x192;" 
d="M258 -43q0 -61 -65 -101q-41 -24 -84 -24q-85 0 -148 47l21 30q57 -40 126 -40q54 0 91 40q22 23 22 48v435h-73v34h73v79q0 61 65 101q41 24 84 24q85 0 148 -47l-21 -30q-57 40 -126 40q-54 0 -91 -40q-22 -23 -22 -48v-79h250v-34h-250v-435z" />
    <glyph glyph-name="uni0193" unicode="&#x193;" 
d="M458 520q6 27 15 41q17 29 35 39t42 10q49 0 63 -35q4 -9 4 -19q1 -24 -25 -27q-28 -4 -42 19q-5 9 -5 21q0 11 6 21q-23 10 -43 -22q-3 -4 -4 -7q-13 -36 -13 -69q0 -22 19 -69l-35 1q-17 58 -86 87q-35 16 -71 16q-86 0 -146 -77q-55 -71 -55 -169q0 -121 70 -193
q52 -53 120 -53q94 0 145 88q30 54 33 125h-110v34h145v-34q-5 -131 -81 -200q-54 -50 -132 -50q-106 0 -172 95q-55 79 -55 188q0 124 77 208q68 75 161 75q81 0 123 -39q3 -2 5 -5q8 -10 12 0z" />
    <glyph glyph-name="uni0194" unicode="&#x194;" 
d="M302 -60l-14 -34q-14 -34 13 -34q32 0 3 62q-1 5 -2 6zM391 528v34h196v-34h-52l-214 -538l29 -72q15 -39 -6 -66q-15 -17 -43 -17q-47 0 -58 36q-5 18 3 39l34 84l-214 534h-53v34h196v-34h-103l195 -488l194 488h-104z" />
    <glyph glyph-name="uni0195" unicode="&#x195;" 
d="M372 296v-165q0 -76 42 -99q13 -8 31 -8q59 0 77 69q6 22 6 51v248h-85v34h122v-295q0 -91 -66 -129q-26 -15 -55 -15q-81 0 -103 89q-6 26 -6 55v165q0 107 -74 107q-38 0 -107 -62l-9 -9v-298h85v-34h-208v34h87v556l-87 -23v34l124 31v-256q67 64 115 64q80 0 104 -86
q7 -27 7 -58z" />
    <glyph glyph-name="uni0196" unicode="&#x196;" 
d="M326 -13q0 -41 29 -76q19 -22 39 -22q34 0 54 20q4 4 6 8q-10 17 -10 28q0 45 29 56q24 9 37 -15q7 -11 6 -28q-1 -27 -44 -64q-41 -34 -77 -34q-46 0 -78 44q-28 38 -28 96v589l-162 -40v34l199 49v-645z" />
    <glyph glyph-name="uni0197" unicode="&#x197;" 
d="M285 528h-195v34h421v-34h-190v-198h102v-34h-102v-262h189v-34h-421v34h196v262h-99v34h99v198z" />
    <glyph glyph-name="uni0198" unicode="&#x198;" 
d="M203 289q94 -26 166 -125q35 -46 81 -130h118v-34h-139q-83 150 -143 203q-50 44 -116 56q-12 -10 -20 -16v-209h91v-34h-209v34h82v494h-82v34h209v-34h-91v-237q28 25 170 189q16 18 27 31q45 52 108 52q47 0 61 -45q0 -2 1 -4q12 -49 -22 -70q-7 -5 -15 -7
q-23 -7 -32 18q-11 28 11 47q7 5 17 8q12 2 21 -1q2 15 -23 27q-9 4 -14 4h-20q-16 0 -126 -127q-87 -101 -111 -124z" />
    <glyph glyph-name="uni0199" unicode="&#x199;" 
d="M192 254l165 138h-33v34h170v-34h-80l-162 -136l181 -222h94v-34h-177v34h35l-161 198l-32 -27v-205h-137v34h100v505q0 53 48 81q24 14 52 14q56 0 65 -40q1 -5 1 -10q1 -24 -25 -27q-28 -4 -42 19q-5 9 -5 21q0 11 6 21q-20 8 -47 -23q-16 -17 -16 -30v-311z" />
    <glyph glyph-name="uni019A" unicode="&#x19a;" 
d="M255 589l-163 -40v34l200 49v-282h123v-34h-123v-282h216v-34h-416v34h163v282h-120v34h120v239z" />
    <glyph glyph-name="uni019B" unicode="&#x19b;" 
d="M320 406l-93 -372h71v-34h-181v34h72l105 419q-23 40 -47 70l-66 -60l-22 26l66 60q-62 70 -101 61l-8 36q58 15 137 -71l66 60l22 -26l-66 -60q98 -125 142 -299q34 -135 17 -250h-37q26 188 -69 390z" />
    <glyph glyph-name="uni019C" unicode="&#x19c;" 
d="M293 54q-35 -44 -88 -63q-11 -4 -18 -4q-80 0 -93 85q-3 21 -3 59v397h-85v34h123v-431q0 -62 11 -82q13 -25 46 -25q38 0 101 70v37v397h-85v34h122l1 -430v-1q0 -55 2 -65q9 -42 55 -42q39 0 96 66l5 5v433h-85v34h208v-34h-87v-494h87v-34h-123v51q-16 -30 -70 -55
q-20 -9 -31 -9q-71 0 -89 67z" />
    <glyph glyph-name="uni019D" unicode="&#x19d;" 
d="M93 528v-536q0 -37 -30 -63q-14 -12 -33 -17q-49 -12 -70 22q-5 7 -7 15q-7 23 18 32q28 11 47 -11q5 -7 8 -17q2 -12 -1 -21q31 -4 31 37v559h-47v34h107l392 -508v474h-105v34h188v-34h-47v-535h-37z" />
    <glyph glyph-name="uni019E" unicode="&#x19e;" 
d="M145 376q84 46 124 57q27 7 52 7q74 0 129 -57q41 -42 41 -87v-454h85v-34h-208v34h87v454q0 35 -45 72q-43 35 -89 35q-66 0 -171 -68q-3 -1 -5 -3v-298h85v-34h-208v34h87v358h-87v34h124q-3 -14 -1 -50z" />
    <glyph glyph-name="uni019F" unicode="&#x19f;" 
d="M165 302h268v-34h-268v34zM300 564q103 0 173 -89q65 -82 65 -194q0 -124 -77 -208q-68 -75 -161 -75q-103 0 -173 89q-65 82 -65 194q0 124 77 208q68 75 161 75zM300 527q-78 0 -139 -72q-62 -73 -62 -174q0 -116 73 -190q56 -56 128 -56q82 0 144 79q57 73 57 167
q0 105 -65 180q-58 66 -136 66z" />
    <glyph glyph-name="Ohorn" unicode="&#x1a0;" horiz-adv-x="786" 
d="M683 477q-15 -53 -70 -80q-16 -7 -32 -10l-13 16q24 6 40 30q12 19 2 33q-28 17 -23 53q6 36 39 44q8 2 18 1q40 -2 49 -39q6 -27 -10 -48zM300 564q103 0 173 -89q65 -82 65 -194q0 -124 -77 -208q-68 -75 -161 -75q-103 0 -173 89q-65 82 -65 194q0 124 77 208
q68 75 161 75zM300 527q-86 0 -146 -77q-55 -71 -55 -169q0 -116 73 -190q56 -56 128 -56q86 0 146 77q55 71 55 169q0 116 -73 190q-56 56 -128 56z" />
    <glyph glyph-name="ohorn" unicode="&#x1a1;" horiz-adv-x="786" 
d="M669 340q-15 -53 -70 -80q-16 -7 -32 -10l-13 16q24 6 40 30q12 19 2 33q-28 17 -23 53q6 36 39 44q8 2 18 1q40 -2 49 -39q6 -27 -10 -48zM300 427q101 0 169 -72q56 -61 56 -142q0 -96 -76 -160q-64 -54 -149 -54q-101 0 -169 72q-56 61 -56 142q0 96 76 160
q64 54 149 54zM300 390q-88 0 -145 -65q-43 -49 -43 -112q0 -83 67 -136q52 -41 121 -41q95 0 149 67q39 47 39 110q0 89 -73 141q-50 36 -115 36z" />
    <glyph glyph-name="uni01A2" unicode="&#x1a2;" 
d="M242 527q-94 0 -141 -97q-30 -63 -30 -149q0 -138 70 -205q42 -41 101 -41q94 0 141 97q30 63 30 149q0 138 -70 205q-42 41 -101 41zM343 534q47 30 78 30q96 0 119 -96q6 -23 6 -47v-522h47v-34h-131v34h48v521q0 82 -56 102q-15 5 -33 5q-31 0 -51 -15q76 -76 80 -218
v-13q0 -144 -74 -224q-54 -59 -134 -59q-111 0 -169 108q-39 74 -39 175q0 144 74 224q54 59 134 59q55 0 101 -30z" />
    <glyph glyph-name="uni01A3" unicode="&#x1a3;" 
d="M250 427q62 0 111 -30q50 30 78 30q96 0 119 -96q6 -24 6 -48v-384h47v-34h-131v34h47v384q0 85 -59 103q-13 4 -29 4q-30 0 -49 -14q71 -63 71 -163q0 -103 -73 -165q-57 -49 -137 -49q-106 0 -167 79q-44 57 -44 135q0 109 79 170q57 44 131 44zM251 390
q-86 0 -137 -68q-37 -47 -37 -109q0 -89 65 -141q45 -36 108 -36q95 0 144 73q30 45 30 104q0 88 -66 140q-46 37 -107 37z" />
    <glyph glyph-name="uni01A4" unicode="&#x1a4;" 
d="M186 245h200q47 0 91 39q46 42 46 102q0 86 -72 125q-32 17 -65 17h-200v-283zM386 562q66 0 118 -48q53 -49 53 -128q0 -93 -82 -145q-46 -30 -89 -30h-200v-177h136v-34h-269v34h96v494h-96q-34 0 -37 -22q-1 -4 0 -9q9 3 21 1q31 -8 31 -40q0 -27 -20 -33q-7 -2 -15 0
q-38 10 -40 53q0 12 3 24q15 60 68 60h322z" />
    <glyph glyph-name="uni01A5" unicode="&#x1a5;" 
d="M343 36q88 0 145 65q43 49 43 112q0 83 -68 136q-51 41 -119 41q-87 0 -144 -63q-44 -48 -44 -114q0 -87 72 -140q51 -37 115 -37zM417 415q15 34 21 52q26 59 84 51q46 -6 56 -41q3 -11 2 -22q-3 -24 -30 -23q-28 1 -38 25q-4 9 -2 21q3 13 9 20q-29 17 -57 -22
q-5 -8 -9 -17l-20 -50q84 -35 119 -116q16 -38 16 -80q0 -97 -76 -161q-63 -53 -148 -53q-103 0 -171 75q-9 10 -17 21v-241h123v-34h-239v34h79v538h-80v34h117v-95q55 78 151 93q18 3 36 3q35 0 74 -12z" />
    <glyph glyph-name="uni01A6" unicode="&#x1a6;" 
d="M143 281h216q59 0 100 37q37 33 37 86q0 92 -87 117q-24 7 -50 7h-216v-247zM332 247q64 -58 102 -148q10 -22 26 -65h70v-34h-94q-42 110 -65 148q-33 53 -92 99h-137v-213h130v-34h-263v34h96v564h-99v34h246v-34h-110v-36h217q83 0 132 -51q39 -41 39 -107
q0 -96 -91 -138q-40 -19 -80 -19h-27z" />
    <glyph glyph-name="uni01A7" unicode="&#x1a7;" 
d="M144 570h34q7 -12 9 -35q1 -9 8 -4q2 1 4 3q49 36 101 36q86 0 139 -48q40 -37 40 -90q0 -87 -89 -128q-17 -8 -109 -37q-83 -26 -105 -63q-11 -20 -11 -45q0 -61 62 -94q36 -19 79 -19q71 0 117 64q6 7 10 15l13 29h34q-16 -23 -22 -60q-1 -5 -1 -8q0 -17 9 -44l14 -42
h-34q-9 22 -15 45q-3 15 -11 7q-51 -43 -114 -43q-85 0 -138 53q-40 40 -40 97q0 82 85 120q17 8 107 36q85 27 108 65q14 22 14 52q0 57 -64 86q-35 15 -78 15q-62 0 -110 -57q-15 -18 -23 -36q-3 -2 -26 -1q-6 0 -9 -1q24 26 24 75q0 24 -12 57z" />
    <glyph glyph-name="uni01A8" unicode="&#x1a8;" 
d="M139 432h34q7 -10 10 -27q1 -6 7 -2q-4 -3 4 2q52 27 102 27q94 0 146 -43q32 -27 32 -64q0 -74 -90 -105q-16 -6 -116 -29q-84 -19 -102 -52q-6 -12 -6 -27q0 -50 71 -71q31 -9 71 -9q75 0 119 53q4 4 7 9l14 22h34q-14 -16 -23 -48q-1 -5 -1 -8q0 -17 10 -39l14 -33
h-34q-11 22 -15 35q-4 10 -12 5q-51 -33 -113 -33q-91 0 -144 46q-35 30 -35 71q0 68 86 98q15 5 112 28q89 21 108 56q8 14 8 31q0 49 -82 65q-27 5 -59 5q-66 0 -116 -50q-11 -12 -18 -24h-34q23 21 23 62q0 25 -12 49z" />
    <glyph glyph-name="uni01A9" unicode="&#x1a9;" 
d="M13 0v34h51l159 247l-159 247h-51v34h471l37 -131h-34l-37 97h-342l159 -247l-159 -247h342l25 97h34l-25 -131h-471z" />
    <glyph glyph-name="uni01AA" unicode="&#x1aa;" 
d="M464 -125q-1 -41 -48 -49q-8 -1 -18 -1q-55 0 -85 44q-15 23 -15 51v601q-27 -32 -70 -32q-52 0 -78 44q-14 22 -14 48q0 52 44 78q22 14 48 14q72 0 97 -55q10 -21 10 -48v-686q0 -22 29 -38q20 -11 34 -5q-6 11 -6 21q0 32 30 39q28 7 39 -12q3 -6 3 -14zM298 609
q-15 37 -56 45q-7 1 -14 1q-42 0 -63 -37q-10 -17 -10 -37q0 -44 39 -65q16 -9 34 -9q42 0 64 36q4 6 6 13v53z" />
    <glyph glyph-name="uni01AB" unicode="&#x1ab;" 
d="M393 -64q-5 -65 -50 -66q-24 -1 -27 25q-4 28 19 42q9 5 21 5q10 0 21 -6q4 18 2 60q-35 -15 -63 -15q-78 0 -136 56q-48 46 -48 104v251h-79v34h78v132h37v-132h252v-34h-252v-251q0 -53 54 -92q43 -31 94 -31q72 0 187 115l28 -24q-66 -72 -137 -107q0 -40 -1 -66z" />
    <glyph glyph-name="uni01AC" unicode="&#x1ac;" 
d="M282 528h-212q-58 0 -58 -28q10 2 22 1q31 -8 31 -40q-1 -27 -21 -33q-7 -2 -15 0q-38 10 -39 52q0 12 3 25q10 45 52 55q6 2 10 2h491l10 -204h-35l-10 170h-193v-494h149v-34h-333v34h148v494z" />
    <glyph glyph-name="uni01AD" unicode="&#x1ad;" 
d="M169 426h251v-34h-252v-251q0 -53 54 -92q43 -31 94 -31q72 0 187 115l28 -24q-75 -83 -155 -115q-33 -13 -60 -13q-78 0 -136 56q-48 46 -48 104v251h-79v34h78v166q0 52 49 80q25 15 54 15q56 0 65 -40q1 -5 1 -10q1 -24 -25 -27q-28 -4 -42 19q-5 9 -5 21q0 10 6 21
q-19 8 -48 -26q-17 -20 -17 -32v-187z" />
    <glyph glyph-name="uni01AE" unicode="&#x1ae;" 
d="M318 528v-562q0 -18 28 -36q22 -15 37 -9q-7 10 -7 21q0 32 31 39q27 7 38 -12q3 -6 3 -14q0 -40 -46 -48q-9 -2 -20 -2q-70 0 -94 56q-7 18 -7 39v528h-193l-10 -170h-34l11 204h491l12 -204h-35l-12 170h-193z" />
    <glyph glyph-name="Uhorn" unicode="&#x1af;" horiz-adv-x="786" 
d="M717 477q-15 -53 -70 -80q-16 -7 -32 -10l-13 16q24 6 40 30q12 19 2 33q-28 17 -23 53q6 36 39 44q8 2 18 1q40 -2 49 -39q6 -27 -10 -48zM572 528h-71v-349q0 -60 -52 -118q-62 -68 -149 -68q-91 0 -155 78q-46 56 -46 108v349h-71v34h204v-34h-100v-349q0 -39 44 -89
q56 -63 123 -63q78 0 133 69q35 44 35 83v349h-99v34h204v-34z" />
    <glyph glyph-name="uhorn" unicode="&#x1b0;" horiz-adv-x="786" 
d="M635 340q-15 -53 -70 -80q-16 -7 -32 -10l-13 16q24 6 40 30q12 19 2 33q-28 17 -23 53q6 36 39 44q8 2 18 1q40 -2 49 -39q6 -27 -10 -48zM453 51q-33 -18 -39 -21q-80 -43 -137 -43q-68 0 -125 55q-45 44 -45 89v261h-85v34h122l-1 -294v-1q0 -35 45 -72q43 -35 89 -35
q66 0 171 68q3 1 5 3v297h-85v34h122v-391h86v-35h-123v51z" />
    <glyph glyph-name="uni01B1" unicode="&#x1b1;" 
d="M410 537v-18q0 -49 47 -122q49 -75 60 -107q13 -35 13 -69q0 -122 -91 -182q-58 -39 -139 -39q-123 0 -187 83q-43 57 -43 138q0 62 53 144q46 72 55 95q13 30 13 59v18h-82l-29 -79l-32 12l37 101h143v-52q0 -59 -51 -138q-47 -72 -57 -97q-13 -32 -13 -63
q0 -110 85 -158q46 -26 108 -26q116 0 166 81q27 44 27 103q0 53 -49 128q-48 73 -59 102q-13 34 -13 68v52h143l37 -101l-32 -12l-29 79h-81z" />
    <glyph glyph-name="uni01B2" unicode="&#x1b2;" 
d="M572 528h-71v-349q0 -60 -52 -118q-62 -68 -149 -68q-91 0 -155 78q-46 56 -46 108v349h-71v34h204v-34h-100v-349q0 -39 44 -89q56 -63 123 -63q78 0 133 69q35 44 35 83v349h-99v34h204v-34z" />
    <glyph glyph-name="uni01B3" unicode="&#x1b3;" 
d="M103 515q-15 22 -37 25q-49 0 -50 -23v-5q9 3 21 1q31 -8 31 -40q0 -27 -20 -33q-7 -2 -15 0q-38 10 -40 53q0 12 3 24q11 45 79 45q39 0 63 -33l162 -217l160 216h-60v34h141v-34h-35l-189 -255v-239h58v-34h-152v34h57v239z" />
    <glyph glyph-name="uni01B4" unicode="&#x1b4;" 
d="M300 42l173 350h-74v34h191v-34h-76l-260 -526h30v-34h-284v34h213l66 134l-187 379q-6 14 -30 23q-4 2 -7 2q-49 0 -50 -23v-5q9 3 21 1q31 -8 31 -40q0 -27 -20 -33q-7 -2 -15 0q-38 10 -40 53q0 12 3 24q11 45 79 45q35 0 56 -23q4 -5 7 -10z" />
    <glyph glyph-name="uni01B5" unicode="&#x1b5;" 
d="M432 34l11 156h35l-14 -190h-339v20l151 266h-110v34h129l117 208h-248l-7 -153h-35l9 187h331v-23l-124 -219h104v-34h-124l-142 -252h256z" />
    <glyph glyph-name="uni01B6" unicode="&#x1b6;" 
d="M499 392l-133 -137h96v-34h-129l-182 -187h332v36h34v-70h-418v34l182 187h-104v34h137l133 137h-330v-36h-34v70h416v-34z" />
    <glyph glyph-name="uni01B7" unicode="&#x1b7;" 
d="M194 346v33l193 153h-223v-32h-30v62h299v-30l-193 -153h26q94 0 154 -68q46 -52 46 -121q0 -90 -73 -146q-58 -44 -135 -44q-64 0 -115 32q-3 3 -7 5l17 30q52 -34 105 -34q86 0 139 61q36 43 36 96q0 75 -63 122q-46 34 -104 34h-72z" />
    <glyph glyph-name="uni01B8" unicode="&#x1b8;" 
d="M338 346h-73q-82 0 -132 -61q-35 -42 -35 -95q0 -74 64 -121q49 -36 111 -36q55 0 105 34l18 -30q-63 -36 -123 -37q-101 0 -162 70q-45 52 -45 120q0 88 71 144q55 45 128 45h27l-193 153v30h299v-62h-30v32h-223l193 -153v-33z" />
    <glyph glyph-name="uni01B9" unicode="&#x1b9;" 
d="M352 181h-82q-90 0 -146 -66q-41 -47 -41 -109q0 -82 70 -135q54 -41 126 -41q61 0 118 38l20 -33q-59 -39 -124 -42h-14q-111 0 -180 76q-53 58 -53 137q0 97 77 160q63 52 147 52q1 0 30 1l-217 173v34h336v-70h-34v36h-250l217 -173v-38z" />
    <glyph glyph-name="uni01BA" unicode="&#x1ba;" 
d="M209 219h30q94 0 146 -43q33 -27 33 -65q0 -74 -90 -105q-17 -6 -116 -29q-85 -19 -103 -52q-6 -12 -6 -27q0 -50 71 -71q32 -9 71 -9q75 0 119 53q4 4 7 9l14 22h34q-15 -16 -23 -47q-1 -6 -1 -9q0 -15 10 -39l14 -33h-34l-15 35q-3 11 -12 6q-49 -33 -113 -33
q-91 0 -144 46q-35 30 -35 70q0 68 86 98q14 5 114 28q88 21 107 56q8 14 8 31q0 50 -83 66q-27 5 -59 5h-82v37l217 173h-250v-36h-34v70h336v-34z" />
    <glyph glyph-name="uni01BB" unicode="&#x1bb;" 
d="M243 324h142l8 7l1 1q42 42 42 97q0 58 -61 84q-30 13 -69 13q-109 0 -135 -104q-7 -28 -7 -60h-37v47q48 149 184 153q86 0 132 -52q30 -33 30 -81q0 -61 -36 -105h91v-34h-126q-14 -11 -93 -63l-75 -47q-57 -42 -57 -100v-46h262v89h34v-123h-333v80q0 77 85 139
q7 5 96 60q10 6 18 11h-96v34z" />
    <glyph glyph-name="uni01BC" unicode="&#x1bc;" 
d="M210 525v-179h116q117 0 164 -77q23 -38 23 -90q0 -99 -91 -150q-55 -30 -122 -30q-108 0 -205 70l-8 6l22 30q82 -62 167 -68q12 -1 24 -1q93 0 144 57q32 37 32 86q0 97 -90 122q-27 8 -60 8h-153v216h-79v37h419v-37h-303z" />
    <glyph glyph-name="uni01BD" unicode="&#x1bd;" 
d="M210 389v-117h116q165 0 185 -103q2 -13 2 -27q0 -79 -91 -119q-55 -24 -122 -24q-108 0 -205 70l-8 6l22 30q82 -62 167 -68q12 -1 24 -1q101 0 150 49q26 25 26 57q0 93 -150 93h-153v154h-79v37h419v-37h-303z" />
    <glyph glyph-name="uni01BE" unicode="&#x1be;" 
d="M286 568h37v-96h73v-34h-73v-75q0 -31 48 -72q55 -46 67 -60q39 -44 39 -94q0 -79 -83 -117q-44 -20 -99 -20q-94 0 -143 49q-29 30 -29 70v18h37v-18q0 -48 66 -70q32 -11 70 -11q82 0 122 44q22 24 22 55q0 50 -58 100l-58 49q-38 38 -38 77v75h-73v34h73v96z" />
    <glyph glyph-name="uni01BF" unicode="&#x1bf;" 
d="M156 -113v-33h123v-34h-239v34h79v538h-80v34h117v-95q55 78 151 93q18 3 36 3q103 0 170 -74q55 -60 55 -140q0 -102 -127 -178q-34 -20 -162 -78q-88 -40 -123 -70zM156 -76q29 24 144 78q136 64 184 111q47 47 47 100q0 83 -68 136q-51 41 -119 41q-86 0 -143 -62
q-45 -49 -45 -115v-289z" />
    <glyph glyph-name="uni01C0" unicode="&#x1c0;" 
d="M306 562v-705h-37v705h37z" />
    <glyph glyph-name="uni01C1" unicode="&#x1c1;" 
d="M253 562v-705h-37v705h37zM373 562v-705h-37v705h37z" />
    <glyph glyph-name="uni01C2" unicode="&#x1c2;" 
d="M306 562v-214h99v-34h-99v-61h99v-34h-99v-362h-37v362h-91v34h91v61h-91v34h91v214h37z" />
    <glyph glyph-name="uni01C3" unicode="&#x1c3;" 
d="M297 610l-10 -454h-37l-10 454h57zM203 38q0 35 36 50q13 6 29 6q40 0 58 -32q6 -11 6 -24q0 -34 -35 -50q-14 -6 -29 -6q-41 0 -59 32q-6 11 -6 24z" />
    <glyph glyph-name="uni01C4" unicode="&#x1c4;" 
d="M93 34h52q93 0 108 185q2 31 2 65q0 131 -24 184q-27 60 -86 60h-52v-494zM25 34h31v494h-31v34h120q138 0 145 -234v-42q0 -181 -53 -244q-35 -42 -92 -42h-120v34zM544 34l11 156h34l-14 -190h-253v20l202 508h-164l-7 -153h-34l9 187h245v-23l-201 -505h172zM640 779
l-171 -172h-30l-173 172l20 20l171 -133l163 133z" />
    <glyph glyph-name="uni01C5" unicode="&#x1c5;" 
d="M571 392l-182 -358h166v36h34v-70h-252v34l182 358h-164v-36h-34v70h250v-34zM634 684l-171 -173h-29l-173 173l20 20l170 -133l163 133zM93 34h52q93 0 108 185q2 31 2 65q0 131 -24 184q-27 60 -86 60h-52v-494zM25 34h31v494h-31v34h120q138 0 145 -234v-42
q0 -181 -53 -244q-35 -42 -92 -42h-120v34z" />
    <glyph glyph-name="uni01C6" unicode="&#x1c6;" 
d="M571 392l-186 -358h170v36h34v-70h-252v34l186 358h-168v-36h-34v70h250v-34zM634 684l-171 -173h-29l-173 173l20 20l170 -133l163 133zM135 428q47 0 79 -50q2 -3 5 -8v221l-122 -26v34l159 33v-419v-179h34v-34h-71v56q-35 -58 -84 -58q-62 0 -97 84q-25 59 -25 131
q0 160 72 202q22 13 50 13zM135 391q-73 0 -83 -134q-2 -21 -2 -44q0 -105 46 -157q20 -21 39 -21q32 0 59 46q25 44 25 105v54q0 86 -37 128q-20 23 -47 23z" />
    <glyph glyph-name="uni01C7" unicode="&#x1c7;" 
d="M393 227q0 -96 4 -121q13 -70 64 -70q69 0 69 107v385h-78v34h184v-34h-69v-385q0 -86 -31 -118q-26 -26 -74 -26q-106 0 -106 144v84h37zM96 528h-65v34h167v-34h-65v-494h109l21 189h34l-20 -223h-247v34h66v494z" />
    <glyph glyph-name="uni01C8" unicode="&#x1c8;" 
d="M96 528h-65v34h167v-34h-65v-494h163l21 189h34l-20 -223h-301v34h66v494zM543 562v-97h-74v97h74zM293 -134q33 -23 98 -26h11q49 0 83 56q22 37 22 73v423h-131v34h168v-457q0 -62 -43 -115q-42 -51 -99 -51q-80 0 -125 30z" />
    <glyph glyph-name="uni01C9" unicode="&#x1c9;" 
d="M552 562v-97h-74v97h74zM302 -134q33 -23 98 -26h11q48 0 82 56q22 37 22 73v423h-131v34h169v-457q0 -60 -43 -114q-42 -52 -99 -52q-81 0 -125 30zM218 589l-162 -40v34l199 49v-598h216v-34h-415v34h162v555z" />
    <glyph glyph-name="uni01CA" unicode="&#x1ca;" 
d="M282 100v428h-78v34h161v-34h-46v-535h-37l-188 509h-2v-468h81v-34h-164v34h46v494h-46v34h106zM393 227q0 -96 4 -121q13 -70 64 -70q69 0 69 107v385h-78v34h184v-34h-69v-385q0 -86 -31 -118q-26 -26 -74 -26q-106 0 -106 144v84h37z" />
    <glyph glyph-name="uni01CB" unicode="&#x1cb;" 
d="M312 -134q33 -23 98 -26h11q49 0 83 56q22 37 22 73v423h-131v34h169v-457q0 -60 -43 -114q-42 -52 -99 -52q-82 0 -126 30zM563 562v-97h-75v97h75zM282 100v428h-78v34h161v-34h-46v-535h-37l-188 509h-2v-468h81v-34h-164v34h46v494h-46v34h106z" />
    <glyph glyph-name="uni01CC" unicode="&#x1cc;" 
d="M312 -134q33 -23 98 -26h11q49 0 83 56q22 37 22 73v423h-131v34h169v-457q0 -60 -43 -114q-42 -52 -99 -52q-82 0 -126 30zM563 562v-97h-75v97h75zM145 376q27 40 43 51q21 13 53 13q78 0 88 -97q2 -19 2 -47v-262h50v-34h-135v34h48v262q0 65 -12 85q-13 22 -41 22
q-34 0 -54 -25l-39 -48q-1 -2 -3 -4v-292h54v-34h-158v34h67v358h-67v34h104v-50zM563 562h-75v-97h75v97z" />
    <glyph glyph-name="uni01CD" unicode="&#x1cd;" 
d="M428 745l-120 -121h-21l-121 121l14 14l119 -93l115 93zM226 283h152l-76 238zM361 34h96l-69 212h-172l-69 -212h95v-34h-213v34h79l158 494h-144v34h207l167 -528h75v-34h-210v34z" />
    <glyph glyph-name="uni01CE" unicode="&#x1ce;" 
d="M368 618l-120 -121h-21l-121 121l14 14l119 -93l115 93zM409 239q-105 27 -186 27q-75 0 -118 -51q-27 -32 -27 -72q0 -64 69 -99q42 -21 92 -21q80 0 133 48q17 15 37 39v129zM446 34h93v-34h-130v54q-62 -62 -147 -67q-11 -1 -23 -1q-89 0 -149 52q-49 43 -49 105
q0 83 75 129q48 31 107 31q84 0 186 -26v17q0 43 -57 76q-51 30 -115 30q-63 0 -160 -43l-14 34l59 23q71 23 115 23q98 0 162 -53q47 -39 47 -90v-260z" />
    <glyph glyph-name="uni01CF" unicode="&#x1cf;" 
d="M431 745l-120 -121h-21l-121 121l14 14l119 -93l115 93zM285 528h-195v34h421v-34h-190v-494h189v-34h-421v34h196v494z" />
    <glyph glyph-name="uni01D0" unicode="&#x1d0;" 
d="M438 608l-120 -121h-21l-121 121l14 14l119 -93l115 93zM289 392h-186v34h223v-392h173v-34h-396v34h186v358z" />
    <glyph glyph-name="uni01D1" unicode="&#x1d1;" 
d="M431 745l-120 -121h-21l-121 121l14 14l119 -93l115 93zM300 564q103 0 173 -89q65 -82 65 -194q0 -124 -77 -208q-68 -75 -161 -75q-103 0 -173 89q-65 82 -65 194q0 124 77 208q68 75 161 75zM300 527q-86 0 -146 -77q-55 -71 -55 -169q0 -116 73 -190q56 -56 128 -56
q86 0 146 77q55 71 55 169q0 116 -73 190q-56 56 -128 56z" />
    <glyph glyph-name="uni01D2" unicode="&#x1d2;" 
d="M431 608l-120 -121h-21l-121 121l14 14l119 -93l115 93zM300 427q101 0 169 -72q56 -61 56 -142q0 -96 -76 -160q-64 -54 -149 -54q-101 0 -169 72q-56 61 -56 142q0 96 76 160q64 54 149 54zM300 390q-88 0 -145 -65q-43 -49 -43 -112q0 -83 67 -136q52 -41 121 -41
q95 0 149 67q39 47 39 110q0 89 -73 141q-50 36 -115 36z" />
    <glyph glyph-name="uni01D3" unicode="&#x1d3;" 
d="M431 745l-120 -121h-21l-121 121l14 14l119 -93l115 93zM572 528h-71v-349q0 -60 -52 -118q-62 -68 -149 -68q-91 0 -155 78q-46 56 -46 108v349h-71v34h204v-34h-100v-349q0 -39 44 -89q56 -63 123 -63q78 0 133 69q35 44 35 83v349h-99v34h204v-34z" />
    <glyph glyph-name="uni01D4" unicode="&#x1d4;" 
d="M387 608l-120 -121h-21l-121 121l14 14l119 -93l115 93zM453 51q-33 -18 -39 -21q-80 -43 -137 -43q-68 0 -125 55q-45 44 -45 89v261h-85v34h122l-1 -294v-1q0 -35 45 -72q43 -35 89 -35q66 0 171 68q3 1 5 3v297h-85v34h122v-391h86v-35h-123v51z" />
    <glyph glyph-name="uni01D5" unicode="&#x1d5;" 
d="M127 794h347v-34h-347v34zM183 662q0 27 25 36q6 2 13 2q27 0 36 -25q2 -6 2 -13q0 -27 -25 -36q-6 -2 -13 -2q-27 0 -36 25q-2 6 -2 13zM340 662q0 27 25 36q6 2 13 2q27 0 36 -25q2 -6 2 -13q0 -27 -25 -36q-6 -2 -13 -2q-27 0 -36 25q-2 6 -2 13zM572 528h-71v-349
q0 -60 -52 -118q-62 -68 -149 -68q-91 0 -155 78q-46 56 -46 108v349h-71v34h204v-34h-100v-349q0 -39 44 -89q56 -63 123 -63q78 0 133 69q35 44 35 83v349h-99v34h204v-34z" />
    <glyph glyph-name="uni01D6" unicode="&#x1d6;" 
d="M83 657h347v-34h-347v34zM139 525q0 27 25 36q6 2 13 2q27 0 36 -25q2 -6 2 -13q0 -27 -25 -36q-6 -2 -13 -2q-27 0 -36 25q-2 6 -2 13zM296 525q0 27 25 36q6 2 13 2q27 0 36 -25q2 -6 2 -13q0 -27 -25 -36q-6 -2 -13 -2q-27 0 -36 25q-2 6 -2 13zM453 51
q-33 -18 -39 -21q-80 -43 -137 -43q-68 0 -125 55q-45 44 -45 89v261h-85v34h122l-1 -294v-1q0 -35 45 -72q43 -35 89 -35q66 0 171 68q3 1 5 3v297h-85v34h122v-391h86v-35h-123v51z" />
    <glyph glyph-name="uni01D7" unicode="&#x1d7;" 
d="M492 935l-169 -175h-46l122 175h93zM183 662q0 27 25 36q6 2 13 2q27 0 36 -25q2 -6 2 -13q0 -27 -25 -36q-6 -2 -13 -2q-27 0 -36 25q-2 6 -2 13zM340 662q0 27 25 36q6 2 13 2q27 0 36 -25q2 -6 2 -13q0 -27 -25 -36q-6 -2 -13 -2q-27 0 -36 25q-2 6 -2 13zM572 528
h-71v-349q0 -60 -52 -118q-62 -68 -149 -68q-91 0 -155 78q-46 56 -46 108v349h-71v34h204v-34h-100v-349q0 -39 44 -89q56 -63 123 -63q78 0 133 69q35 44 35 83v349h-99v34h204v-34z" />
    <glyph glyph-name="uni01D8" unicode="&#x1d8;" 
d="M448 798l-169 -175h-46l122 175h93zM139 525q0 27 25 36q6 2 13 2q27 0 36 -25q2 -6 2 -13q0 -27 -25 -36q-6 -2 -13 -2q-27 0 -36 25q-2 6 -2 13zM296 525q0 27 25 36q6 2 13 2q27 0 36 -25q2 -6 2 -13q0 -27 -25 -36q-6 -2 -13 -2q-27 0 -36 25q-2 6 -2 13zM453 51
q-33 -18 -39 -21q-80 -43 -137 -43q-68 0 -125 55q-45 44 -45 89v261h-85v34h122l-1 -294v-1q0 -35 45 -72q43 -35 89 -35q66 0 171 68q3 1 5 3v297h-85v34h122v-391h86v-35h-123v51z" />
    <glyph glyph-name="uni01D9" unicode="&#x1d9;" 
d="M431 881l-120 -121h-21l-121 121l14 14l119 -93l115 93zM183 662q0 27 25 36q6 2 13 2q27 0 36 -25q2 -6 2 -13q0 -27 -25 -36q-6 -2 -13 -2q-27 0 -36 25q-2 6 -2 13zM340 662q0 27 25 36q6 2 13 2q27 0 36 -25q2 -6 2 -13q0 -27 -25 -36q-6 -2 -13 -2q-27 0 -36 25
q-2 6 -2 13zM572 528h-71v-349q0 -60 -52 -118q-62 -68 -149 -68q-91 0 -155 78q-46 56 -46 108v349h-71v34h204v-34h-100v-349q0 -39 44 -89q56 -63 123 -63q78 0 133 69q35 44 35 83v349h-99v34h204v-34z" />
    <glyph glyph-name="uni01DA" unicode="&#x1da;" 
d="M387 744l-120 -121h-21l-121 121l14 14l119 -93l115 93zM139 525q0 27 25 36q6 2 13 2q27 0 36 -25q2 -6 2 -13q0 -27 -25 -36q-6 -2 -13 -2q-27 0 -36 25q-2 6 -2 13zM296 525q0 27 25 36q6 2 13 2q27 0 36 -25q2 -6 2 -13q0 -27 -25 -36q-6 -2 -13 -2q-27 0 -36 25
q-2 6 -2 13zM453 51q-33 -18 -39 -21q-80 -43 -137 -43q-68 0 -125 55q-45 44 -45 89v261h-85v34h122l-1 -294v-1q0 -35 45 -72q43 -35 89 -35q66 0 171 68q3 1 5 3v297h-85v34h122v-391h86v-35h-123v51z" />
    <glyph glyph-name="uni01DB" unicode="&#x1db;" 
d="M109 935h93l122 -175h-47zM183 662q0 27 25 36q6 2 13 2q27 0 36 -25q2 -6 2 -13q0 -27 -25 -36q-6 -2 -13 -2q-27 0 -36 25q-2 6 -2 13zM340 662q0 27 25 36q6 2 13 2q27 0 36 -25q2 -6 2 -13q0 -27 -25 -36q-6 -2 -13 -2q-27 0 -36 25q-2 6 -2 13zM572 528h-71v-349
q0 -60 -52 -118q-62 -68 -149 -68q-91 0 -155 78q-46 56 -46 108v349h-71v34h204v-34h-100v-349q0 -39 44 -89q56 -63 123 -63q78 0 133 69q35 44 35 83v349h-99v34h204v-34z" />
    <glyph glyph-name="uni01DC" unicode="&#x1dc;" 
d="M64 798h93l122 -175h-47zM139 525q0 27 25 36q6 2 13 2q27 0 36 -25q2 -6 2 -13q0 -27 -25 -36q-6 -2 -13 -2q-27 0 -36 25q-2 6 -2 13zM296 525q0 27 25 36q6 2 13 2q27 0 36 -25q2 -6 2 -13q0 -27 -25 -36q-6 -2 -13 -2q-27 0 -36 25q-2 6 -2 13zM453 51
q-33 -18 -39 -21q-80 -43 -137 -43q-68 0 -125 55q-45 44 -45 89v261h-85v34h122l-1 -294v-1q0 -35 45 -72q43 -35 89 -35q66 0 171 68q3 1 5 3v297h-85v34h122v-391h86v-35h-123v51z" />
    <glyph glyph-name="uni01DD" unicode="&#x1dd;" 
d="M120 178q16 -77 87 -118q45 -25 97 -25q90 0 146 66q29 34 38 77h-368zM80 212h412q0 80 -68 133q-54 43 -125 43q-79 0 -152 -48q-7 -4 -12 -8l-24 29q62 52 157 62q16 2 31 2q101 0 171 -71q59 -61 59 -142q0 -96 -76 -160q-64 -54 -149 -54q-103 0 -170 73
q-54 60 -54 141z" />
    <glyph glyph-name="uni01DE" unicode="&#x1de;" 
d="M130 794h347v-34h-347v34zM184 662q0 27 25 36q6 2 13 2q27 0 36 -25q2 -6 2 -13q0 -27 -25 -36q-6 -2 -13 -2q-27 0 -36 25q-2 6 -2 13zM341 662q0 27 25 36q6 2 13 2q27 0 36 -25q2 -6 2 -13q0 -27 -25 -36q-6 -2 -13 -2q-27 0 -36 25q-2 6 -2 13zM226 283h152l-76 238
zM361 34h96l-69 212h-172l-69 -212h95v-34h-213v34h79l158 494h-144v34h207l167 -528h75v-34h-210v34z" />
    <glyph glyph-name="uni01DF" unicode="&#x1df;" 
d="M63 667h347v-34h-347v34zM120 535q0 27 25 36q6 2 13 2q27 0 36 -25q2 -6 2 -13q0 -27 -25 -36q-6 -2 -13 -2q-27 0 -36 25q-2 6 -2 13zM277 535q0 27 25 36q6 2 13 2q27 0 36 -25q2 -6 2 -13q0 -27 -25 -36q-6 -2 -13 -2q-27 0 -36 25q-2 6 -2 13zM409 239
q-105 27 -186 27q-75 0 -118 -51q-27 -32 -27 -72q0 -64 69 -99q42 -21 92 -21q80 0 133 48q17 15 37 39v129zM446 34h93v-34h-130v54q-62 -62 -147 -67q-11 -1 -23 -1q-89 0 -149 52q-49 43 -49 105q0 83 75 129q48 31 107 31q84 0 186 -26v17q0 43 -57 76q-51 30 -115 30
q-63 0 -160 -43l-14 34l59 23q71 23 115 23q98 0 162 -53q47 -39 47 -90v-260z" />
    <glyph glyph-name="uni01E0" unicode="&#x1e0;" 
d="M127 813h347v-34h-347v34zM337 721v-97h-74v97h74zM226 283h152l-76 238zM361 34h96l-69 212h-172l-69 -212h95v-34h-213v34h79l158 494h-144v34h207l167 -528h75v-34h-210v34z" />
    <glyph glyph-name="uni01E1" unicode="&#x1e1;" 
d="M74 677h347v-34h-347v34zM274 594v-97h-74v97h74zM409 239q-105 27 -186 27q-75 0 -118 -51q-27 -32 -27 -72q0 -64 69 -99q42 -21 92 -21q80 0 133 48q17 15 37 39v129zM446 34h93v-34h-130v54q-62 -62 -147 -67q-11 -1 -23 -1q-89 0 -149 52q-49 43 -49 105
q0 83 75 129q48 31 107 31q84 0 186 -26v17q0 43 -57 76q-51 30 -115 30q-63 0 -160 -43l-14 34l59 23q71 23 115 23q98 0 162 -53q47 -39 47 -90v-260z" />
    <glyph glyph-name="uni01E2" unicode="&#x1e2;" 
d="M167 658h347v-34h-347v34zM312 283v238l-83 -238h83zM486 402v-143h-34v62h-103v-287h182l12 87h34l-12 -121h-253v246h-96l-74 -212h95v-34h-213v34h79l173 494h-159v34h448l9 -115h-34l-9 81h-182v-173h103v47h34z" />
    <glyph glyph-name="uni01E3" unicode="&#x1e3;" 
d="M126 531h347v-34h-347v34zM542 247q-7 90 -38 119q-25 24 -71 24q-94 0 -110 -119q-1 -11 -2 -24h221zM284 239l-65 21q-28 6 -59 6q-66 0 -89 -70q-8 -25 -8 -53q0 -62 45 -97q28 -23 67 -23q44 0 78 43q9 12 31 44v129zM310 79q-39 -53 -54 -66q-32 -27 -81 -27
q-96 0 -136 71q-20 36 -20 86q0 109 75 146q29 14 66 14q43 0 101 -19q13 -4 23 -7v17q0 106 -111 106q-50 0 -105 -34q-5 -3 -13 -8l-14 34q26 22 88 38q26 7 44 7q109 0 138 -83q37 73 122 73q116 0 141 -123q7 -38 7 -91h-260q0 -143 84 -170q17 -6 38 -6q50 0 85 40
q-13 -15 17 20l23 -28q-52 -63 -113 -68q-6 -1 -12 -1q-95 0 -133 79z" />
    <glyph glyph-name="uni01E4" unicode="&#x1e4;" 
d="M318 564q81 0 123 -39q3 -2 5 -5q10 -8 12 0q3 27 12 41h34q-13 -36 -13 -69q0 -18 19 -66h-35q-17 58 -87 87q-35 14 -70 14q-86 0 -146 -77q-55 -71 -55 -169q0 -121 70 -193q52 -53 120 -53q92 0 142 84q12 20 20 43h-97v34h106q5 23 7 52h-110v34h145v-34
q-1 -26 -6 -52h86v-34h-93q-33 -112 -123 -149q-36 -15 -77 -15q-106 0 -172 95q-55 79 -55 188q0 124 77 208q68 75 161 75z" />
    <glyph glyph-name="uni01E5" unicode="&#x1e5;" 
d="M269 390q-90 0 -147 -66q-41 -49 -41 -111q0 -83 68 -136q51 -41 119 -41q90 0 147 66q41 49 41 111q0 83 -68 136q-51 41 -119 41zM575 426v-34h-82v-423q0 -26 -16 -55l68 -36l-16 -30l-73 39q-54 -60 -142 -79q-25 -5 -48 -5q-94 0 -193 58l16 33q46 -32 126 -48
q28 -6 50 -6q69 0 136 49q11 8 20 16l-69 37l16 30l76 -40q12 21 12 37v127q-52 -75 -143 -93q-22 -4 -44 -4q-103 0 -170 74q-55 60 -55 140q0 97 76 161q63 53 148 53q102 0 170 -74q10 -11 18 -23v96h119z" />
    <glyph glyph-name="Gcaron" unicode="&#x1e6;" 
d="M449 745l-120 -121h-21l-121 121l14 14l119 -93l115 93zM318 564q81 0 123 -39q3 -2 5 -5q10 -8 12 0q3 28 12 42h34q-13 -36 -13 -70q0 -18 19 -66h-35q-17 58 -87 87q-35 14 -70 14q-86 0 -146 -77q-55 -71 -55 -169q0 -121 70 -193q52 -53 120 -53q94 0 145 88
q30 54 33 125h-110v34h145v-34q-5 -131 -81 -200q-54 -50 -132 -50q-106 0 -172 95q-55 79 -55 188q0 124 77 208q68 75 161 75z" />
    <glyph glyph-name="gcaron" unicode="&#x1e7;" 
d="M399 608l-120 -121h-21l-121 121l14 14l119 -93l115 93zM269 390q-90 0 -147 -66q-41 -49 -41 -111q0 -83 68 -136q51 -41 119 -41q90 0 147 66q41 49 41 111q0 83 -68 136q-51 41 -119 41zM575 426v-34h-82v-423q0 -63 -75 -116q-72 -50 -152 -50q-94 0 -193 58l16 33
q46 -32 126 -48q28 -6 50 -6q68 0 135 48q56 41 56 81v127q-52 -75 -143 -93q-22 -4 -44 -4q-103 0 -170 74q-55 60 -55 140q0 97 76 161q63 53 148 53q102 0 170 -74q10 -11 18 -23v96h119z" />
    <glyph glyph-name="uni01E8" unicode="&#x1e8;" 
d="M408 745l-120 -121h-21l-121 121l14 14l119 -93l115 93zM314 562h209v-34h-121q-90 -136 -199 -239q94 -26 166 -125q35 -46 81 -130h118v-34h-139q-83 150 -143 203q-50 44 -116 56q-12 -10 -20 -16v-209h91v-34h-209v34h82v494h-82v34h209v-34h-91v-237q107 93 206 237
h-42v34z" />
    <glyph glyph-name="uni01E9" unicode="&#x1e9;" 
d="M323 813l-120 -121h-21l-121 121l14 14l119 -93l115 93zM350 34h35l-161 198l-32 -27v-205h-137v34h100v551l-100 -36v34l137 49v-378l165 138h-33v34h170v-34h-80l-162 -136l181 -222h94v-34h-177v34z" />
    <glyph glyph-name="uni01EA" unicode="&#x1ea;" 
d="M279 4h42q-38 -6 -48 -49q-4 -15 -2 -31q5 -35 65 -45q53 -9 85 35l20 -25q-35 -56 -100 -55q-62 1 -93 42q-17 21 -17 48q0 54 48 80zM300 564q103 0 173 -89q65 -82 65 -194q0 -124 -77 -208q-68 -75 -161 -75q-103 0 -173 89q-65 82 -65 194q0 124 77 208
q68 75 161 75zM300 527q-86 0 -146 -77q-55 -71 -55 -169q0 -116 73 -190q56 -56 128 -56q86 0 146 77q55 71 55 169q0 116 -73 190q-56 56 -128 56z" />
    <glyph glyph-name="uni01EB" unicode="&#x1eb;" 
d="M279 5h42q-38 -6 -48 -49q-4 -15 -2 -31q5 -35 65 -45q53 -9 85 35l20 -25q-35 -56 -100 -55q-62 1 -93 42q-17 21 -17 48q0 54 48 80zM300 427q101 0 169 -72q56 -61 56 -142q0 -96 -76 -160q-64 -54 -149 -54q-101 0 -169 72q-56 61 -56 142q0 96 76 160q64 54 149 54z
M300 390q-88 0 -145 -65q-43 -49 -43 -112q0 -83 67 -136q52 -41 121 -41q95 0 149 67q39 47 39 110q0 89 -73 141q-50 36 -115 36z" />
    <glyph glyph-name="uni01EC" unicode="&#x1ec;" 
d="M127 658h347v-34h-347v34zM279 4h42q-38 -6 -48 -49q-4 -15 -2 -31q5 -35 65 -45q53 -9 85 35l20 -25q-35 -56 -100 -55q-62 1 -93 42q-17 21 -17 48q0 54 48 80zM300 564q103 0 173 -89q65 -82 65 -194q0 -124 -77 -208q-68 -75 -161 -75q-103 0 -173 89q-65 82 -65 194
q0 124 77 208q68 75 161 75zM300 527q-86 0 -146 -77q-55 -71 -55 -169q0 -116 73 -190q56 -56 128 -56q86 0 146 77q55 71 55 169q0 116 -73 190q-56 56 -128 56z" />
    <glyph glyph-name="uni01ED" unicode="&#x1ed;" 
d="M127 521h347v-34h-347v34zM279 5h42q-38 -6 -48 -49q-4 -15 -2 -31q5 -35 65 -45q53 -9 85 35l20 -25q-35 -56 -100 -55q-62 1 -93 42q-17 21 -17 48q0 54 48 80zM300 427q101 0 169 -72q56 -61 56 -142q0 -96 -76 -160q-64 -54 -149 -54q-101 0 -169 72q-56 61 -56 142
q0 96 76 160q64 54 149 54zM300 390q-88 0 -145 -65q-43 -49 -43 -112q0 -83 67 -136q52 -41 121 -41q95 0 149 67q39 47 39 110q0 89 -73 141q-50 36 -115 36z" />
    <glyph glyph-name="uni01EE" unicode="&#x1ee;" 
d="M414 745l-120 -121h-21l-121 121l14 14l119 -93l115 93zM194 346v33l193 153h-223v-32h-30v62h299v-30l-193 -153h26q94 0 154 -68q46 -52 46 -121q0 -90 -73 -146q-58 -44 -135 -44q-64 0 -115 32q-3 3 -7 5l17 30q52 -34 105 -34q86 0 139 61q36 43 36 96q0 75 -63 122
q-46 34 -104 34h-72z" />
    <glyph glyph-name="uni01EF" unicode="&#x1ef;" 
d="M388 608l-120 -121h-21l-121 121l14 14l119 -93l115 93zM156 181v38l217 173h-250v-36h-34v70h336v-34l-217 -173l29 -1h1q97 0 165 -70q59 -61 59 -142q0 -98 -79 -161q-65 -52 -154 -52q-70 0 -126 34l-12 8l20 33q57 -38 118 -38q94 0 153 66q43 48 43 110
q0 83 -68 135q-51 40 -119 40h-82z" />
    <glyph glyph-name="uni01F0" unicode="&#x1f0;" 
d="M439 607l-120 -121h-21l-121 121l14 14l119 -93l115 93zM76 -134q33 -23 98 -26h11q49 0 83 56q22 37 22 73v423h-131v34h168v-457q0 -62 -43 -115q-42 -51 -99 -51q-81 0 -125 30z" />
    <glyph glyph-name="uni01F1" unicode="&#x1f1;" 
d="M93 34h52q93 0 108 185q2 31 2 65q0 131 -24 184q-27 60 -86 60h-52v-494zM25 34h31v494h-31v34h120q138 0 145 -234v-42q0 -181 -53 -244q-35 -42 -92 -42h-120v34zM544 34l11 156h34l-14 -190h-253v20l202 508h-164l-7 -153h-34l9 187h245v-23l-201 -505h172z" />
    <glyph glyph-name="uni01F2" unicode="&#x1f2;" 
d="M571 392l-182 -358h166v36h34v-70h-252v34l182 358h-164v-36h-34v70h250v-34zM93 34h52q93 0 108 185q2 31 2 65q0 131 -24 184q-27 60 -86 60h-52v-494zM25 34h31v494h-31v34h120q138 0 145 -234v-42q0 -181 -53 -244q-35 -42 -92 -42h-120v34z" />
    <glyph glyph-name="uni01F3" unicode="&#x1f3;" 
d="M135 428q47 0 79 -50q2 -3 5 -8v221l-122 -26v34l159 33v-419v-179h34v-34h-71v56q-35 -58 -84 -58q-62 0 -97 84q-25 59 -25 131q0 160 72 202q22 13 50 13zM135 391q-73 0 -83 -134q-2 -21 -2 -44q0 -105 46 -157q20 -21 39 -21q32 0 59 46q25 44 25 105v54
q0 86 -37 128q-20 23 -47 23zM571 392l-186 -358h170v36h34v-70h-252v34l186 358h-168v-36h-34v70h250v-34z" />
    <glyph glyph-name="uni01F4" unicode="&#x1f4;" 
d="M510 799l-169 -175h-46l122 175h93zM318 564q81 0 123 -39q3 -2 5 -5q10 -8 12 0q3 28 12 42h34q-13 -36 -13 -70q0 -18 19 -66h-35q-17 58 -87 87q-35 14 -70 14q-86 0 -146 -77q-55 -71 -55 -169q0 -121 70 -193q52 -53 120 -53q94 0 145 88q30 54 33 125h-110v34h145
v-34q-5 -131 -81 -200q-54 -50 -132 -50q-106 0 -172 95q-55 79 -55 188q0 124 77 208q68 75 161 75z" />
    <glyph glyph-name="uni01F5" unicode="&#x1f5;" 
d="M460 662l-169 -175h-46l122 175h93zM269 390q-90 0 -147 -66q-41 -49 -41 -111q0 -83 68 -136q51 -41 119 -41q90 0 147 66q41 49 41 111q0 83 -68 136q-51 41 -119 41zM575 426v-34h-82v-423q0 -63 -75 -116q-72 -50 -152 -50q-94 0 -193 58l16 33q46 -32 126 -48
q28 -6 50 -6q68 0 135 48q56 41 56 81v127q-52 -75 -143 -93q-22 -4 -44 -4q-103 0 -170 74q-55 60 -55 140q0 97 76 161q63 53 148 53q102 0 170 -74q10 -11 18 -23v96h119z" />
    <glyph glyph-name="uni01F6" unicode="&#x1f6;" 
d="M341 330h-191v-296h69v-34h-187v34h81v494h-81v34h187v-34h-69v-162h191v162h-71v34h187v-34h-79v-385q0 -73 40 -98q14 -9 33 -9q61 0 78 70q6 22 6 50v248h-85v34h123v-295q0 -90 -65 -128q-27 -16 -56 -16q-81 0 -104 88q-7 26 -7 56v187z" />
    <glyph glyph-name="uni01F7" unicode="&#x1f7;" 
d="M525 213q0 85 -66 137q-49 40 -115 40q-77 0 -136 -69q-52 -62 -52 -135v-285q202 99 284 171q85 74 85 141zM119 -139v531h-80v34h117v-114q35 62 105 95q42 20 82 20q106 0 170 -76q49 -58 49 -138q0 -136 -282 -288q-40 -21 -124 -62v-24l-116 -47v34z" />
    <glyph glyph-name="uni01F8" unicode="&#x1f8;" 
d="M108 799h93l122 -175h-47zM508 54v474h-105v34h188v-34h-46v-535h-37l-414 535h-2v-494h104v-34h-187v34h47v494h-47v34h107q0 -1 392 -508z" />
    <glyph glyph-name="uni01F9" unicode="&#x1f9;" 
d="M108 675h93l122 -175h-47zM145 376q33 18 39 21q80 43 137 43q68 0 125 -55q45 -44 45 -89v-262h85v-34h-208v34h87v262q0 35 -45 72q-43 35 -89 35q-66 0 -171 -68q-3 -1 -5 -3v-298h85v-34h-208v34h87v358h-87v34h124q-3 -14 -1 -50z" />
    <glyph glyph-name="Aringacute" unicode="&#x1fa;" 
d="M474 975l-169 -175h-46l122 175h93zM300 786q50 0 77 -43q14 -22 14 -48q0 -50 -43 -77q-22 -14 -48 -14q-50 0 -77 43q-14 22 -14 48q0 50 43 77q22 14 48 14zM300 752q-34 0 -51 -31q-6 -12 -6 -26q0 -34 31 -51q12 -6 26 -6q34 0 51 31q6 12 6 26q0 34 -31 51
q-12 6 -26 6zM226 283h152l-76 238zM361 34h96l-69 212h-172l-69 -212h95v-34h-213v34h79l158 494h-144v34h207l167 -528h75v-34h-210v34z" />
    <glyph glyph-name="aringacute" unicode="&#x1fb;" 
d="M429 914l-169 -175h-46l122 175h93zM237 679q50 0 77 -43q14 -22 14 -48q0 -50 -43 -77q-22 -14 -48 -14q-50 0 -77 43q-14 22 -14 48q0 50 43 77q22 14 48 14zM237 645q-34 0 -51 -31q-6 -12 -6 -26q0 -34 31 -51q12 -6 26 -6q34 0 51 31q6 12 6 26q0 34 -31 51
q-12 6 -26 6zM409 239q-105 27 -186 27q-75 0 -118 -51q-27 -32 -27 -72q0 -64 69 -99q42 -21 92 -21q80 0 133 48q17 15 37 39v129zM446 34h93v-34h-130v54q-62 -62 -147 -67q-11 -1 -23 -1q-89 0 -149 52q-49 43 -49 105q0 83 75 129q48 31 107 31q84 0 186 -26v17
q0 43 -57 76q-51 30 -115 30q-63 0 -160 -43l-14 34l59 23q71 23 115 23q98 0 162 -53q47 -39 47 -90v-260z" />
    <glyph glyph-name="AEacute" unicode="&#x1fc;" 
d="M533 799l-169 -175h-46l122 175h93zM312 283v238l-83 -238h83zM486 402v-143h-34v62h-103v-287h182l12 87h34l-12 -121h-253v246h-96l-74 -212h95v-34h-213v34h79l173 494h-159v34h448l9 -115h-34l-9 81h-182v-173h103v47h34z" />
    <glyph glyph-name="aeacute" unicode="&#x1fd;" 
d="M365 672l-169 -175h-46l122 175h93zM542 247q-7 90 -38 119q-25 24 -71 24q-94 0 -110 -119q-1 -11 -2 -24h221zM284 239l-65 21q-28 6 -59 6q-66 0 -89 -70q-8 -25 -8 -53q0 -62 45 -97q28 -23 67 -23q44 0 78 43q9 12 31 44v129zM310 79q-39 -53 -54 -66
q-32 -27 -81 -27q-96 0 -136 71q-20 36 -20 86q0 109 75 146q29 14 66 14q43 0 101 -19q13 -4 23 -7v17q0 106 -111 106q-50 0 -105 -34q-5 -3 -13 -8l-14 34q26 22 88 38q26 7 44 7q109 0 138 -83q37 73 122 73q116 0 141 -123q7 -38 7 -91h-260q0 -143 84 -170
q17 -6 38 -6q50 0 85 40q-13 -15 17 20l23 -28q-52 -63 -113 -68q-6 -1 -12 -1q-95 0 -133 79z" />
    <glyph glyph-name="Oslashacute" unicode="&#x1fe;" 
d="M457 829l-169 -175h-46l122 175h93zM300 564q76 0 137 -52l56 82l28 -20l-59 -85q76 -86 76 -208q0 -124 -76 -208q-68 -75 -162 -75q-78 0 -141 55l-56 -81l-28 20l60 86q-73 84 -73 203q0 124 76 208q68 75 162 75zM180 84q54 -49 120 -49q86 0 146 77q55 71 55 169
q0 103 -61 176zM300 527q-86 0 -146 -77q-55 -71 -55 -169q0 -101 58 -172l258 373q-53 45 -115 45z" />
    <glyph glyph-name="oslashacute" unicode="&#x1ff;" 
d="M487 674l-169 -175h-46l122 175h93zM300 427q70 0 128 -39l59 67l26 -22l-58 -66q70 -63 70 -154q0 -96 -76 -160q-64 -54 -149 -54q-72 0 -132 41l-60 -69l-26 22l60 68q-67 64 -67 152q0 96 76 160q64 54 149 54zM193 68q48 -32 107 -32q90 0 147 66q41 49 41 111
q0 74 -57 126zM300 390q-90 0 -147 -66q-41 -49 -41 -111q0 -72 54 -124l238 271q-47 30 -104 30z" />
    <glyph glyph-name="uni0200" unicode="&#x200;" 
d="M240 773h80l103 -149h-39zM59 773h79l104 -149h-40zM226 283h152l-76 238zM361 34h96l-69 212h-172l-69 -212h95v-34h-213v34h79l158 494h-144v34h207l167 -528h75v-34h-210v34z" />
    <glyph glyph-name="uni0201" unicode="&#x201;" 
d="M164 646h80l103 -149h-39zM-17 646h79l104 -149h-40zM409 239q-105 27 -186 27q-75 0 -118 -51q-27 -32 -27 -72q0 -64 69 -99q42 -21 92 -21q80 0 133 48q17 15 37 39v129zM446 34h93v-34h-130v54q-62 -62 -147 -67q-11 -1 -23 -1q-89 0 -149 52q-49 43 -49 105
q0 83 75 129q48 31 107 31q84 0 186 -26v17q0 43 -57 76q-51 30 -115 30q-63 0 -160 -43l-14 34l59 23q71 23 115 23q98 0 162 -53q47 -39 47 -90v-260z" />
    <glyph glyph-name="uni0202" unicode="&#x202;" 
d="M401 624h-24q-20 44 -80 44q-66 0 -79 -44h-24q6 60 57 85q22 11 47 11q60 0 89 -53q11 -19 14 -43zM226 283h152l-76 238zM361 34h96l-69 212h-172l-69 -212h95v-34h-213v34h79l158 494h-144v34h207l167 -528h75v-34h-210v34z" />
    <glyph glyph-name="uni0203" unicode="&#x203;" 
d="M341 497h-24q-20 44 -80 44q-66 0 -79 -44h-24q6 60 57 85q22 11 47 11q60 0 89 -53q11 -19 14 -43zM409 239q-105 27 -186 27q-75 0 -118 -51q-27 -32 -27 -72q0 -64 69 -99q42 -21 92 -21q80 0 133 48q17 15 37 39v129zM446 34h93v-34h-130v54q-62 -62 -147 -67
q-11 -1 -23 -1q-89 0 -149 52q-49 43 -49 105q0 83 75 129q48 31 107 31q84 0 186 -26v17q0 43 -57 76q-51 30 -115 30q-63 0 -160 -43l-14 34l59 23q71 23 115 23q98 0 162 -53q47 -39 47 -90v-260z" />
    <glyph glyph-name="uni0204" unicode="&#x204;" 
d="M222 773h80l103 -149h-39zM41 773h79l104 -149h-40zM435 402v-143h-34v62h-194v-287h273l12 87h34l-12 -121h-440v34h97v494h-97v34h440l9 -115h-34l-9 81h-273v-173h194v47h34z" />
    <glyph glyph-name="uni0205" unicode="&#x205;" 
d="M221 636h80l103 -149h-39zM40 636h79l104 -149h-40zM478 247q-16 77 -87 118q-45 25 -97 25q-90 0 -146 -66q-29 -34 -38 -77h368zM519 213h-413q0 -81 69 -134q54 -42 124 -42q80 0 154 48q5 4 10 7l24 -28q-62 -52 -157 -62q-16 -2 -31 -2q-101 0 -171 71
q-59 61 -59 142q0 96 76 160q64 54 149 54q103 0 170 -72q55 -60 55 -142z" />
    <glyph glyph-name="uni0206" unicode="&#x206;" 
d="M397 624h-24q-20 44 -80 44q-66 0 -79 -44h-24q6 60 57 85q22 11 47 11q60 0 89 -53q11 -19 14 -43zM435 402v-143h-34v62h-194v-287h273l12 87h34l-12 -121h-440v34h97v494h-97v34h440l9 -115h-34l-9 81h-273v-173h194v47h34z" />
    <glyph glyph-name="uni0207" unicode="&#x207;" 
d="M397 487h-24q-20 44 -80 44q-66 0 -79 -44h-24q6 60 57 85q22 11 47 11q60 0 89 -53q11 -19 14 -43zM478 247q-16 77 -87 118q-45 25 -97 25q-90 0 -146 -66q-29 -34 -38 -77h368zM519 213h-413q0 -81 69 -134q54 -42 124 -42q80 0 154 48q5 4 10 7l24 -28
q-62 -52 -157 -62q-16 -2 -31 -2q-101 0 -171 71q-59 61 -59 142q0 96 76 160q64 54 149 54q103 0 170 -72q55 -60 55 -142z" />
    <glyph glyph-name="uni0208" unicode="&#x208;" 
d="M228 773h80l103 -149h-39zM47 773h79l104 -149h-40zM285 528h-195v34h421v-34h-190v-494h189v-34h-421v34h196v494z" />
    <glyph glyph-name="uni0209" unicode="&#x209;" 
d="M234 636h80l103 -149h-39zM53 636h79l104 -149h-40zM289 392h-186v34h223v-392h173v-34h-396v34h186v358z" />
    <glyph glyph-name="uni020A" unicode="&#x20a;" 
d="M404 624h-24q-20 44 -80 44q-66 0 -79 -44h-24q6 60 57 85q22 11 47 11q60 0 89 -53q11 -19 14 -43zM285 528h-195v34h421v-34h-190v-494h189v-34h-421v34h196v494z" />
    <glyph glyph-name="uni020B" unicode="&#x20b;" 
d="M410 487h-24q-20 44 -80 44q-66 0 -79 -44h-24q6 60 57 85q22 11 47 11q60 0 89 -53q11 -19 14 -43zM289 392h-186v34h223v-392h173v-34h-396v34h186v358z" />
    <glyph glyph-name="uni020C" unicode="&#x20c;" 
d="M228 773h80l103 -149h-39zM47 773h79l104 -149h-40zM300 564q103 0 173 -89q65 -82 65 -194q0 -124 -77 -208q-68 -75 -161 -75q-103 0 -173 89q-65 82 -65 194q0 124 77 208q68 75 161 75zM300 527q-86 0 -146 -77q-55 -71 -55 -169q0 -116 73 -190q56 -56 128 -56
q86 0 146 77q55 71 55 169q0 116 -73 190q-56 56 -128 56z" />
    <glyph glyph-name="uni020D" unicode="&#x20d;" 
d="M227 636h80l103 -149h-39zM46 636h79l104 -149h-40zM300 427q101 0 169 -72q56 -61 56 -142q0 -96 -76 -160q-64 -54 -149 -54q-101 0 -169 72q-56 61 -56 142q0 96 76 160q64 54 149 54zM300 390q-88 0 -145 -65q-43 -49 -43 -112q0 -83 67 -136q52 -41 121 -41
q95 0 149 67q39 47 39 110q0 89 -73 141q-50 36 -115 36z" />
    <glyph glyph-name="uni020E" unicode="&#x20e;" 
d="M403 624h-24q-20 44 -80 44q-66 0 -79 -44h-24q6 60 57 85q22 11 47 11q60 0 89 -53q11 -19 14 -43zM300 564q103 0 173 -89q65 -82 65 -194q0 -124 -77 -208q-68 -75 -161 -75q-103 0 -173 89q-65 82 -65 194q0 124 77 208q68 75 161 75zM300 527q-86 0 -146 -77
q-55 -71 -55 -169q0 -116 73 -190q56 -56 128 -56q86 0 146 77q55 71 55 169q0 116 -73 190q-56 56 -128 56z" />
    <glyph glyph-name="uni020F" unicode="&#x20f;" 
d="M403 487h-24q-20 44 -80 44q-66 0 -79 -44h-24q6 60 57 85q22 11 47 11q60 0 89 -53q11 -19 14 -43zM300 427q101 0 169 -72q56 -61 56 -142q0 -96 -76 -160q-64 -54 -149 -54q-101 0 -169 72q-56 61 -56 142q0 96 76 160q64 54 149 54zM300 390q-88 0 -145 -65
q-43 -49 -43 -112q0 -83 67 -136q52 -41 121 -41q95 0 149 67q39 47 39 110q0 89 -73 141q-50 36 -115 36z" />
    <glyph glyph-name="uni0210" unicode="&#x210;" 
d="M111 773h80l103 -149h-39zM-70 773h79l104 -149h-40zM143 281h216q59 0 100 37q37 33 37 86q0 92 -87 117q-24 7 -50 7h-216v-247zM332 247q64 -58 102 -148q10 -22 26 -65h70v-34h-94q-42 110 -65 148q-33 53 -92 99h-137v-213h130v-34h-263v34h97v494h-97v34h350
q83 0 132 -51q39 -41 39 -107q0 -96 -91 -138q-40 -19 -80 -19h-27z" />
    <glyph glyph-name="uni0211" unicode="&#x211;" 
d="M201 649h80l103 -149h-39zM20 649h79l104 -149h-40zM462 363q-13 15 -60 32q-24 8 -40 8q-64 0 -164 -59q-10 -6 -19 -12v-297h85v-35h-209v35h87v357h-87v34h124v-50q36 19 39 21q75 42 143 43q64 0 119 -42q7 -5 13 -11z" />
    <glyph glyph-name="uni0212" unicode="&#x212;" 
d="M287 624h-24q-20 44 -80 44q-66 0 -79 -44h-24q6 60 57 85q22 11 47 11q60 0 89 -53q11 -19 14 -43zM143 281h216q59 0 100 37q37 33 37 86q0 92 -87 117q-24 7 -50 7h-216v-247zM332 247q64 -58 102 -148q10 -22 26 -65h70v-34h-94q-42 110 -65 148q-33 53 -92 99h-137
v-213h130v-34h-263v34h97v494h-97v34h350q83 0 132 -51q39 -41 39 -107q0 -96 -91 -138q-40 -19 -80 -19h-27z" />
    <glyph glyph-name="uni0213" unicode="&#x213;" 
d="M378 500h-24q-20 44 -80 44q-66 0 -79 -44h-24q6 60 57 85q22 11 47 11q60 0 89 -53q11 -19 14 -43zM462 363q-13 15 -60 32q-24 8 -40 8q-64 0 -164 -59q-10 -6 -19 -12v-297h85v-35h-209v35h87v357h-87v34h124v-50q36 19 39 21q75 42 143 43q64 0 119 -42q7 -5 13 -11z
" />
    <glyph glyph-name="uni0214" unicode="&#x214;" 
d="M228 773h80l103 -149h-39zM47 773h79l104 -149h-40zM572 528h-71v-349q0 -60 -52 -118q-62 -68 -149 -68q-91 0 -155 78q-46 56 -46 108v349h-71v34h204v-34h-100v-349q0 -39 44 -89q56 -63 123 -63q78 0 133 69q35 44 35 83v349h-99v34h204v-34z" />
    <glyph glyph-name="uni0215" unicode="&#x215;" 
d="M183 636h80l103 -149h-39zM2 636h79l104 -149h-40zM453 51q-33 -18 -39 -21q-80 -43 -137 -43q-68 0 -125 55q-45 44 -45 89v261h-85v34h122l-1 -294v-1q0 -35 45 -72q43 -35 89 -35q66 0 171 68q3 1 5 3v297h-85v34h122v-391h86v-35h-123v51z" />
    <glyph glyph-name="uni0216" unicode="&#x216;" 
d="M403 624h-24q-20 44 -80 44q-66 0 -79 -44h-24q6 60 57 85q22 11 47 11q60 0 89 -53q11 -19 14 -43zM572 528h-71v-349q0 -60 -52 -118q-62 -68 -149 -68q-91 0 -155 78q-46 56 -46 108v349h-71v34h204v-34h-100v-349q0 -39 44 -89q56 -63 123 -63q78 0 133 69
q35 44 35 83v349h-99v34h204v-34z" />
    <glyph glyph-name="uni0217" unicode="&#x217;" 
d="M359 487h-24q-20 44 -80 44q-66 0 -79 -44h-24q6 60 57 85q22 11 47 11q60 0 89 -53q11 -19 14 -43zM453 51q-33 -18 -39 -21q-80 -43 -137 -43q-68 0 -125 55q-45 44 -45 89v261h-85v34h122l-1 -294v-1q0 -35 45 -72q43 -35 89 -35q66 0 171 68q3 1 5 3v297h-85v34h122
v-391h86v-35h-123v51z" />
    <glyph glyph-name="Scommaaccent" unicode="&#x218;" 
d="M193 -147q-15 -53 -70 -80q-16 -7 -32 -10l-13 16q24 5 40 30q12 19 2 33q-28 17 -23 53q6 36 39 44q8 2 18 1q40 -2 49 -39q6 -27 -10 -48zM460 570q-12 -33 -12 -57q0 -49 24 -75h-32q-2 1 -3 2q-20 47 -70 75q-31 18 -63 18q-82 0 -122 -47q-20 -24 -20 -54
q0 -67 75 -100q12 -5 104 -34q91 -29 118 -73q17 -28 17 -66q0 -82 -78 -125q-46 -25 -100 -25q-63 0 -114 43q-8 8 -11 -7q-6 -23 -15 -45h-34l14 42q9 27 9 44q0 25 -20 63q-2 3 -3 5h34l13 -29q37 -64 103 -77q12 -2 24 -2q76 0 117 49q24 28 24 64q0 61 -73 92
q-9 4 -101 34q-93 29 -121 75q-19 30 -19 72q0 80 84 118q44 20 95 20q52 0 101 -36q10 -8 12 1q3 22 9 35h34z" />
    <glyph glyph-name="scommaaccent" unicode="&#x219;" 
d="M193 -159q-15 -53 -70 -80q-16 -7 -32 -10l-13 16q24 5 40 30q12 19 2 33q-28 17 -23 53q6 36 39 44q8 2 18 1q40 -2 49 -39q6 -27 -10 -48zM460 432q-12 -24 -12 -49q0 -40 24 -62h-34q-21 39 -73 61q-31 13 -61 13q-104 0 -134 -43q-8 -12 -8 -27q0 -51 74 -76l146 -37
q87 -28 93 -89q1 -5 1 -11q0 -64 -78 -98q-46 -19 -100 -19q-63 0 -114 33q-8 6 -11 -5q-4 -13 -15 -35h-34l14 33q9 20 9 39t-19 50q-2 4 -4 6h34l13 -22q39 -55 113 -61q7 -1 14 -1q94 0 128 44q13 16 13 36q0 46 -69 69l-145 35q-91 29 -99 94q-1 7 -1 15q0 62 84 92
q44 15 95 15q50 0 101 -27q10 -7 12 0q3 18 9 27h34z" />
    <glyph glyph-name="Tcommaaccent" unicode="&#x21a;" 
d="M352 -147q-15 -53 -70 -80q-16 -7 -32 -10l-13 16q24 5 40 30q12 19 2 33q-28 17 -23 53q6 36 39 44q8 2 18 1q40 -2 49 -39q6 -27 -10 -48zM522 358l-10 170h-194v-494h149v-34h-333v34h148v494h-193l-10 -170h-35l10 204h491l11 -204h-34z" />
    <glyph glyph-name="tcommaaccent" unicode="&#x21b;" 
d="M368 -166q-15 -53 -70 -80q-16 -7 -32 -10l-13 16q24 5 40 30q12 19 2 33q-28 17 -23 53q6 36 39 44q8 2 18 1q40 -2 49 -39q6 -27 -10 -48zM53 426h78v132h37v-132h252v-34h-252v-251q0 -53 54 -92q43 -31 94 -31q72 0 187 115l28 -24q-75 -83 -155 -115
q-33 -13 -60 -13q-78 0 -136 56q-48 46 -48 104v251h-79v34z" />
    <glyph glyph-name="uni021C" unicode="&#x21c;" 
d="M458 167q0 -100 -76 -147q-34 -21 -72 -23q-80 -4 -131 -48v36q27 33 131 49q93 13 110 96q4 17 4 37q0 69 -53 101q-28 16 -49 11l-52 -13v34l57 13q50 12 78 63q14 26 14 51q0 45 -43 77q-27 21 -57 21q-70 0 -117 -50q-23 -23 -32 -53h-35q19 48 19 69q0 33 -13 69h34
q9 -16 12 -41q1 -9 8 -4q2 1 4 3q37 44 120 44q53 0 97 -47q37 -41 37 -88q0 -83 -66 -122q-7 -4 -14 -7q33 -3 61 -49q24 -39 24 -82z" />
    <glyph glyph-name="uni021D" unicode="&#x21d;" 
d="M455 133q0 -101 -103 -127q-16 -5 -45 -9q-75 -11 -143 -84v40q36 44 103 70q22 9 40 11q61 8 82 23q32 23 32 76q0 56 -56 74q-31 10 -51 2l-46 -17v34l57 20q61 22 77 40q14 16 14 39q0 57 -82 63q-9 1 -18 1q-70 0 -117 -50q-23 -23 -32 -53h-35q19 48 19 69
q0 33 -13 69h34q10 -22 12 -41q1 -8 6 -5q1 1 6 4q37 44 120 44q76 0 113 -43q21 -24 21 -58q0 -64 -60 -87q-5 -2 -9 -3q74 -21 74 -102z" />
    <glyph glyph-name="uni021E" unicode="&#x21e;" 
d="M431 745l-120 -121h-21l-121 121l14 14l119 -93l115 93zM164 367h273v161h-98v34h230v-34h-95v-494h94v-34h-230v34h99v296h-273v-296h97v-34h-230v34h96v494h-96v34h230v-34h-97v-161z" />
    <glyph glyph-name="uni021F" unicode="&#x21f;" 
d="M430 813l-120 -121h-21l-121 121l14 14l119 -93l115 93zM146 376q77 42 102 51q38 13 73 13q74 0 129 -57q41 -42 41 -87v-261h85v-35h-208v35h87v261q0 35 -45 72q-43 35 -89 35q-66 0 -171 -68q-3 -1 -5 -3v-297h85v-35h-208v35h87v555l-87 -22v34l124 30v-256z" />
    <glyph glyph-name="uni0222" unicode="&#x222;" 
d="M325 562v34q73 0 137 -51q62 -48 62 -109q0 -63 -73 -100q-10 -6 -22 -10q70 -33 95 -98q10 -24 10 -49q0 -179 -233 -179q-201 0 -233 131q-5 23 -5 48q0 72 66 123q19 15 43 25q-79 29 -93 87q-3 11 -3 22q0 76 105 106q47 13 100 13v-33q-106 0 -152 -44
q-19 -19 -19 -42q0 -41 54 -69q42 -22 96 -22h85q81 0 124 45q21 22 21 46q0 40 -58 84q-56 42 -107 42zM97 179q0 -145 204 -145q182 0 197 118q2 13 2 27q0 54 -53 96q-45 36 -102 36h-85q-85 0 -134 -59q-29 -35 -29 -73z" />
    <glyph glyph-name="uni0223" unicode="&#x223;" 
d="M432 178q0 80 -54 116q-23 16 -49 16h-58q-57 0 -86 -53q-17 -33 -17 -79q0 -89 40 -119q31 -23 92 -23q132 0 132 142zM389 502l20 30q32 -17 46 -61q6 -17 6 -34q0 -63 -54 -101q-6 -4 -13 -8q61 -38 73 -120q2 -15 2 -30q0 -135 -101 -168q-30 -10 -68 -10
q-145 0 -165 125q-4 24 -4 53q0 102 68 148q2 1 5 3q-54 30 -63 88q-2 9 -2 19q0 63 54 97l18 -31q-35 -24 -35 -66q0 -48 45 -75q23 -14 50 -14h58q51 0 80 42q15 22 15 48q0 41 -35 65z" />
    <glyph glyph-name="uni0224" unicode="&#x224;" 
d="M467 34l-12 -146h-35l9 112h-304v20l287 508h-248l-7 -153h-35l9 187h331v-23l-286 -505h291z" />
    <glyph glyph-name="uni0225" unicode="&#x225;" 
d="M499 392l-348 -358h366v-72h-34v38h-384v34l348 358h-330v-36h-34v70h416v-34z" />
    <glyph glyph-name="uni0226" unicode="&#x226;" 
d="M337 721v-97h-74v97h74zM226 283h152l-76 238zM361 34h96l-69 212h-172l-69 -212h95v-34h-213v34h79l158 494h-144v34h207l167 -528h75v-34h-210v34z" />
    <glyph glyph-name="uni0227" unicode="&#x227;" 
d="M274 594v-97h-74v97h74zM409 239q-105 27 -186 27q-75 0 -118 -51q-27 -32 -27 -72q0 -64 69 -99q42 -21 92 -21q80 0 133 48q17 15 37 39v129zM446 34h93v-34h-130v54q-62 -62 -147 -67q-11 -1 -23 -1q-89 0 -149 52q-49 43 -49 105q0 83 75 129q48 31 107 31
q84 0 186 -26v17q0 43 -57 76q-51 30 -115 30q-63 0 -160 -43l-14 34l59 23q71 23 115 23q98 0 162 -53q47 -39 47 -90v-260z" />
    <glyph glyph-name="uni0228" unicode="&#x228;" 
d="M313 7l-10 -54q62 13 98 -29q18 -22 18 -49q0 -51 -58 -75q-44 -18 -114 -11l5 34q92 -12 123 28q7 9 7 18q0 52 -60 53q-15 0 -33 -4l-25 -6l12 94zM435 402v-143h-34v62h-194v-287h273l12 87h34l-12 -121h-440v34h97v494h-97v34h440l9 -115h-34l-9 81h-273v-173h194v47
h34z" />
    <glyph glyph-name="uni0229" unicode="&#x229;" 
d="M318 7l-10 -54q62 13 98 -29q18 -22 18 -49q0 -51 -58 -75q-44 -18 -114 -11l5 34q92 -12 123 28q7 9 7 18q0 52 -60 53q-15 0 -33 -4l-25 -6l12 94zM478 247q-16 77 -87 118q-45 25 -97 25q-90 0 -146 -66q-29 -34 -38 -77h368zM519 213h-413q0 -81 69 -134
q54 -42 124 -42q80 0 154 48q5 4 10 7l24 -28q-62 -52 -157 -62q-16 -2 -31 -2q-101 0 -171 71q-59 61 -59 142q0 96 76 160q64 54 149 54q103 0 170 -72q55 -60 55 -142z" />
    <glyph glyph-name="uni022A" unicode="&#x22a;" 
d="M127 794h347v-34h-347v34zM183 662q0 27 25 36q6 2 13 2q27 0 36 -25q2 -6 2 -13q0 -27 -25 -36q-6 -2 -13 -2q-27 0 -36 25q-2 6 -2 13zM340 662q0 27 25 36q6 2 13 2q27 0 36 -25q2 -6 2 -13q0 -27 -25 -36q-6 -2 -13 -2q-27 0 -36 25q-2 6 -2 13zM300 564
q103 0 173 -89q65 -82 65 -194q0 -124 -77 -208q-68 -75 -161 -75q-103 0 -173 89q-65 82 -65 194q0 124 77 208q68 75 161 75zM300 527q-86 0 -146 -77q-55 -71 -55 -169q0 -116 73 -190q56 -56 128 -56q86 0 146 77q55 71 55 169q0 116 -73 190q-56 56 -128 56z" />
    <glyph glyph-name="uni022B" unicode="&#x22b;" 
d="M127 657h347v-34h-347v34zM183 525q0 27 25 36q6 2 13 2q27 0 36 -25q2 -6 2 -13q0 -27 -25 -36q-6 -2 -13 -2q-27 0 -36 25q-2 6 -2 13zM340 525q0 27 25 36q6 2 13 2q27 0 36 -25q2 -6 2 -13q0 -27 -25 -36q-6 -2 -13 -2q-27 0 -36 25q-2 6 -2 13zM300 427
q101 0 169 -72q56 -61 56 -142q0 -96 -76 -160q-64 -54 -149 -54q-101 0 -169 72q-56 61 -56 142q0 96 76 160q64 54 149 54zM300 390q-88 0 -145 -65q-43 -49 -43 -112q0 -83 67 -136q52 -41 121 -41q95 0 149 67q39 47 39 110q0 89 -73 141q-50 36 -115 36z" />
    <glyph glyph-name="uni022C" unicode="&#x22c;" 
d="M100 796h347v-34h-347v34zM198 624q1 43 39 67q18 11 36 11q15 1 44 -22q16 -13 25 -12q34 3 54 30h5q3 -40 -25 -63q-14 -11 -32 -11q-23 1 -48 22q-15 13 -26 13q-40 -1 -62 -35h-10zM300 564q103 0 173 -89q65 -82 65 -194q0 -124 -77 -208q-68 -75 -161 -75
q-103 0 -173 89q-65 82 -65 194q0 124 77 208q68 75 161 75zM300 527q-86 0 -146 -77q-55 -71 -55 -169q0 -116 73 -190q56 -56 128 -56q86 0 146 77q55 71 55 169q0 116 -73 190q-56 56 -128 56z" />
    <glyph glyph-name="uni022D" unicode="&#x22d;" 
d="M100 659h347v-34h-347v34zM198 487q1 43 39 67q18 11 36 11q15 1 44 -22q16 -13 25 -12q34 3 54 30h5q3 -40 -25 -63q-14 -11 -32 -11q-23 1 -48 22q-15 13 -26 13q-40 -1 -62 -35h-10zM300 427q101 0 169 -72q56 -61 56 -142q0 -96 -76 -160q-64 -54 -149 -54
q-101 0 -169 72q-56 61 -56 142q0 96 76 160q64 54 149 54zM300 390q-88 0 -145 -65q-43 -49 -43 -112q0 -83 67 -136q52 -41 121 -41q95 0 149 67q39 47 39 110q0 89 -73 141q-50 36 -115 36z" />
    <glyph glyph-name="uni022E" unicode="&#x22e;" 
d="M337 721v-97h-74v97h74zM300 564q103 0 173 -89q65 -82 65 -194q0 -124 -77 -208q-68 -75 -161 -75q-103 0 -173 89q-65 82 -65 194q0 124 77 208q68 75 161 75zM300 527q-86 0 -146 -77q-55 -71 -55 -169q0 -116 73 -190q56 -56 128 -56q86 0 146 77q55 71 55 169
q0 116 -73 190q-56 56 -128 56z" />
    <glyph glyph-name="uni022F" unicode="&#x22f;" 
d="M337 584v-97h-74v97h74zM300 427q101 0 169 -72q56 -61 56 -142q0 -96 -76 -160q-64 -54 -149 -54q-101 0 -169 72q-56 61 -56 142q0 96 76 160q64 54 149 54zM300 390q-88 0 -145 -65q-43 -49 -43 -112q0 -83 67 -136q52 -41 121 -41q95 0 149 67q39 47 39 110
q0 89 -73 141q-50 36 -115 36z" />
    <glyph glyph-name="uni0230" unicode="&#x230;" 
d="M127 815h347v-34h-347v34zM337 721v-97h-74v97h74zM300 564q103 0 173 -89q65 -82 65 -194q0 -124 -77 -208q-68 -75 -161 -75q-103 0 -173 89q-65 82 -65 194q0 124 77 208q68 75 161 75zM300 527q-86 0 -146 -77q-55 -71 -55 -169q0 -116 73 -190q56 -56 128 -56
q86 0 146 77q55 71 55 169q0 116 -73 190q-56 56 -128 56z" />
    <glyph glyph-name="uni0231" unicode="&#x231;" 
d="M126 678h347v-34h-347v34zM337 584v-97h-74v97h74zM300 427q101 0 169 -72q56 -61 56 -142q0 -96 -76 -160q-64 -54 -149 -54q-101 0 -169 72q-56 61 -56 142q0 96 76 160q64 54 149 54zM300 390q-88 0 -145 -65q-43 -49 -43 -112q0 -83 67 -136q52 -41 121 -41
q95 0 149 67q39 47 39 110q0 89 -73 141q-50 36 -115 36z" />
    <glyph glyph-name="uni0232" unicode="&#x232;" 
d="M127 658h347v-34h-347v34zM317 34h58v-34h-152v34h57v239l-186 255h-35v34h141v-34h-60l160 -216l160 216h-60v34h141v-34h-35l-189 -255v-239z" />
    <glyph glyph-name="uni0233" unicode="&#x233;" 
d="M127 521h347v-34h-347v34zM284 -168h-284v34h213l66 134l-193 392h-76v34h191v-34h-74l173 -350l173 350h-74v34h191v-34h-76l-260 -526h30v-34z" />
    <glyph glyph-name="uni0250" unicode="&#x250;" 
d="M172 188q73 -22 164 -26q11 -1 21 -1q76 0 119 52q26 31 26 70q0 64 -69 99q-42 21 -92 21q-80 0 -133 -48q-16 -15 -36 -39v-128zM135 392h-94v34h131v-54q61 62 149 67q10 1 20 1q89 0 149 -52q49 -43 49 -105q0 -83 -76 -130q-48 -29 -106 -29q-90 0 -185 25v-17
q0 -43 57 -76q50 -29 114 -29t160 42l14 -34l-59 -23q-68 -22 -115 -22q-99 0 -163 53q-45 39 -45 89v260z" />
    <glyph glyph-name="uni0251" unicode="&#x251;" 
d="M582 0h-117v95q-55 -78 -151 -93q-18 -3 -36 -3q-103 0 -170 74q-55 60 -55 140q0 97 76 161q63 53 148 53q102 0 169 -73q10 -11 18 -23v95h37v-392h81v-34zM465 213q0 86 -71 139q-52 38 -116 38q-90 0 -147 -66q-41 -49 -41 -111q0 -83 68 -136q51 -41 119 -41
q86 0 143 62q45 49 45 115z" />
    <glyph glyph-name="uni0252" unicode="&#x252;" 
d="M25 426h117v-95q55 78 151 93q18 3 36 3q101 0 169 -72q56 -61 56 -142q0 -97 -77 -161q-64 -52 -148 -52q-102 0 -170 74q-9 10 -17 21v-95h-37v392h-80v34zM142 213q0 -87 72 -139q51 -37 115 -37q90 0 147 66q41 48 41 110q0 83 -67 136q-52 41 -121 41
q-86 0 -143 -62q-44 -49 -44 -115z" />
    <glyph glyph-name="uni0253" unicode="&#x253;" 
d="M344 390q-86 0 -143 -62q-45 -49 -45 -115q0 -86 71 -139q52 -38 116 -38q90 0 147 66q41 49 41 111q0 83 -68 136q-51 41 -119 41zM119 34v507q0 68 50 87q15 6 33 6q55 0 65 -38q1 -6 1 -12q1 -23 -23 -27q-28 -5 -43 18q-6 9 -6 22q0 11 7 21q-25 9 -41 -14
q-6 -10 -6 -21v-252q55 78 151 93q18 3 36 3q103 0 170 -74q55 -60 55 -140q0 -97 -76 -161q-63 -53 -148 -53q-102 0 -169 73q-10 11 -18 23v-95h-118v34h80z" />
    <glyph glyph-name="uni0254" unicode="&#x254;" 
d="M125 51l-4 -23l-33 8l12 56q-12 14 -19 35l35 12q36 -71 115 -93q27 -8 55 -8q89 0 145 66q42 48 42 111q0 80 -68 133q-55 43 -128 43q-56 0 -122 -36q-14 -7 -24 -15l-20 33q50 41 134 53q17 2 32 2q111 0 180 -76q53 -58 53 -137q0 -97 -76 -161q-63 -53 -148 -53
q-82 0 -146 51q-13 10 -15 -1z" />
    <glyph glyph-name="uni0255" unicode="&#x255;" 
d="M162 103q59 -64 152 -65q85 0 137 48q30 28 30 59q0 54 -101 68q-22 3 -41 3q-110 0 -177 -113zM81 214q0 97 76 161q63 53 148 53q80 0 146 -51q13 -10 15 1l4 22l33 -7l-12 -56q13 -17 19 -35l-35 -13q-36 72 -115 94q-27 8 -55 8q-89 0 -145 -66q-42 -48 -42 -111
q0 -43 21 -79q79 118 200 118q115 0 159 -52q20 -23 20 -56q0 -71 -83 -114q-56 -30 -121 -30q-102 0 -171 66q-23 -55 -23 -118h-38q0 76 35 149q-36 52 -36 116z" />
    <glyph glyph-name="uni0256" unicode="&#x256;" 
d="M632 -75q0 -35 -39 -46q-12 -4 -26 -4q-54 0 -85 43q-17 23 -17 52v125q-55 -78 -151 -93q-18 -3 -36 -3q-103 0 -170 74q-55 60 -55 140q0 97 76 161q63 53 148 53q102 0 169 -73q10 -11 18 -23v258l-160 -30v34l197 39v-656q0 -38 31 -70q20 -21 35 -15q-7 12 -7 21
q0 42 38 44q34 0 34 -31zM465 213q0 86 -71 139q-52 38 -116 38q-90 0 -147 -66q-41 -49 -41 -111q0 -83 68 -136q51 -41 119 -41q86 0 143 62q45 49 45 115z" />
    <glyph glyph-name="uni0257" unicode="&#x257;" 
d="M632 584q1 -24 -25 -27q-28 -4 -42 19q-5 9 -5 21q0 11 6 21q-22 9 -49 -15q-16 -14 -16 -29v-540h81v-34h-117v95q-55 -78 -151 -93q-18 -3 -36 -3q-103 0 -170 74q-55 60 -55 140q0 97 76 161q63 53 148 53q102 0 169 -73q10 -11 18 -23v208q0 52 48 80q25 15 54 15
q56 0 65 -40q1 -5 1 -10zM465 213q0 86 -71 139q-52 38 -116 38q-90 0 -147 -66q-41 -49 -41 -111q0 -83 68 -136q51 -41 119 -41q86 0 143 62q45 49 45 115z" />
    <glyph glyph-name="uni0258" unicode="&#x258;" 
d="M111 247h368q-16 76 -87 117q-45 25 -97 25q-90 0 -146 -66q-29 -34 -38 -76zM70 213q0 101 79 163q63 50 146 50q102 0 169 -73q55 -60 55 -140q0 -96 -78 -159q-65 -54 -151 -54q-93 0 -168 49q-11 7 -20 15l24 28q66 -48 147 -54q8 -1 17 -1q89 0 147 64q45 49 45 112
h-412z" />
    <glyph glyph-name="uni0259" unicode="&#x259;" 
d="M120 178q16 -77 87 -118q45 -25 97 -25q90 0 146 66q29 34 38 77h-368zM80 212h412q0 80 -68 133q-54 43 -125 43q-79 0 -152 -48q-7 -4 -12 -8l-24 29q62 52 157 62q16 2 31 2q101 0 171 -71q59 -61 59 -142q0 -96 -76 -160q-64 -54 -149 -54q-103 0 -170 73
q-54 60 -54 141z" />
    <glyph glyph-name="uni025A" unicode="&#x25a;" 
d="M79 169q16 -62 79 -104q50 -33 110 -33q86 0 141 62q41 46 41 105q0 28 -7 50zM72 362q84 53 147 61q20 3 41 3q100 0 168 -75q24 -27 39 -60q23 10 28 46q2 16 3 19q14 -96 30 -112q11 -10 25 0l17 15l23 -24q-77 -72 -108 27l-6 -3q8 -30 8 -60q0 -96 -79 -157
q-61 -47 -139 -47q-102 0 -174 76q-57 59 -57 125l393 86q-36 72 -111 97q-29 10 -59 10q-73 0 -147 -45q-11 -6 -23 -14z" />
    <glyph glyph-name="uni025B" unicode="&#x25b;" 
d="M140 133q0 81 74 102q-58 17 -68 73q-1 8 -1 17q0 67 75 92q28 9 59 9q83 0 120 -44q10 -8 12 1q3 25 12 41h34q-13 -36 -13 -69q0 -21 19 -69h-35q-18 61 -84 89q-32 14 -65 14q-87 0 -99 -51q-1 -6 -1 -13q0 -53 62 -66q15 -3 33 -3h56v-34h-51q-48 0 -80 -29
q-25 -23 -25 -60q0 -99 114 -99q76 0 127 65l31 -21q-55 -69 -136 -80q-11 -1 -22 -1q-103 0 -136 72q-12 27 -12 64z" />
    <glyph glyph-name="uni025C" unicode="&#x25c;" 
d="M440 133q0 -110 -104 -132q-21 -4 -44 -4q-82 0 -145 66q-7 7 -13 15l31 21q51 -65 127 -65q114 0 114 99q0 64 -71 84q-18 5 -34 5h-51v34h56q77 0 92 49q3 9 3 20q0 57 -82 63q-9 1 -18 1q-70 0 -117 -50q-23 -23 -31 -53h-35q18 51 18 69q0 33 -13 69h34q9 -16 12 -41
q1 -9 8 -4q2 1 4 3q37 44 120 44q76 0 113 -43q21 -24 21 -58q0 -64 -60 -87q-5 -2 -9 -3q74 -21 74 -102z" />
    <glyph glyph-name="uni025D" unicode="&#x25d;" 
d="M415 375q40 18 59 52q0 -39 15 -87q13 -40 31 -40q23 0 46 42l30 -16q-30 -60 -76 -60q-51 0 -67 92q-11 -10 -25 -15q2 -14 2 -21q0 -57 -79 -77q-16 -5 -35 -7q102 -6 124 -74q4 -14 4 -28q0 -122 -152 -135q-21 -2 -46 -2q-65 0 -135 38l16 34q67 -36 120 -36
q134 0 155 67q5 15 5 34q0 45 -88 73q-44 14 -75 14h-35v37h35q55 0 111 26q38 18 38 36q0 56 -102 67q-17 2 -35 2q-60 0 -98 -21q-10 -5 -26 -15q-5 -3 -14 -25q-4 -9 -9 -17l-36 12q10 23 19 36l-12 56l33 7l5 -22q2 -9 9 -5q4 2 5 3q46 21 75 25q21 3 49 3
q120 0 159 -53z" />
    <glyph glyph-name="uni025E" unicode="&#x25e;" 
d="M112 213q0 -75 65 -130q55 -47 123 -47q108 0 159 43q27 23 27 55q0 50 -119 78q-50 12 -82 12h-35v37h35q79 0 141 23q46 18 46 44q-4 61 -172 61q-90 0 -147 -66q-41 -49 -41 -110zM523 134q0 -127 -203 -134h-20q-99 0 -167 71q-58 61 -58 142q0 96 76 160
q64 54 149 54q186 0 206 -78q3 -10 3 -21q0 -62 -88 -82q-27 -7 -63 -8q125 -2 157 -69q8 -17 8 -35z" />
    <glyph glyph-name="uni025F" unicode="&#x25f;" 
d="M76 -134q33 -23 98 -26h11q49 0 83 56q22 37 22 73v56h-111v34h111v333h-131v34h168v-367h105v-34h-105v-56q0 -62 -43 -115q-42 -51 -99 -51q-81 0 -125 30z" />
    <glyph glyph-name="uni0260" unicode="&#x260;" 
d="M269 390q-90 0 -147 -66q-41 -49 -41 -111q0 -83 68 -136q51 -41 119 -41q90 0 147 66q41 49 41 111q0 83 -68 136q-51 41 -119 41zM575 426v-34h-82v-423q0 -63 -75 -116q-72 -50 -152 -50q-94 0 -193 58l16 33q46 -32 126 -48q28 -6 50 -6q68 0 135 48q56 41 56 81v127
q-52 -75 -143 -93q-22 -4 -44 -4q-103 0 -170 74q-55 60 -55 140q0 97 76 161q63 53 148 53q102 0 170 -74q10 -11 18 -23v96h119z" />
    <glyph glyph-name="uni0261" unicode="&#x261;" 
d="M269 390q-90 0 -147 -66q-41 -49 -41 -111q0 -83 68 -136q51 -41 119 -41q90 0 147 66q41 49 41 111q0 83 -68 136q-51 41 -119 41zM493 211v-242q0 -63 -75 -116q-72 -50 -152 -50q-94 0 -193 58l16 33q46 -32 126 -48q28 -6 50 -6q68 0 135 48q56 41 56 81v127
q-52 -75 -143 -93q-22 -4 -44 -4q-103 0 -170 74q-55 60 -55 140q0 97 76 161q63 53 148 53q129 0 189 -89q36 -54 36 -127z" />
    <glyph glyph-name="uni0262" unicode="&#x262;" 
d="M318 426q77 0 123 -51q10 -8 12 1q3 26 12 40h34q-13 -36 -13 -69q0 -23 19 -68h-35q-18 59 -81 92q-36 18 -71 18q-102 0 -160 -61q-45 -46 -45 -116q0 -89 77 -141q53 -36 117 -36q77 0 134 56q42 40 44 88h-110v34h145v-34q-2 -77 -75 -133q-62 -48 -138 -48
q-110 0 -177 72q-54 58 -54 142q0 123 102 181q60 33 140 33z" />
    <glyph glyph-name="uni0263" unicode="&#x263;" 
d="M302 -60l-14 -36q-13 -34 13 -34q32 0 3 65q-2 4 -2 5zM394 598v34h196v-34h-52l-217 -608l29 -74q15 -39 -6 -66q-15 -17 -43 -17q-47 0 -58 36q-5 18 3 39l34 86l-215 604h-53v34h196v-34h-103l196 -558l197 558h-104z" />
    <glyph glyph-name="uni0264" unicode="&#x264;" 
d="M302 -60l-17 -34q-15 -31 16 -34q34 0 5 59q-3 7 -4 9zM391 392v34h196v-34h-52l-214 -402l32 -72q16 -35 -5 -62q-16 -21 -47 -21q-46 0 -60 35q-7 19 2 40l37 84l-214 398h-53v34h196v-34h-103l195 -361l194 361h-104z" />
    <glyph glyph-name="uni0265" unicode="&#x265;" 
d="M456 257q-2 -2 -38 -22q-82 -42 -137 -42q-69 0 -126 55q-45 43 -45 88v262h-84v34h208v-34h-87v-262q0 -35 45 -71q43 -35 89 -35q66 0 169 66l6 4v298h-84v34h208v-34h-87v-557l87 23v-34l-124 -31v258z" />
    <glyph glyph-name="uni0266" unicode="&#x266;" 
d="M117 34v508q0 60 44 84q17 9 39 9q56 0 65 -40q1 -5 1 -10q1 -24 -25 -27q-28 -4 -42 19q-5 9 -5 21q0 10 6 21q-25 10 -40 -13q-6 -10 -6 -22v-211l39 22q82 42 137 42q68 0 125 -55q45 -44 45 -89v-259h85v-34h-208v34h86v259q0 35 -44 71q-43 36 -89 36
q-67 0 -167 -65q-5 -3 -9 -6v-295h85v-34h-208v34h86z" />
    <glyph glyph-name="uni0267" unicode="&#x267;" 
d="M463 293q0 35 -44 71q-43 36 -89 36q-67 0 -167 -65q-5 -3 -9 -6v-295h85v-34h-208v34h86v508q0 60 44 84q17 9 39 9q56 0 65 -40q1 -5 1 -10q1 -24 -25 -27q-28 -4 -42 19q-5 9 -5 21q0 10 6 21q-25 10 -40 -13q-6 -10 -6 -22v-211l39 22q82 42 137 42q68 0 125 -55
q45 -44 45 -89v-261q0 -53 -48 -81q-24 -14 -53 -14q-56 0 -65 40q-1 5 -1 10q-1 24 25 27q28 4 42 -19q5 -9 5 -21q0 -10 -6 -21q21 -8 47 19q17 19 17 39v282z" />
    <glyph glyph-name="uni0268" unicode="&#x268;" 
d="M289 392h-186v34h223v-198h150v-34h-150v-160h173v-34h-396v34h186v160h-134v34h134v164zM326 562v-97h-74v97h74z" />
    <glyph glyph-name="uni0269" unicode="&#x269;" 
d="M326 426v-300q0 -41 29 -76q19 -22 39 -22q34 0 54 20q4 4 6 8q-10 18 -10 28q0 42 29 53q24 8 37 -14q7 -10 6 -26q-1 -27 -44 -64q-41 -34 -77 -34q-50 0 -81 48q-25 37 -25 92v253h-186v34h223z" />
    <glyph glyph-name="uni026A" unicode="&#x26a;" 
d="M285 392h-195v34h421v-34h-190v-358h189v-34h-421v34h196v358z" />
    <glyph glyph-name="uni026B" unicode="&#x26b;" 
d="M255 589l-163 -40v34l200 49v-292q3 -2 8 -2q29 0 50 27h4q3 -38 -24 -58q-13 -9 -28 -9q-7 0 -10 1v-265h216v-34h-416v34h163v287q-11 9 -20 9q-36 0 -56 -32h-9q0 39 35 61q16 10 33 10q7 0 17 -4v224z" />
    <glyph glyph-name="uni026C" unicode="&#x26c;" 
d="M255 311v107q-84 -7 -87 -52q0 -50 87 -55zM255 589l-163 -40v34l200 49v-322h85v-34h-85v-242h216v-34h-416v34h163v243q-110 6 -120 76q-1 6 -1 13q0 62 87 81q17 4 34 5v137z" />
    <glyph glyph-name="uni026D" unicode="&#x26d;" 
d="M357 -79q-6 11 -6 21q0 32 30 39q28 7 39 -12q3 -6 3 -14q-1 -41 -48 -49q-8 -1 -18 -1q-54 0 -85 43q-17 23 -17 52v589l-163 -40v34l200 49v-641q0 -23 29 -53q22 -23 36 -17z" />
    <glyph glyph-name="uni026E" unicode="&#x26e;" 
d="M466 296q0 34 -44 71q-43 36 -89 36q-68 0 -176 -71v-298h85v-34h-209v34h87v556l-87 -23v34l124 31v-256q36 19 39 21q78 43 136 43q69 0 126 -57q45 -43 45 -87q0 -26 -42 -153q-26 -81 -26 -104q0 -20 29 -48q34 -33 37 -60q1 -5 1 -11q0 -102 -171 -109h-81
q-132 0 -168 54q-19 27 -19 69h37q0 -59 55 -75q33 -10 95 -10q94 0 105 1q110 9 110 70q0 18 -28 46q-35 33 -38 62q-1 5 -1 11q0 32 41 154q27 79 27 103z" />
    <glyph glyph-name="uni026F" unicode="&#x26f;" 
d="M286 55q-36 -44 -89 -63q-11 -4 -18 -4q-79 0 -92 83q-3 21 -3 61v260h-85v34h122l1 -293v-1q0 -62 11 -82q13 -25 46 -25q40 0 101 70l-1 36v1v260h-84v34h122v-294q0 -107 58 -107q41 0 100 71v296h-84v34h208v-34h-87v-358h87v-34h-124v52q-14 -30 -68 -54
q-21 -10 -32 -10q-71 0 -89 67z" />
    <glyph glyph-name="uni0270" unicode="&#x270;" 
d="M286 55q-36 -44 -89 -63q-11 -4 -18 -4q-79 0 -92 83q-3 21 -3 61v260h-85v34h122v-294q0 -64 12 -84q15 -23 46 -23q40 0 101 70l-1 36v1v260h-84v34h122v-294q0 -56 3 -68q11 -39 55 -39q41 0 100 71v296h-84v34h208v-34h-87v-517h87v-34h-124v211q-14 -30 -68 -54
q-21 -10 -32 -10q-71 0 -89 67z" />
    <glyph glyph-name="uni0271" unicode="&#x271;" 
d="M443 -119q38 21 49 50q2 7 2 13q0 1 -1 352q0 62 -11 82q-14 25 -47 25q-37 0 -100 -70v-37v-262h85v-34h-122v296q0 56 -3 68q-11 39 -55 39q-39 0 -96 -66l-5 -5v-298h85v-34h-208v34h87v358h-87v34h124v-50q14 30 68 54q21 10 32 10q71 0 89 -67q36 44 89 63
q11 4 18 4q80 0 92 -85q3 -21 3 -59v-325q0 -57 -48 -91q-26 -19 -56 -20q-49 -1 -58 35q-7 29 15 46q10 8 23 8q28 1 35 -24q5 -19 -10 -36q-10 -12 -16 -15q13 0 27 7z" />
    <glyph glyph-name="uni0272" unicode="&#x272;" 
d="M60 -116q37 20 47 50q2 7 2 13v445h-87v34h124v-50q20 12 38 21q80 43 137 43q68 0 125 -54q46 -44 46 -90v-262h84v-34h-208v34h87v262q0 35 -45 72q-43 35 -89 35q-66 0 -171 -68q-3 -1 -5 -3v-358q0 -87 -72 -106q-14 -4 -30 -5q-47 -1 -57 34q-8 28 14 46q10 9 24 9
q27 1 34 -24q5 -19 -10 -36q-10 -12 -16 -15q14 0 28 7z" />
    <glyph glyph-name="uni0273" unicode="&#x273;" 
d="M568 -130q-6 3 -16 15q-21 24 -5 46q10 14 29 14q31 0 39 -29q10 -31 -17 -49q-16 -11 -41 -11q-56 0 -86 49q-16 28 -16 62v329q0 35 -45 72q-43 35 -89 35q-66 0 -171 -68q-3 -1 -5 -3v-298h85v-34h-208v34h87v358h-87v34h123v-50q33 18 39 21q80 43 137 43
q68 0 125 -55q45 -44 45 -89v-352q8 -43 44 -64q15 -9 33 -10z" />
    <glyph glyph-name="uni0274" unicode="&#x274;" 
d="M484 47v345h-104v34h187v-34h-46v-392h-37l-378 392v-358h103v-34h-186v34h46v358h-46v34h106q114 -132 355 -379z" />
    <glyph glyph-name="uni0275" unicode="&#x275;" 
d="M300 427q101 0 169 -72q56 -61 56 -142q0 -96 -76 -160q-64 -54 -149 -54q-101 0 -169 72q-56 61 -56 142q0 96 76 160q64 54 149 54zM113 196q8 -80 78 -127q49 -33 109 -33q90 0 146 66q36 41 41 94h-374zM300 390q-90 0 -146 -66q-36 -41 -41 -94h374q-8 80 -78 127
q-49 33 -109 33z" />
    <glyph glyph-name="uni0276" unicode="&#x276;" 
d="M270 37v352q-130 0 -178 -83q-23 -39 -23 -94q0 -120 108 -160q41 -15 93 -15zM481 325v-125h-34v52h-140v-218h219l12 79h34l-12 -113h-290q-134 0 -197 83q-41 52 -41 129q0 131 107 185q56 29 131 29h290l9 -108h-34l-9 74h-219v-106h140v39h34z" />
    <glyph glyph-name="uni0277" unicode="&#x277;" 
d="M89 181q0 -77 48 -126q32 -32 73 -32q49 0 73 38q10 17 10 35v213h37v-213q0 -36 39 -59q20 -12 43 -12q66 0 103 69q23 44 23 98q0 95 -77 158q-64 52 -149 52q-97 0 -165 -73q-58 -64 -58 -148zM313 38q-32 -46 -92 -52h-11q-84 0 -130 83q-28 51 -28 112q0 111 82 188
q76 70 178 70q111 0 190 -76q73 -71 73 -171q0 -92 -53 -153q-45 -51 -110 -51q-55 0 -93 43q-3 3 -6 7z" />
    <glyph glyph-name="uni0278" unicode="&#x278;" 
d="M285 123v297q-78 -7 -120 -69q-25 -37 -25 -80q0 -71 60 -116q37 -28 85 -32zM322 420v-297q77 10 116 72q22 35 22 76q0 73 -61 118q-34 26 -77 31zM285 528h-195v34h421v-34h-189v-71q90 -10 141 -80q34 -48 34 -106q0 -86 -69 -142q-46 -36 -106 -43v-52h188v-34h-421
v34h196v52q-90 6 -144 75q-38 49 -38 110q0 85 69 141q49 41 113 45v71z" />
    <glyph glyph-name="uni0279" unicode="&#x279;" 
d="M65 63q15 -16 62 -32q23 -8 39 -8q64 0 159 56q13 8 24 15v298h-85v34h208v-34h-86v-358h86v-34h-123v50q-36 -19 -39 -21q-80 -43 -144 -43q-62 0 -117 41q-8 6 -15 12z" />
    <glyph glyph-name="uni027A" unicode="&#x27a;" 
d="M65 73q15 -16 62 -32q23 -8 39 -8q64 0 159 56q13 8 24 15v494h-85v34h208v-34h-86v-554h86v-34h-123v50q-36 -19 -39 -21q-80 -43 -144 -43q-62 0 -117 41q-8 6 -15 12z" />
    <glyph glyph-name="uni027B" unicode="&#x27b;" 
d="M386 392v-428q0 -22 29 -38q20 -11 34 -5q-6 11 -6 21q0 32 30 39q28 7 39 -12q3 -6 3 -14q-1 -41 -48 -49q-8 -1 -18 -1q-55 0 -85 44q-15 23 -15 51v50q-36 -19 -39 -21q-80 -43 -144 -43q-62 0 -117 41q-8 6 -15 12l31 24q15 -16 62 -32q23 -8 39 -8q64 0 159 56
q13 8 24 15v298h-85v34h208v-34h-86z" />
    <glyph glyph-name="uni027C" unicode="&#x27c;" 
d="M463 364q-16 16 -64 32q-22 7 -37 7q-62 0 -158 -56q-13 -8 -24 -15v-495h84v-34h-208v34h87v555h-87v34h124v-50q4 3 38 22q82 42 144 42q64 0 119 -42q7 -5 13 -11z" />
    <glyph glyph-name="uni027D" unicode="&#x27d;" 
d="M249 -79q-6 11 -6 21q0 32 30 39q27 7 39 -12q3 -6 3 -14q0 -40 -46 -48q-9 -2 -20 -2q-55 0 -85 43q-16 24 -16 52v392h-86v34h123v-51q33 18 39 21q80 43 144 43q62 0 117 -41q8 -6 15 -12l-31 -24q-15 16 -62 32q-23 8 -39 8q-63 0 -162 -58q-11 -7 -21 -13v-343
q0 -24 29 -52q21 -21 35 -15z" />
    <glyph glyph-name="uni027E" unicode="&#x27e;" 
d="M259 333q0 53 48 81q24 14 52 14q62 -6 66 -50q0 -24 -26 -27q-27 -4 -41 19q-5 9 -5 21q0 11 6 21q-20 8 -46 -14q-17 -14 -17 -29v-335h87v-34h-208v34h84v299z" />
    <glyph glyph-name="uni027F" unicode="&#x27f;" 
d="M322 333v-299h84v-34h-208v34h87v335q0 22 -29 38q-21 11 -34 5q6 -10 6 -21q0 -32 -30 -39q-27 -7 -39 12q-3 6 -3 14q0 40 46 48q9 2 20 2q55 0 85 -44q15 -23 15 -51z" />
    <glyph glyph-name="uni0280" unicode="&#x280;" 
d="M143 212h239q114 0 114 90q0 76 -70 87q-17 3 -44 3h-239v-180zM346 178q89 -81 114 -144h70v-34h-94q-30 81 -106 147q-16 15 -37 31h-151v-144h130v-34h-263v34h97v358h-97v34h373q130 0 146 -94q2 -14 2 -30q0 -96 -98 -119q-24 -5 -50 -5h-36z" />
    <glyph glyph-name="uni0281" unicode="&#x281;" 
d="M143 214v-180h239q75 0 98 31q16 22 16 59q0 90 -114 90h-239zM346 248h36q95 0 131 -58q17 -27 17 -66q0 -119 -134 -124h-14h-373v34h97v358h-97v34h263v-34h-130v-144h151q94 73 129 146q8 15 14 32h94v-34h-70q-23 -61 -114 -144z" />
    <glyph glyph-name="uni0282" unicode="&#x282;" 
d="M173 23q-4 -13 -15 -35q-9 -20 15 -61q27 -47 54 -36q-6 11 -6 21q0 32 30 40q27 8 39 -12q3 -7 3 -15q0 -40 -46 -48q-9 -2 -20 -2q-51 0 -86 43q-30 36 -17 70l14 33q9 20 9 39t-19 50q-2 4 -4 6h34l13 -22q39 -55 113 -61q7 -1 14 -1q94 0 128 44q13 16 13 36
q0 46 -69 69l-145 35q-91 29 -99 94q-1 7 -1 15q0 62 84 92q44 15 95 15q50 0 101 -27q10 -7 12 0q3 18 9 27h34q-12 -24 -12 -49q0 -40 24 -62h-34q-31 49 -90 67q-21 7 -44 7q-104 0 -134 -43q-8 -12 -8 -27q0 -51 74 -76l146 -37q87 -28 93 -89q1 -5 1 -11q0 -64 -78 -98
q-46 -19 -100 -19q-63 0 -114 33q-8 6 -11 -5z" />
    <glyph glyph-name="uni0283" unicode="&#x283;" 
d="M265 505q0 61 65 101q41 24 84 24q85 0 148 -47l-21 -30q-57 40 -126 40q-54 0 -91 -40q-22 -23 -22 -48v-563q0 -61 -65 -101q-41 -24 -84 -24q-85 0 -148 47l21 30q57 -40 126 -40q54 0 91 40q22 23 22 48v563z" />
    <glyph glyph-name="uni0284" unicode="&#x284;" 
d="M265 505q0 61 65 101q41 24 84 24q85 0 148 -47l-21 -30q-57 40 -126 40q-54 0 -91 -40q-22 -23 -22 -48v-63h90v-34h-90v-358h90v-34h-90v-74q0 -61 -65 -101q-41 -24 -84 -24q-85 0 -148 47l21 30q57 -40 126 -40q54 0 91 40q22 23 22 48v74h-90v34h90v358h-90v34h90
v63z" />
    <glyph glyph-name="uni0285" unicode="&#x285;" 
d="M316 505v-563q0 -39 46 -68q32 -20 66 -20q71 0 126 40l22 -30q-63 -47 -148 -47q-62 0 -110 44q-39 35 -39 81v563q0 39 -47 68q-32 20 -66 20q-69 0 -126 -40l-22 30q65 47 148 47q62 0 110 -43q40 -36 40 -82z" />
    <glyph glyph-name="uni0286" unicode="&#x286;" 
d="M265 7q-59 12 -99 -15q-28 -18 -28 -51q0 -55 40 -72q12 -5 24 -5q38 0 55 38q8 18 8 41v64zM265 505q0 61 65 101q41 24 84 24q85 0 148 -47l-21 -30q-57 40 -126 40q-54 0 -91 -40q-22 -23 -22 -48v-470q70 -29 99 -113q12 -34 12 -69h-37q0 74 -49 122q-12 11 -25 19
v-52q0 -76 -55 -104q-20 -10 -43 -10q-58 0 -87 49q-16 27 -16 64q0 70 74 96q42 15 90 8v460z" />
    <glyph glyph-name="uni0287" unicode="&#x287;" 
d="M535 125h-78v-132h-37v132h-252v34h252v251q0 53 -55 92q-42 30 -93 30q-73 0 -187 -114l-27 24q69 78 147 111q37 16 67 16q79 0 137 -56q48 -45 48 -103v-251h78v-34z" />
    <glyph glyph-name="uni0288" unicode="&#x288;" 
d="M245 -112q-5 3 -16 15q-21 24 -5 46q10 14 29 14q30 0 38 -29q9 -31 -18 -49q-15 -11 -39 -11q-53 0 -84 49q-18 29 -18 62v407h-79v34h78v132h37v-132h252v-34h-252v-441q6 -36 46 -55q15 -7 31 -8z" />
    <glyph glyph-name="uni0289" unicode="&#x289;" 
d="M144 273l-1 -141v-1q0 -35 45 -72q43 -35 89 -35q66 0 171 68q3 1 5 3v178h-309zM453 51q-33 -18 -39 -21q-80 -43 -137 -43q-68 0 -125 55q-45 44 -45 89v142h-83v34h83v85h-85v34h122v-119h309v85h-85v34h122v-119h88v-34h-88v-239h86v-34h-123v51z" />
    <glyph glyph-name="uni028A" unicode="&#x28a;" 
d="M350 426h140l40 -65l-29 -18l-30 49h-85q6 -52 48 -118q36 -55 41 -88q1 -10 1 -20q0 -79 -67 -130q-49 -37 -110 -37q-83 0 -137 57q-41 43 -41 102q0 52 42 115q38 57 45 83q5 18 5 36h-84l-30 -49l-29 18l40 65h141q0 -70 -21 -112q-10 -19 -30 -50q-39 -57 -42 -96
v-10q0 -58 55 -96q39 -26 86 -26q70 0 113 54q27 34 27 76q0 32 -32 82q-41 65 -51 115q-6 29 -6 63z" />
    <glyph glyph-name="uni028B" unicode="&#x28b;" 
d="M277 -13q-141 0 -172 134q-11 48 -11 162q0 30 13 109h-85v34h126l-15 -112q-2 -21 -2 -34q0 -124 21 -175q32 -81 125 -81q80 0 138 80q50 68 50 147q0 34 -9 141h-88v34h122l11 -138q1 -14 1 -24q0 -137 -83 -217q-61 -60 -142 -60z" />
    <glyph glyph-name="uni028C" unicode="&#x28c;" 
d="M8 34h76l200 406h28l201 -406h75v-34h-191v34h74l-173 352l-173 -352h74v-34h-191v34z" />
    <glyph glyph-name="uni028D" unicode="&#x28d;" 
d="M525 34l-106 336l-105 -270h-27l-104 270l-106 -336h125v-34h-201v34h37l130 415h23l110 -281l109 281h24l129 -415h38v-34h-201v34h125z" />
    <glyph glyph-name="uni028E" unicode="&#x28e;" 
d="M314 594h284v-34h-212l-67 -134l194 -392h75v-34h-191v34h74l-172 350l-174 -350h74v-34h-191v34h76l260 526h-30v34z" />
    <glyph glyph-name="uni028F" unicode="&#x28f;" 
d="M317 34h58v-34h-152v34h57v170l-186 188h-35v34h141v-34h-60l160 -156l160 156h-60v34h141v-34h-35l-189 -188v-170z" />
    <glyph glyph-name="uni0290" unicode="&#x290;" 
d="M601 -102q-49 0 -88 43q-27 29 -27 59h-387v34l348 358h-330v-36h-34v70h416v-34l-348 -358h332v36h34v-77q0 -32 35 -64q20 -18 35 -18q7 0 14 3q-6 10 -6 21q0 32 30 39q28 7 39 -12q3 -6 3 -14q-1 -41 -48 -49q-8 -1 -18 -1z" />
    <glyph glyph-name="uni0291" unicode="&#x291;" 
d="M269 34h84q52 0 79 17q13 8 13 19q-4 35 -88 36q-49 0 -88 -72zM151 34h80q35 75 91 99q17 7 35 7q99 0 118 -49q4 -10 4 -21q0 -55 -91 -68q-18 -2 -35 -2h-98q-10 -26 -10 -50h-34q0 23 8 50h-120v34l348 358h-330v-36h-34v70h416v-34z" />
    <glyph glyph-name="uni0292" unicode="&#x292;" 
d="M156 181v38l217 173h-250v-36h-34v70h336v-34l-217 -173l29 -1h1q97 0 165 -70q59 -61 59 -142q0 -98 -79 -161q-65 -52 -154 -52q-70 0 -126 34l-12 8l20 33q57 -38 118 -38q94 0 153 66q43 48 43 110q0 83 -68 135q-51 40 -119 40h-82z" />
    <glyph glyph-name="uni0293" unicode="&#x293;" 
d="M394 -89q-86 57 -172 57q-57 0 -85 -39q-12 -17 -12 -38q0 -40 54 -55q23 -7 50 -7q95 0 154 68q6 7 11 14zM425 6q0 83 -68 135q-51 40 -119 40h-82v38l217 173h-250v-36h-34v70h336v-34l-217 -173l29 -1h1q99 0 167 -71q57 -60 57 -141q0 -46 -18 -85q38 -30 67 -56
l-24 -28q-50 43 -62 52q-57 -80 -160 -95q-18 -2 -36 -2q-77 0 -117 40q-24 24 -24 59q0 66 65 98q32 16 69 16q95 0 190 -62q13 29 13 63z" />
    <glyph glyph-name="uni0294" unicode="&#x294;" 
d="M284 0v205q0 45 55 92l57 48q42 41 42 86q0 62 -75 87q-32 11 -70 11q-82 0 -118 -39q-17 -18 -17 -41v-18h-37v18q0 69 82 100q40 15 89 15q100 0 151 -53q32 -33 32 -80q0 -63 -67 -121l-59 -52q-28 -28 -28 -53v-205h-37z" />
    <glyph glyph-name="uni0295" unicode="&#x295;" 
d="M313 0h-37v205q0 31 -48 72q-55 46 -67 60q-39 44 -39 94q0 82 89 117q42 16 94 16q96 0 144 -49q27 -28 27 -66v-18h-37v18q0 48 -67 70q-31 10 -68 10q-86 0 -125 -45q-20 -23 -20 -53q0 -50 58 -100l58 -49q38 -38 38 -77v-205z" />
    <glyph glyph-name="uni0296" unicode="&#x296;" 
d="M285 562h37v-205q0 -31 48 -72q55 -46 67 -60q39 -44 39 -94q0 -82 -89 -117q-42 -16 -94 -16q-96 0 -144 49q-27 28 -27 66v18h37v-18q0 -48 67 -70q31 -10 68 -10q86 0 125 45q20 23 20 53q0 50 -58 100l-58 49q-38 38 -38 77v205z" />
    <glyph glyph-name="uni0297" unicode="&#x297;" 
d="M307 633q63 0 112 -44q10 -7 12 1q2 19 12 41h34q-13 -39 -13 -70q0 -23 19 -68h-35q-20 65 -84 92q-28 11 -57 11q-123 0 -136 -95q-1 -10 -1 -21v-304q0 -93 46 -122q31 -19 91 -19q72 0 124 60q2 3 4 5l31 -21q-55 -70 -138 -80q-11 -1 -21 -1q-132 0 -163 92
q-11 35 -11 86v306q0 91 76 130q41 21 98 21z" />
    <glyph glyph-name="uni0298" unicode="&#x298;" 
d="M300 427q101 0 169 -72q56 -61 56 -142q0 -96 -76 -160q-64 -54 -149 -54q-101 0 -169 72q-56 61 -56 142q0 96 76 160q64 54 149 54zM300 390q-88 0 -145 -65q-43 -49 -43 -112q0 -83 67 -136q52 -41 121 -41q95 0 149 67q39 47 39 110q0 84 -69 137q-51 40 -119 40z
M228 212q0 37 37 55q16 7 34 7q43 0 63 -34q8 -13 8 -28q0 -37 -38 -55q-15 -7 -33 -7q-45 0 -64 35q-7 13 -7 27z" />
    <glyph glyph-name="uni0299" unicode="&#x299;" 
d="M207 293h151q95 0 95 49q0 50 -95 50h-151v-99zM207 34h151q100 0 100 116q0 67 -56 97q-22 12 -44 12h-151v-225zM419 272q53 -21 69 -83q4 -19 4 -39q0 -138 -115 -149q-9 -1 -19 -1h-277v34h89v358h-89v34h277q108 0 125 -57q4 -12 4 -27q0 -59 -56 -68z" />
    <glyph glyph-name="uni029A" unicode="&#x29a;" 
d="M488 213q0 83 -68 136q-51 40 -119 40q-137 0 -164 -37q-8 -10 -8 -24q0 -44 123 -62q36 -5 64 -5h35v-37h-35q-56 0 -125 -24q-76 -27 -76 -66q0 -80 132 -95q25 -3 54 -3q89 0 145 66q42 48 42 111zM78 134q0 58 66 86q40 17 99 18q-140 6 -150 80q-1 5 -1 10
q4 98 209 99q102 0 169 -73q55 -60 55 -141q0 -99 -77 -162q-62 -51 -147 -51q-211 0 -222 121q-1 6 -1 13z" />
    <glyph glyph-name="uni029B" unicode="&#x29b;" 
d="M532 445q-23 9 -33 -29q-13 -36 -13 -69q0 -23 19 -68h-35q-18 59 -81 92q-36 18 -71 18q-102 0 -160 -61q-45 -46 -45 -116q0 -89 77 -141q53 -36 117 -36q77 0 134 56q42 40 44 88h-110v34h145v-34q-2 -77 -75 -133q-62 -48 -138 -48q-110 0 -177 72q-54 58 -54 142
q0 123 102 181q60 33 140 33q77 0 123 -51q10 -8 12 1q3 26 12 40l16 23q20 22 51 22q56 0 65 -40q1 -5 1 -10q1 -24 -25 -27q-28 -4 -42 19q-5 9 -5 21q0 10 6 21z" />
    <glyph glyph-name="uni029C" unicode="&#x29c;" 
d="M164 283h273v109h-98v34h230v-34h-95v-358h94v-34h-230v34h99v212h-273v-212h97v-34h-230v34h96v358h-96v34h230v-34h-97v-109z" />
    <glyph glyph-name="uni029D" unicode="&#x29d;" 
d="M289 -39q-64 31 -124 31q-55 0 -100 -26q-35 -21 -35 -51q0 -51 79 -66q22 -4 46 -4q48 0 95 46q36 35 39 70zM-7 -85q0 73 94 102q38 12 78 12q63 0 125 -27v390h-131v34h168v-443l86 -45l-17 -33q-12 6 -72 38q-9 -54 -68 -98q-50 -37 -101 -37q-107 0 -146 54
q-16 23 -16 53zM326 562v-97h-74v97h74z" />
    <glyph glyph-name="uni029E" unicode="&#x29e;" 
d="M246 598h-36l161 -198l33 26v206h137v-34h-100v-551l100 36v-34l-137 -49v378l-165 -138h33v-34h-170v34h79l162 136l-181 222h-93v34h177v-34z" />
    <glyph glyph-name="uni029F" unicode="&#x29f;" 
d="M183 392h-84v34h208v-34h-87v-358h247l15 131h34l-14 -165h-404v34h85v358z" />
    <glyph glyph-name="uni02A0" unicode="&#x2a0;" 
d="M610 471q0 -22 -26 -26q-29 -4 -41 19q-5 9 -5 20t7 21q-20 8 -48 -28q-17 -22 -17 -37v-586h80v-34h-239v34h123v241q-55 -78 -151 -93q-18 -3 -36 -3q-103 0 -170 74q-55 60 -55 140q0 97 76 161q63 53 148 53q102 0 169 -73q10 -11 18 -23v95q0 43 41 74q28 21 60 21
q41 5 59 -25q7 -11 7 -25zM444 213q0 86 -71 139q-52 38 -116 38q-90 0 -147 -66q-41 -49 -41 -111q0 -83 68 -136q51 -41 119 -41q86 0 143 62q45 49 45 115z" />
    <glyph glyph-name="uni02A1" unicode="&#x2a1;" 
d="M286 0v96h-73v34h73v75q0 45 55 92l57 48q42 41 42 86q0 61 -72 86q-32 12 -70 12q-86 0 -122 -40q-16 -18 -16 -40v-18h-37v18q0 69 79 101q41 16 91 16q99 0 151 -53q33 -34 33 -82q0 -63 -67 -121l-59 -52q-28 -28 -28 -53v-75h73v-34h-73v-96h-37z" />
    <glyph glyph-name="uni02A2" unicode="&#x2a2;" 
d="M311 0h-37v96h-73v34h73v75q0 31 -48 72q-55 46 -67 60q-39 44 -39 94q0 80 87 117q44 18 97 18q94 0 142 -49q28 -29 28 -68v-18h-37v18q0 49 -67 70q-31 10 -68 10q-86 0 -125 -45q-20 -23 -20 -53q0 -50 58 -100l58 -49q38 -38 38 -77v-75h73v-34h-73v-96z" />
    <glyph glyph-name="uni02A3" unicode="&#x2a3;" 
d="M273 56l234 336h-234v-336zM151 428q52 0 85 -58v221l-121 -26v34l158 33v-206h282v-34l-251 -358h4h231v36h34v-70h-337v56q-33 -58 -85 -58q-62 0 -98 83q-26 59 -26 132q0 106 48 171q33 44 76 44zM151 391q-39 0 -65 -59q-22 -49 -22 -119q0 -103 47 -156
q20 -22 40 -22q31 0 58 45t27 106v54q0 101 -47 138q-17 13 -38 13z" />
    <glyph glyph-name="uni02A4" unicode="&#x2a4;" 
d="M163 428q49 0 84 -58v221l-122 -26v34l160 33v-206h236v-34l-153 -173l29 -1h1q80 0 127 -78q33 -57 33 -134q0 -101 -64 -166q-47 -47 -105 -47q-63 0 -115 35l20 33q48 -31 95 -31q60 0 100 63q32 49 32 113q0 89 -52 142q-32 33 -71 33h-82v35q0 2 1 3l152 173h-184
v-358h33v-34h-71v56q-35 -58 -84 -58q-62 0 -97 86q-24 57 -24 129q0 109 48 173q31 42 73 42zM163 391q-38 0 -63 -60q-21 -49 -21 -118q0 -106 46 -157q19 -21 38 -21q32 0 59 46q25 44 25 105v54q0 126 -62 147q-10 4 -22 4z" />
    <glyph glyph-name="uni02A5" unicode="&#x2a5;" 
d="M152 391q-38 0 -63 -60q-21 -49 -21 -118q0 -106 46 -157q19 -21 38 -21q32 0 59 46q25 44 25 105v54q0 126 -62 147q-10 4 -22 4zM273 56l234 336h-234v-336zM396 34q166 0 166 38q0 15 -32 25q-21 6 -48 6q-46 0 -86 -69zM151 428q52 0 85 -58v221l-121 -26v34l158 33
v-206h282v-34l-251 -358h53q53 103 123 103q74 0 103 -33q13 -14 13 -32q0 -73 -189 -72h-28q-10 -21 -26 -69l-32 10q8 30 21 59h-106v56q-33 -58 -85 -58q-62 0 -98 83q-26 59 -26 132q0 106 48 171q33 44 76 44z" />
    <glyph glyph-name="uni02A6" unicode="&#x2a6;" 
d="M300 0q-82 0 -139 57q-45 45 -45 102v233h-79v34h79v132h37v-132h79v-34h-79v-233q0 -53 54 -92q43 -30 93 -30h84q95 0 130 44q12 16 12 36q0 46 -62 63l-130 25q-83 22 -93 88q-1 9 -1 19q0 68 81 95q35 12 77 12q45 0 94 -28q11 -5 12 1q1 16 9 27h34q-12 -24 -12 -49
q0 -34 20 -58q1 -2 3 -4h-34q-25 46 -78 66q-23 8 -48 8q-121 0 -121 -70q0 -51 66 -70q7 -2 95 -19q90 -17 113 -58q12 -20 12 -48q0 -64 -78 -97q-46 -20 -101 -20h-84z" />
    <glyph glyph-name="uni02A7" unicode="&#x2a7;" 
d="M368 19v373h-224v-251q0 -53 56 -92q42 -30 92 -30h76zM368 505q0 62 65 101q41 24 84 24q85 0 148 -47l-22 -30q-55 40 -126 40q-53 0 -90 -40q-22 -23 -22 -48v-563q0 -61 -65 -100q-41 -25 -85 -25q-83 0 -148 47l22 30q57 -40 126 -40q54 0 91 40q22 23 22 48v39h-76
q-78 0 -136 56q-48 46 -48 104v251h-79v34h78v132h37v-132h224v79z" />
    <glyph glyph-name="uni02A8" unicode="&#x2a8;" 
d="M6 426h79v132h37v-132h79v-34h-79v-251q0 -86 35 -100q9 -4 21 -4q42 0 68 23l18 -30q-35 -30 -86 -30q-72 0 -87 75q-6 26 -6 66v251h-79v34zM341 98q34 -46 87 -58q13 -3 26 -3q66 0 92 48q9 16 9 33q0 43 -56 59q-20 6 -40 6q-59 0 -103 -60q-9 -12 -15 -25zM264 214
q0 97 68 164q51 50 110 50q50 0 77 -16q9 -6 19 -14q12 -10 14 2l4 22l34 -7q0 -2 -15 -56q12 -18 19 -36l-36 -12q-43 80 -116 80q-58 0 -102 -59q-39 -52 -39 -118q0 -55 17 -84q18 44 74 72q35 18 67 18q70 0 110 -43q23 -25 23 -59q0 -65 -56 -98q-34 -20 -82 -20
q-67 0 -131 62q-20 -45 -20 -113h-37q0 81 30 144q-32 46 -32 121z" />
    <glyph glyph-name="uni02A9" unicode="&#x2a9;" 
d="M166 426h134v-51q70 64 123 64q72 0 113 -65q23 -38 23 -79v-327q0 -71 -47 -122q-40 -44 -95 -44q-80 0 -125 30l17 33q43 -24 109 -26q49 0 82 56q21 35 21 73v327q0 47 -34 81q-26 26 -64 26q-42 0 -88 -40l-35 -31v-297h85v-34h-329v34h73v358h-73v34h73v79
q0 62 65 101q41 24 84 24q95 0 178 -60l-22 -30q-77 50 -156 53q-54 0 -90 -40q-22 -23 -22 -48v-79zM166 34h97v358h-97v-358z" />
    <glyph glyph-name="uni02AA" unicode="&#x2aa;" 
d="M232 247v-137q34 -64 111 -76h60q87 10 104 59q3 9 3 19q0 46 -68 68l-146 36q-41 13 -64 31zM195 588l-142 -39v34l179 49v-240q53 40 143 40q50 0 101 -27q10 -7 12 0q3 18 9 27h34q-12 -24 -12 -49q0 -40 24 -62h-35q-21 39 -73 61q-30 13 -60 13q-104 0 -134 -43
q-8 -12 -8 -27q0 -51 74 -76l146 -37q87 -28 93 -89q1 -5 1 -11q0 -67 -80 -99q-34 -13 -61 -13h-353v34h142v554z" />
    <glyph glyph-name="uni02AB" unicode="&#x2ab;" 
d="M220 58l260 334h-260v-334zM532 392l-280 -358h264v36h34v-70h-500v34h133v555l-133 -40v34l170 49v-206h312v-34z" />
    <glyph glyph-name="uni02AC" unicode="&#x2ac;" 
d="M152 255l70 -222l69 178h18l69 -178l70 222h-83v22h133v-22h-25l-85 -275h-16l-72 186l-72 -186h-16l-85 275h-25v22h133v-22h-83zM152 614l70 -222l69 178h18l69 -178l70 222h-83v22h133v-22h-25l-85 -275h-16l-72 186l-72 -186h-16l-85 275h-25v22h133v-22h-83z" />
    <glyph glyph-name="uni02AD" unicode="&#x2ad;" 
d="M137 0v146h326v-146h-24v80h-278v-80h-24zM137 274v146h326v-146h-24v80h-278v-80h-24z" />
    <glyph glyph-name="uni02B0" unicode="&#x2b0;" 
d="M126 508q18 10 24 13q48 25 82 25q46 0 81 -39q21 -24 21 -47v-156h51v-21h-125v21h52v156q0 25 -33 48q-23 16 -47 16q-42 0 -106 -42v-178h51v-21h-125v21h52v333l-52 -13v20l74 19v-155z" />
    <glyph glyph-name="uni02B1" unicode="&#x2b1;" 
d="M93 307v306q0 41 32 52q8 3 17 3q38 0 40 -30q1 -16 -17 -16q-20 -1 -25 17q-1 3 -1 7q0 7 3 13q-16 7 -25 -10q-2 -5 -2 -11v-127q13 8 23 13q48 25 82 25q46 0 81 -39q21 -24 21 -47v-156h51v-21h-125v21h52v156q0 25 -33 48q-23 16 -47 16q-43 0 -105 -42v-178h51v-21
h-125v21h52z" />
    <glyph glyph-name="uni02B2" unicode="&#x2b2;" 
d="M203 582v-58h-44v58h44zM53 165q24 -16 66 -16q32 0 53 41q9 18 9 36v254h-78v21h101v-275q0 -42 -32 -75q-24 -24 -53 -24q-51 0 -75 18z" />
    <glyph glyph-name="uni02B3" unicode="&#x2b3;" 
d="M303 462q-11 12 -44 21q-10 3 -17 3q-42 0 -103 -39l-6 -4v-178h50v-20h-124v20h51v215h-51v20h74v-30q2 1 23 13q48 25 86 25q44 0 79 -31z" />
    <glyph glyph-name="uni02B4" unicode="&#x2b4;" 
d="M54 282q11 -13 44 -22q9 -2 16 -2q43 0 105 40q3 1 5 3v178h-51v20h125v-20h-52v-214h52v-21h-74v30q-3 -1 -24 -13q-48 -25 -86 -25q-43 0 -79 32z" />
    <glyph glyph-name="uni02B5" unicode="&#x2b5;" 
d="M253 459v-257q0 -14 21 -24q10 -4 17 -1q-3 6 -3 12q0 20 20 24q19 4 23 -11v-5q-2 -30 -40 -30q-37 0 -54 32q-6 12 -6 25v30q-2 -1 -23 -13q-48 -25 -86 -25q-44 0 -79 31l18 15q11 -12 44 -21q10 -3 17 -3q42 0 109 42v179h-51v20h125v-20h-52z" />
    <glyph glyph-name="uni02B6" unicode="&#x2b6;" 
d="M102 370v-108h144q55 0 65 32q3 9 3 22q0 54 -68 54h-144zM224 391h22q67 0 84 -48q4 -12 4 -27q0 -74 -88 -74h-224v20h58v215h-58v21h158v-21h-78v-86h90q62 48 83 98q1 4 3 9h56v-21h-42q-15 -39 -68 -86z" />
    <glyph glyph-name="uni02B7" unicode="&#x2b7;" 
d="M82 478l64 -202l63 162h16l63 -162l63 202h-75v20h121v-20h-23l-78 -250h-14l-65 169l-66 -169h-14l-78 250h-22v20h120v-20h-75z" />
    <glyph glyph-name="uni02B8" unicode="&#x2b8;" 
d="M202 123h-171v21h128l40 81l-116 234h-46v21h115v-21h-45l104 -209l104 209h-44v21h114v-21h-45l-156 -315h18v-21z" />
    <glyph glyph-name="uni02B9" unicode="&#x2b9;" 
d="M52 661h52l-35 -151h-24z" />
    <glyph glyph-name="uni02BA" unicode="&#x2ba;" 
d="M52 661h52l-35 -151h-24zM141 661h52l-35 -151h-24z" />
    <glyph glyph-name="uni02BB" unicode="&#x2bb;" 
d="M197 453l138 204h46l-91 -204h-93z" />
    <glyph glyph-name="afii57929" unicode="&#x2bc;" horiz-adv-x="0" 
d="M370 541q-15 -53 -70 -80q-16 -7 -32 -10l-13 16q24 5 40 30q12 19 2 33q-28 17 -23 53q6 36 39 44q8 2 18 1q40 -2 49 -39q6 -27 -10 -48z" />
    <glyph glyph-name="afii64937" unicode="&#x2bd;" 
d="M-185 672q-21 27 -6 59q13 26 45 28q41 3 54 -34q12 -34 -12 -58q-3 -3 -8 -6q-15 -21 16 -48q13 -12 26 -15l-13 -16q-58 11 -89 61q-9 14 -13 29z" />
    <glyph glyph-name="uni02BE" unicode="&#x2be;" 
d="M328 537l1 33q34 0 41 31q8 30 -15 46q-10 8 -25 8v29q52 -1 68 -46q15 -42 -13 -75q-21 -25 -57 -26z" />
    <glyph glyph-name="uni02BF" unicode="&#x2bf;" 
d="M392 537q-52 2 -69 48q-16 42 11 75q20 24 56 24v-29q-33 0 -41 -31q-7 -31 17 -47q11 -7 25 -7z" />
    <glyph glyph-name="uni02C0" unicode="&#x2c0;" 
d="M177 281v123q0 28 38 59t46 46q9 14 9 31q0 41 -53 55q-52 13 -91 -9q-24 -14 -24 -36v-10h-23v10q0 46 57 64q58 18 110 -7q46 -22 46 -67q0 -39 -46 -78q-36 -30 -42 -41q-5 -8 -5 -17v-123h-22z" />
    <glyph glyph-name="uni02C1" unicode="&#x2c1;" 
d="M190 281h-22v123q0 19 -34 47q-41 34 -51 56q-7 16 -7 33q0 53 61 73q57 19 109 -5q42 -19 42 -58v-10h-22v10q0 33 -48 45q-52 13 -92 -10q-28 -17 -28 -45q0 -31 40 -65q36 -30 44 -43t8 -28v-123z" />
    <glyph glyph-name="uni02C2" unicode="&#x2c2;" 
d="M545 440l-398 -188l398 -199v-38l-484 237l484 229v-41z" />
    <glyph glyph-name="uni02C3" unicode="&#x2c3;" 
d="M52 440v41l484 -229l-484 -237v38l398 199z" />
    <glyph glyph-name="uni02C4" unicode="&#x2c4;" 
d="M483 99l-189 398l-198 -398h-38l237 483l229 -483h-41z" />
    <glyph glyph-name="uni02C5" unicode="&#x2c5;" 
d="M483 505h41l-229 -484l-237 484h38l198 -399z" />
    <glyph glyph-name="circumflex" unicode="&#x2c6;" 
d="M431 400l-14 -14l-115 93l-119 -93l-14 14l121 121h21z" />
    <glyph glyph-name="caron" unicode="&#x2c7;" 
d="M431 521l-120 -121h-21l-121 121l14 14l119 -93l115 93z" />
    <glyph glyph-name="uni02C8" unicode="&#x2c8;" 
d="M52 661h52l-14 -122h-24z" />
    <glyph glyph-name="uni02C9" unicode="&#x2c9;" 
d="M71 562h347v-34h-347v34z" />
    <glyph glyph-name="uni02CA" unicode="&#x2ca;" 
d="M318 715l-148 -153h-40l106 153h82z" />
    <glyph glyph-name="uni02CB" unicode="&#x2cb;" 
d="M119 715h79l103 -149h-39z" />
    <glyph glyph-name="uni02CC" unicode="&#x2cc;" 
d="M73 -1h52l-14 -122h-24z" />
    <glyph glyph-name="uni02CD" unicode="&#x2cd;" 
d="M71 -127h347v-34h-347v34z" />
    <glyph glyph-name="uni02CE" unicode="&#x2ce;" 
d="M119 -93h79l103 -148h-39z" />
    <glyph glyph-name="uni02CF" unicode="&#x2cf;" 
d="M318 -91l-148 -153h-40l106 153h82z" />
    <glyph glyph-name="uni02D0" unicode="&#x2d0;" 
d="M43 462h112l-56 -56zM43 0l56 56l56 -56h-112z" />
    <glyph glyph-name="uni02D1" unicode="&#x2d1;" 
d="M43 462h112l-56 -56z" />
    <glyph glyph-name="uni02D2" unicode="&#x2d2;" 
d="M328 166l1 33q34 0 41 31q8 30 -15 46q-10 8 -25 8v29q52 -1 68 -46q15 -42 -13 -75q-21 -25 -57 -26z" />
    <glyph glyph-name="uni02D3" unicode="&#x2d3;" 
d="M392 154q-52 2 -69 48q-16 42 11 75q20 24 56 24v-29q-33 0 -41 -31q-7 -31 17 -47q11 -7 25 -7z" />
    <glyph glyph-name="uni02D4" unicode="&#x2d4;" 
d="M186 302h98v-27h-223v27h98v96h27v-96z" />
    <glyph glyph-name="uni02D5" unicode="&#x2d5;" 
d="M186 384v-96h-27v96h-98v27h223v-27h-98z" />
    <glyph glyph-name="uni02D6" unicode="&#x2d6;" 
d="M262 424v-138h141v-29h-141v-140h-29v140h-137v29h137v138h29z" />
    <glyph glyph-name="uni02D7" unicode="&#x2d7;" 
d="M77 290h385v-37h-385v37z" />
    <glyph glyph-name="breve" unicode="&#x2d8;" 
d="M361 787q-8 -63 -59 -87q-21 -9 -44 -9q-60 0 -89 51q-12 20 -15 45h24q13 -44 80 -44q59 0 79 44h24z" />
    <glyph glyph-name="dotaccent" unicode="&#x2d9;" 
d="M326 562v-97h-74v97h74z" />
    <glyph glyph-name="ring" unicode="&#x2da;" 
d="M244 628q50 0 77 -43q14 -22 14 -48q0 -50 -43 -77q-22 -14 -48 -14q-50 0 -77 43q-14 22 -14 48q0 50 43 77q22 14 48 14zM244 594q-34 0 -51 -31q-6 -12 -6 -26q0 -34 31 -51q12 -6 26 -6q34 0 51 31q6 12 6 26q0 34 -31 51q-12 6 -26 6z" />
    <glyph glyph-name="ogonek" unicode="&#x2db;" 
d="M123 0h42q-38 -6 -48 -49q-4 -15 -2 -31q5 -35 65 -45q53 -9 85 35l20 -25q-35 -56 -100 -55q-62 1 -93 42q-17 21 -17 48q0 54 48 80z" />
    <glyph glyph-name="tilde" unicode="&#x2dc;" 
d="M283 708q1 43 39 67q18 11 36 11q15 1 44 -22q16 -13 25 -12q34 3 54 30h5q3 -40 -25 -63q-14 -11 -32 -11q-23 1 -48 22q-15 13 -26 13q-40 -1 -62 -35h-10z" />
    <glyph glyph-name="hungarumlaut" unicode="&#x2dd;" 
d="M383 657l-169 -175h-46l122 175h93zM565 657l-169 -175h-46l122 175h93z" />
    <glyph glyph-name="uni02DE" unicode="&#x2de;" 
d="M49 228q22 7 42 34q5 7 7 13l9 -52q20 -75 56 -75q24 0 44 35q9 16 20 7q8 -8 2 -17q-35 -46 -64 -49q-53 0 -73 84l-4 20q-9 -17 -32 -24l-22 -6l-4 24z" />
    <glyph glyph-name="uni02DF" unicode="&#x2df;" 
d="M424 9l-124 124l-124 -124l-24 24l124 124l-124 124l24 24l124 -124l124 124l24 -24l-124 -124l124 -124z" />
    <glyph glyph-name="uni02E0" unicode="&#x2e0;" 
d="M200 206l-10 -20q-9 -20 10 -20q21 0 0 40zM254 478v20h117v-20h-31l-128 -242l19 -43q11 -23 -6 -40q-9 -9 -25 -9q-31 0 -37 24q-3 10 2 20l22 51l-128 239h-31l-1 20h118v-20h-63l118 -217l116 217h-62z" />
    <glyph glyph-name="uni02E1" unicode="&#x2e1;" 
d="M175 637l-98 -24v21l120 29v-359h129v-20h-249v20h98v333z" />
    <glyph glyph-name="uni02E2" unicode="&#x2e2;" 
d="M290 502q-7 -18 -7 -30q0 -23 14 -37l-20 1v0v0q-16 28 -55 40q-13 4 -26 4q-72 0 -83 -34q-1 -4 -1 -9q0 -33 53 -48l83 -20q52 -18 52 -59q0 -43 -56 -62q-24 -8 -51 -8q-40 0 -68 20q-6 3 -7 -4l-9 -21h-21l9 20q6 14 6 23q0 14 -15 34h21l8 -13q26 -37 76 -37
q65 0 81 33q4 7 4 15q0 30 -52 44l-80 19q-57 19 -57 64q0 42 60 59q22 6 47 6q30 0 61 -17q7 -3 7 1q3 11 6 16h20z" />
    <glyph glyph-name="uni02E3" unicode="&#x2e3;" 
d="M127 242h-96v21h34l122 107l-123 108h-33v20h96v-20h-30l106 -94l106 94h-29v20h96v-20h-33l-123 -108l122 -107h34v-21h-96v21h28l-105 92l-104 -92h28v-21z" />
    <glyph glyph-name="uni02E4" unicode="&#x2e4;" 
d="M188 281h-22v123q0 19 -34 47q-41 34 -52 56q-7 16 -7 33q0 53 61 73q57 19 109 -4q43 -20 43 -59v-10h-23v10q0 33 -48 45q-52 13 -92 -10q-28 -17 -28 -45q0 -31 40 -65q37 -30 45 -43t8 -28v-123z" />
    <glyph glyph-name="uni02E5" unicode="&#x2e5;" 
d="M0 653h178v-653h-32v623h-146v30z" />
    <glyph glyph-name="uni02E6" unicode="&#x2e6;" 
d="M0 526h146v127h32v-653h-32v496h-146v30z" />
    <glyph glyph-name="uni02E7" unicode="&#x2e7;" 
d="M0 361h146v292h32v-653h-32v331h-146v30z" />
    <glyph glyph-name="uni02E8" unicode="&#x2e8;" 
d="M0 126v30h146v496h32v-653h-32v127h-146z" />
    <glyph glyph-name="uni02E9" unicode="&#x2e9;" 
d="M0 0v30h146v623h32v-653h-178z" />
    <glyph glyph-name="uni02EA" unicode="&#x2ea;" 
d="M205 422v-397h215v-25h-240v422h25z" />
    <glyph glyph-name="uni02EB" unicode="&#x2eb;" 
d="M405 200h-185v-200h-25v425h25v-200h185v-25z" />
    <glyph glyph-name="uni02EC" unicode="&#x2ec;" 
d="M196 140l104 -105l104 105l36 -36l-140 -139l-140 139z" />
    <glyph glyph-name="uni02ED" unicode="&#x2ed;" 
d="M67 729h466v-50h-466v50zM67 622h466v-50h-466v50z" />
    <glyph glyph-name="uni02EE" unicode="&#x2ee;" 
d="M482 627l-139 -204h-46l92 204h93zM303 627l-138 -204h-47l92 204h93z" />
    <glyph glyph-name="gravecomb" unicode="&#x300;" horiz-adv-x="0" 
d="M-144 715h79l104 -149h-39z" />
    <glyph glyph-name="acutecomb" unicode="&#x301;" horiz-adv-x="0" 
d="M89 715l-148 -153h-40l106 153h82z" />
    <glyph glyph-name="uni0302" unicode="&#x302;" horiz-adv-x="0" 
d="M23 672l-15 -12l-122 78l-127 -78l-15 12l140 109z" />
    <glyph glyph-name="tildecomb" unicode="&#x303;" horiz-adv-x="0" 
d="M-302 668q1 39 37 61q15 10 31 10q14 1 41 -21q14 -11 22 -10q30 3 49 27h5q2 -37 -24 -57q-13 -10 -28 -10q-21 1 -44 20q-13 12 -24 12q-36 -1 -56 -32h-9z" />
    <glyph glyph-name="uni0304" unicode="&#x304;" horiz-adv-x="0" 
d="M-381 684h347v-34h-347v34z" />
    <glyph glyph-name="uni0305" unicode="&#x305;" horiz-adv-x="0" 
d="M-585 692h582v-33h-582v33z" />
    <glyph glyph-name="uni0306" unicode="&#x306;" horiz-adv-x="0" 
d="M-118 787q-8 -63 -59 -87q-21 -9 -44 -9q-60 0 -89 51q-12 20 -15 45h24q13 -44 79 -44q60 0 80 44h24z" />
    <glyph glyph-name="uni0307" unicode="&#x307;" horiz-adv-x="0" 
d="M11 715v-97h-74v97h74z" />
    <glyph glyph-name="uni0308" unicode="&#x308;" horiz-adv-x="0" 
d="M-202 687q0 27 25 36q6 2 13 2q27 0 36 -25q2 -6 2 -13q0 -27 -25 -36q-6 -2 -13 -2q-27 0 -36 25q-2 6 -2 13zM-45 687q0 27 25 36q6 2 13 2q27 0 36 -25q2 -6 2 -13q0 -27 -25 -36q-6 -2 -13 -2q-27 0 -36 25q-2 6 -2 13z" />
    <glyph glyph-name="hookabovecomb" unicode="&#x309;" horiz-adv-x="0" 
d="M-114 758q0 22 -17 22q-7 0 -14 -10l-15 -8q-1 15 17 23q5 2 10 2q41 1 43 -30q1 -17 -18 -34q-15 -14 -17 -28q-1 -4 -1 -8h-12v9q1 12 15 34q9 14 9 28z" />
    <glyph glyph-name="uni030A" unicode="&#x30a;" horiz-adv-x="0" 
d="M-257 772q52 0 78 -44q13 -21 13 -47q0 -52 -44 -78q-21 -13 -47 -13q-50 0 -77 43q-14 22 -14 48q0 52 44 78q22 13 47 13zM-257 738q-36 0 -51 -32q-6 -12 -6 -25q0 -34 31 -51q12 -6 26 -6q36 0 51 33q6 11 6 24q0 37 -34 52q-11 5 -23 5z" />
    <glyph glyph-name="uni030B" unicode="&#x30b;" horiz-adv-x="0" 
d="M-39 715l-148 -153h-41l107 153h82zM-219 715l-148 -153h-40l106 153h82z" />
    <glyph glyph-name="uni030C" unicode="&#x30c;" horiz-adv-x="0" 
d="M-183 674l-97 -98h-17l-98 98l11 12l97 -76l93 76z" />
    <glyph glyph-name="uni030D" unicode="&#x30d;" horiz-adv-x="0" 
d="M-124 786h52l-14 -122h-24z" />
    <glyph glyph-name="uni030E" unicode="&#x30e;" horiz-adv-x="0" 
d="M-99 785h52l-14 -122h-24zM-241 785h52l-14 -122h-24z" />
    <glyph glyph-name="uni030F" unicode="&#x30f;" horiz-adv-x="0" 
d="M-278 672h80l103 -149h-39zM-459 672h79l104 -149h-40z" />
    <glyph glyph-name="uni0310" unicode="&#x310;" horiz-adv-x="0" 
d="M-124 731q-8 -64 -61 -87q-20 -8 -43 -8q-60 0 -89 50q-12 20 -14 45h24q13 -43 79 -43q59 0 80 43h24zM-29 731v-97h-74v97h74z" />
    <glyph glyph-name="uni0311" unicode="&#x311;" horiz-adv-x="0" 
d="M-118 691h-24q-20 44 -80 44q-66 0 -79 -44h-24q6 60 57 85q22 11 47 11q60 0 89 -53q11 -19 14 -43z" />
    <glyph glyph-name="uni0312" unicode="&#x312;" horiz-adv-x="0" 
d="M-165 734q15 53 70 80q16 7 32 10l13 -16q-24 -6 -40 -30q-12 -19 -2 -33q28 -17 23 -53q-6 -36 -39 -44q-8 -2 -18 -1q-40 2 -49 39q-6 27 10 48z" />
    <glyph glyph-name="uni0313" unicode="&#x313;" horiz-adv-x="0" 
d="M-99 672q-15 -53 -70 -80q-16 -7 -32 -10l-13 16q24 6 40 30q12 19 2 33q-28 17 -23 53q6 36 39 44q8 2 18 1q40 -2 49 -39q6 -27 -10 -48z" />
    <glyph glyph-name="uni0314" unicode="&#x314;" horiz-adv-x="0" 
d="M-189 672q-21 27 -6 59q13 26 45 28q41 3 54 -34q12 -34 -12 -58q-3 -3 -8 -6q-15 -21 16 -48q13 -12 26 -15l-13 -16q-58 11 -89 61q-9 14 -13 29z" />
    <glyph glyph-name="uni0315" unicode="&#x315;" horiz-adv-x="0" 
d="M-99 672q-15 -53 -70 -80q-16 -7 -32 -10l-13 16q24 6 40 30q12 19 2 33q-28 17 -23 53q6 36 39 44q8 2 18 1q40 -2 49 -39q6 -27 -10 -48z" />
    <glyph glyph-name="uni0316" unicode="&#x316;" horiz-adv-x="0" 
d="M-486 -16h79l104 -149h-39z" />
    <glyph glyph-name="uni0317" unicode="&#x317;" horiz-adv-x="0" 
d="M-222 -17l-148 -153h-40l106 153h82z" />
    </font>
</defs>
</svg>
